<svg display="none" xmlns="http://www.w3.org/2000/svg">
   <!-- vk -->
   <symbol id="vk" viewBox="0 0 43 41">
      <svg>
         <g>
            <path d="M40.26 0H2.7461C1.22892 0 0 1.17176 0 2.61548V38.3845C0 39.8282 1.22892 41 2.7461 41H40.2569C41.7711 41 43 39.8282 43 38.3845V2.61548C43.003 1.16887 41.7741 0 40.26 0ZM35.669 24.9831C36.4549 25.7469 38.1602 27.0286 37.8507 28.3334C37.5654 29.5312 35.6902 29.0943 33.8696 29.1638C31.791 29.2477 30.5591 29.2911 29.3089 28.3334C28.7203 27.8792 28.3744 27.341 27.81 26.7393C27.2972 26.1953 26.6508 25.2203 25.7709 25.2579C24.19 25.3331 24.6846 27.4336 24.1232 28.8658C15.3357 30.1851 11.8067 25.0091 8.69346 19.9865C7.18538 17.5532 5.0067 12.3281 5.0067 12.3281L11.2211 12.3078C11.2211 12.3078 13.2147 15.7652 13.7426 16.6563C14.1917 17.4144 14.6863 18.0162 15.1961 18.6932C15.624 19.2545 16.3006 20.3539 17.041 20.2642C18.2456 20.1166 18.4641 15.6611 17.7177 14.1682C17.4203 13.5635 16.7072 13.3523 15.9699 13.1469C16.2187 11.6482 22.9398 11.3357 24.0261 12.4988C25.604 14.1884 22.9337 18.8928 25.0942 20.2642C28.1286 18.7481 30.7199 12.4004 30.7199 12.4004L37.9963 12.4438C37.9963 12.4438 36.8584 15.8752 35.6659 17.397C34.9711 18.2881 32.6649 20.2729 32.756 21.7455C32.8288 22.9115 34.704 24.0457 35.669 24.9831Z"/>
         </g>
      </svg>
   </symbol>
   <!-- vk -->

   <!-- ok -->
   <symbol id="ok" viewBox="0 0 43 41">
      <svg>
         <g>
            <path d="M21.5237 16.3958C23.924 16.3884 25.8356 14.5508 25.8269 12.257C25.8173 9.96314 23.9025 8.13602 21.5013 8.13428C19.08 8.1321 17.1464 9.99193 17.1652 12.3067C17.183 14.5918 19.1162 16.4054 21.5237 16.3958Z"/>
            <path d="M40.7128 0H2.28723C1.02422 0 0 0.976149 0 2.18085V38.8191C0 40.0239 1.02422 41 2.28723 41H40.7128C41.9762 41 43 40.0239 43 38.8191V2.18085C43 0.976149 41.9762 0 40.7128 0ZM21.5366 3.82347C26.4308 3.83524 30.3603 7.65348 30.336 12.3733C30.31 16.9836 26.3165 20.7207 21.43 20.705C16.5921 20.6893 12.6251 16.8654 12.6525 12.245C12.6813 7.5741 16.6511 3.80951 21.5366 3.82347ZM31.4508 24.0208C30.3685 25.0811 29.0657 25.847 27.6184 26.3831C26.2501 26.8873 24.7511 27.1429 23.2671 27.3121C23.4913 27.545 23.5969 27.658 23.736 27.7928C25.7506 29.7228 27.7734 31.645 29.7812 33.5807C30.4646 34.2398 30.6091 35.0576 30.2317 35.8248C29.8196 36.6645 28.8978 37.2154 27.993 37.156C27.4203 37.1176 26.9738 36.8459 26.5777 36.466C25.0571 35.007 23.5077 33.5755 22.0192 32.0908C21.586 31.6581 21.3774 31.7388 20.9941 32.1152C19.4648 33.6165 17.9118 35.0947 16.3487 36.5642C15.6465 37.2245 14.8117 37.3427 13.996 36.9663C13.1306 36.5663 12.5807 35.7241 12.6232 34.8766C12.6525 34.3044 12.948 33.8673 13.3602 33.4748C15.3528 31.577 17.3409 29.6744 19.3299 27.7731C19.4621 27.6475 19.5847 27.5127 19.7763 27.3173C17.0641 27.0474 14.6186 26.4114 12.5258 24.8499C12.2664 24.6558 11.9979 24.4683 11.76 24.2511C10.8442 23.4119 10.7523 22.4519 11.4773 21.4613C12.0967 20.6143 13.1388 20.3866 14.2206 20.8729C14.4306 20.9667 14.6301 21.0849 14.8213 21.211C18.7224 23.7669 24.0823 23.838 27.9985 21.327C28.3859 21.0448 28.8009 20.811 29.2821 20.695C30.2176 20.466 31.0876 20.7927 31.5899 21.5725C32.1649 22.461 32.1571 23.3299 31.4508 24.0208Z"/>
         </g>
      </svg>
   </symbol>
   <!-- ok -->
</svg>