<svg display="none" xmlns="http://www.w3.org/2000/svg">

   <!-- facebook -->
   <symbol id="facebook" viewBox="0 0 43 41">
      <svg>
         <g>
            <path d="M39.8988 0H3.10119C1.38837 0 0 1.32379 0 2.95695V38.0431C0 39.6762 1.38837 41 3.10119 41H22.9697V25.1445H17.3848V18.9385H22.9697V14.3712C22.9697 9.07479 26.3609 6.19198 31.316 6.19198C33.6892 6.19198 35.7288 6.36058 36.3232 6.43597V11.9717H32.9065C30.2104 11.9717 29.6885 13.1932 29.6885 14.9859V18.9385H36.1343L35.2944 25.1445H29.6885V41H39.8988C41.6116 41 43 39.6762 43 38.0431V2.95695C43 1.32379 41.6116 0 39.8988 0V0Z"/>
         </g>
      </svg>
   </symbol>
   <!-- facebook -->

   <!-- youtube -->
   <symbol id="youtube" viewBox="0 0 43 41">
      <svg>
         <g>
            <path d="M18.822 24.3404L25.8157 20.4998L18.822 16.6592V24.3404Z"/>
            <path d="M39.8988 0H3.10119C1.38837 0 0 1.32379 0 2.95695V38.0431C0 39.6762 1.38837 41 3.10119 41H39.8988C41.6116 41 43 39.6762 43 38.0431V2.95695C43 1.32379 41.6116 0 39.8988 0V0ZM34.9342 20.521C34.9342 20.521 34.9342 24.6785 34.3811 26.6832C34.0711 27.7805 33.1637 28.6458 32.0128 28.941C29.9102 29.4688 21.5 29.4688 21.5 29.4688C21.5 29.4688 13.1117 29.4688 10.9872 28.9201C9.83634 28.6248 8.92892 27.7593 8.6189 26.6619C8.06545 24.6785 8.06545 20.5 8.06545 20.5C8.06545 20.5 8.06545 16.3428 8.6189 14.3381C8.92859 13.2407 9.85832 12.3542 10.9872 12.059C13.0898 11.5312 21.5 11.5312 21.5 11.5312C21.5 11.5312 29.9102 11.5312 32.0128 12.0799C33.1637 12.3752 34.0711 13.2407 34.3811 14.3381C34.9565 16.3428 34.9342 20.521 34.9342 20.521Z"/>
         </g>
      </svg>
   </symbol>
   <!-- youtube -->

   <!-- inst -->
   <symbol id="inst" viewBox="0 0 43 41">
      <svg>
         <g>
            <path d="M29.6765 13.5576C29.4879 13.0464 29.1869 12.5838 28.7959 12.2041C28.4162 11.813 27.9539 11.5121 27.4424 11.3235C27.0276 11.1624 26.4045 10.9707 25.2569 10.9184C24.0153 10.8618 23.6431 10.8496 20.5 10.8496C17.3567 10.8496 16.9844 10.8615 15.7432 10.9181C14.5955 10.9707 13.9721 11.1624 13.5576 11.3235C13.0462 11.5121 12.5836 11.813 12.2041 12.2041C11.8131 12.5838 11.5122 13.0461 11.3233 13.5576C11.1622 13.9723 10.9704 14.5958 10.9182 15.7434C10.8616 16.9847 10.8494 17.3569 10.8494 20.5003C10.8494 23.6433 10.8616 24.0156 10.9182 25.2571C10.9704 26.4048 11.1622 27.0279 11.3233 27.4427C11.5122 27.9541 11.8128 28.4164 12.2038 28.7962C12.5836 29.1872 13.0459 29.4881 13.5573 29.6767C13.9721 29.8381 14.5955 30.0299 15.7432 30.0821C16.9844 30.1387 17.3563 30.1506 20.4997 30.1506C23.6434 30.1506 24.0156 30.1387 25.2565 30.0821C26.4042 30.0299 27.0276 29.8381 27.4424 29.6767C28.4691 29.2807 29.2805 28.4693 29.6765 27.4427C29.8376 27.0279 30.0293 26.4048 30.0819 25.2571C30.1385 24.0156 30.1504 23.6433 30.1504 20.5003C30.1504 17.3569 30.1385 16.9847 30.0819 15.7434C30.0296 14.5958 29.8379 13.9723 29.6765 13.5576ZM20.5 26.5446C17.1615 26.5446 14.4551 23.8385 14.4551 20.5C14.4551 17.1614 17.1615 14.4553 20.5 14.4553C23.8383 14.4553 26.5447 17.1614 26.5447 20.5C26.5447 23.8385 23.8383 26.5446 20.5 26.5446ZM26.7837 15.629C26.0035 15.629 25.371 14.9965 25.371 14.2163C25.371 13.4362 26.0035 12.8037 26.7837 12.8037C27.5638 12.8037 28.1963 13.4362 28.1963 14.2163C28.196 14.9965 27.5638 15.629 26.7837 15.629Z"/>
            <path d="M24.4238 20.5C24.4238 22.6671 22.6671 24.4238 20.5 24.4238C18.3329 24.4238 16.5762 22.6671 16.5762 20.5C16.5762 18.3329 18.3329 16.5762 20.5 16.5762C22.6671 16.5762 24.4238 18.3329 24.4238 20.5Z"/>
            <path d="M38.0431 0H2.95695C1.32379 0 0 1.32379 0 2.95695V38.0431C0 39.6762 1.32379 41 2.95695 41H38.0431C39.6762 41 41 39.6762 41 38.0431V2.95695C41 1.32379 39.6762 0 38.0431 0V0ZM32.2005 25.3532C32.1435 26.6063 31.9443 27.4618 31.6534 28.2106C31.0418 29.7919 29.7919 31.0418 28.2106 31.6534C27.4621 31.9443 26.6063 32.1432 25.3535 32.2005C24.0982 32.2577 23.6972 32.2715 20.5003 32.2715C17.3031 32.2715 16.9024 32.2577 15.6468 32.2005C14.394 32.1432 13.5382 31.9443 12.7897 31.6534C12.0039 31.3578 11.2926 30.8945 10.7045 30.2955C10.1058 29.7077 9.64253 28.9961 9.34693 28.2106C9.05602 27.4621 8.85677 26.6063 8.79984 25.3535C8.74197 24.0979 8.72852 23.6969 8.72852 20.5C8.72852 17.3031 8.74197 16.9021 8.79952 15.6468C8.85645 14.3937 9.0554 13.5382 9.34631 12.7894C9.64191 12.0039 10.1055 11.2923 10.7045 10.7045C11.2923 10.1055 12.0039 9.64222 12.7894 9.34662C13.5382 9.05571 14.3937 8.85677 15.6468 8.79952C16.9021 8.74228 17.3031 8.72852 20.5 8.72852C23.6969 8.72852 24.0979 8.74228 25.3532 8.79984C26.6063 8.85677 27.4618 9.05571 28.2106 9.34631C28.9961 9.64191 29.7077 10.1055 30.2958 10.7045C30.8945 11.2926 31.3581 12.0039 31.6534 12.7894C31.9446 13.5382 32.1435 14.3937 32.2008 15.6468C32.258 16.9021 32.2715 17.3031 32.2715 20.5C32.2715 23.6969 32.258 24.0979 32.2005 25.3532Z"/>
         </g>
      </svg>
   </symbol>
   <!-- inst -->

   <!-- vk -->
   <symbol id="vk" viewBox="0 0 43 41">
      <svg>
         <g>
            <path d="M40.26 0H2.7461C1.22892 0 0 1.17176 0 2.61548V38.3845C0 39.8282 1.22892 41 2.7461 41H40.2569C41.7711 41 43 39.8282 43 38.3845V2.61548C43.003 1.16887 41.7741 0 40.26 0ZM35.669 24.9831C36.4549 25.7469 38.1602 27.0286 37.8507 28.3334C37.5654 29.5312 35.6902 29.0943 33.8696 29.1638C31.791 29.2477 30.5591 29.2911 29.3089 28.3334C28.7203 27.8792 28.3744 27.341 27.81 26.7393C27.2972 26.1953 26.6508 25.2203 25.7709 25.2579C24.19 25.3331 24.6846 27.4336 24.1232 28.8658C15.3357 30.1851 11.8067 25.0091 8.69346 19.9865C7.18538 17.5532 5.0067 12.3281 5.0067 12.3281L11.2211 12.3078C11.2211 12.3078 13.2147 15.7652 13.7426 16.6563C14.1917 17.4144 14.6863 18.0162 15.1961 18.6932C15.624 19.2545 16.3006 20.3539 17.041 20.2642C18.2456 20.1166 18.4641 15.6611 17.7177 14.1682C17.4203 13.5635 16.7072 13.3523 15.9699 13.1469C16.2187 11.6482 22.9398 11.3357 24.0261 12.4988C25.604 14.1884 22.9337 18.8928 25.0942 20.2642C28.1286 18.7481 30.7199 12.4004 30.7199 12.4004L37.9963 12.4438C37.9963 12.4438 36.8584 15.8752 35.6659 17.397C34.9711 18.2881 32.6649 20.2729 32.756 21.7455C32.8288 22.9115 34.704 24.0457 35.669 24.9831Z"/>
         </g>
      </svg>
   </symbol>
   <!-- vk -->

   <!-- ok -->
   <symbol id="ok" viewBox="0 0 43 41">
      <svg>
         <g>
            <path d="M21.5237 16.3958C23.924 16.3884 25.8356 14.5508 25.8269 12.257C25.8173 9.96314 23.9025 8.13602 21.5013 8.13428C19.08 8.1321 17.1464 9.99193 17.1652 12.3067C17.183 14.5918 19.1162 16.4054 21.5237 16.3958Z"/>
            <path d="M40.7128 0H2.28723C1.02422 0 0 0.976149 0 2.18085V38.8191C0 40.0239 1.02422 41 2.28723 41H40.7128C41.9762 41 43 40.0239 43 38.8191V2.18085C43 0.976149 41.9762 0 40.7128 0ZM21.5366 3.82347C26.4308 3.83524 30.3603 7.65348 30.336 12.3733C30.31 16.9836 26.3165 20.7207 21.43 20.705C16.5921 20.6893 12.6251 16.8654 12.6525 12.245C12.6813 7.5741 16.6511 3.80951 21.5366 3.82347ZM31.4508 24.0208C30.3685 25.0811 29.0657 25.847 27.6184 26.3831C26.2501 26.8873 24.7511 27.1429 23.2671 27.3121C23.4913 27.545 23.5969 27.658 23.736 27.7928C25.7506 29.7228 27.7734 31.645 29.7812 33.5807C30.4646 34.2398 30.6091 35.0576 30.2317 35.8248C29.8196 36.6645 28.8978 37.2154 27.993 37.156C27.4203 37.1176 26.9738 36.8459 26.5777 36.466C25.0571 35.007 23.5077 33.5755 22.0192 32.0908C21.586 31.6581 21.3774 31.7388 20.9941 32.1152C19.4648 33.6165 17.9118 35.0947 16.3487 36.5642C15.6465 37.2245 14.8117 37.3427 13.996 36.9663C13.1306 36.5663 12.5807 35.7241 12.6232 34.8766C12.6525 34.3044 12.948 33.8673 13.3602 33.4748C15.3528 31.577 17.3409 29.6744 19.3299 27.7731C19.4621 27.6475 19.5847 27.5127 19.7763 27.3173C17.0641 27.0474 14.6186 26.4114 12.5258 24.8499C12.2664 24.6558 11.9979 24.4683 11.76 24.2511C10.8442 23.4119 10.7523 22.4519 11.4773 21.4613C12.0967 20.6143 13.1388 20.3866 14.2206 20.8729C14.4306 20.9667 14.6301 21.0849 14.8213 21.211C18.7224 23.7669 24.0823 23.838 27.9985 21.327C28.3859 21.0448 28.8009 20.811 29.2821 20.695C30.2176 20.466 31.0876 20.7927 31.5899 21.5725C32.1649 22.461 32.1571 23.3299 31.4508 24.0208Z"/>
         </g>
      </svg>
   </symbol>
   <!-- ok -->
</svg>