<svg width="44" height="44" viewBox="0 0 44 44" fill="none" xmlns="http://www.w3.org/2000/svg">
<g filter="url(#filter0_d)">
<circle cx="22" cy="18" r="18" fill="white"/>
</g>
<path d="M20.04 14.5H23.94V29.5H20.04V14.5ZM19.47 10.27C19.47 9.69 19.68 9.2 20.1 8.8C20.54 8.38 21.14 8.17 21.9 8.17C22.66 8.17 23.27 8.38 23.73 8.8C24.21 9.2 24.45 9.69 24.45 10.27C24.45 10.85 24.21 11.34 23.73 11.74C23.27 12.12 22.66 12.31 21.9 12.31C21.14 12.31 20.54 12.12 20.1 11.74C19.68 11.34 19.47 10.85 19.47 10.27Z" fill="#124B8D"/>
<defs>
<filter id="filter0_d" x="0" y="0" width="44" height="44" filterUnits="userSpaceOnUse" color-interpolation-filters="sRGB">
<feFlood flood-opacity="0" result="BackgroundImageFix"/>
<feColorMatrix in="SourceAlpha" type="matrix" values="0 0 0 0 0 0 0 0 0 0 0 0 0 0 0 0 0 0 127 0"/>
<feOffset dy="4"/>
<feGaussianBlur stdDeviation="2"/>
<feColorMatrix type="matrix" values="0 0 0 0 0 0 0 0 0 0 0 0 0 0 0 0 0 0 0.25 0"/>
<feBlend mode="normal" in2="BackgroundImageFix" result="effect1_dropShadow"/>
<feBlend mode="normal" in="SourceGraphic" in2="effect1_dropShadow" result="shape"/>
</filter>
</defs>
</svg>
