<svg width="196" height="54" viewBox="0 0 196 54" fill="none" xmlns="http://www.w3.org/2000/svg">
<path d="M151.39 5.27254C151.156 6.55799 150.41 7.67184 149.15 8.61097C148.766 8.89801 148.351 9.18505 147.905 9.47209L142.385 12.9915H149.989L149.412 16.1677H137.153L137.936 11.8558L147.181 5.9527L147.387 4.81701C147.552 3.90909 147.181 3.45668 146.273 3.45668H139.918L140.495 0.277376H147.758C149.346 0.277376 150.435 0.639299 151.025 1.35691C151.611 2.07451 151.761 3.22892 151.474 4.81701L151.39 5.27254ZM161.854 4.59237C162.02 3.68444 161.649 3.22892 160.741 3.22892H158.241C157.334 3.22892 156.797 3.68444 156.632 4.59237L155.315 11.8558C155.15 12.7637 155.521 13.2161 156.429 13.2161H158.925C159.833 13.2161 160.369 12.7637 160.535 11.8558L161.854 4.59237ZM164.622 11.8558C164.332 13.4439 163.764 14.5983 162.915 15.3159C162.063 16.0366 160.847 16.3954 159.255 16.3954H154.944C153.355 16.3954 152.267 16.0366 151.677 15.3159C151.09 14.5983 150.941 13.4439 151.228 11.8558L152.547 4.59237C152.834 3.00116 153.405 1.84987 154.254 1.12914C155.103 0.411538 156.323 0.0527344 157.911 0.0527344H162.226C163.814 0.0527344 164.903 0.411538 165.489 1.12914C166.079 1.84987 166.229 3.00116 165.939 4.59237L164.622 11.8558Z" fill="white"/>
<path d="M2.95467 42.8601H0L5.86877 32.252H8.89831L11.0636 42.8601H8.10895L7.75639 40.9631H3.96867L2.95467 42.8601ZM4.99204 38.9944H7.41942L6.82662 35.4344L4.99204 38.9944ZM13.2227 32.252H19.2818C20.2739 32.252 20.9603 32.4766 21.3472 32.9259C21.7341 33.3752 21.8464 34.0585 21.6873 34.9789C21.5812 35.5842 21.3628 36.0772 21.0352 36.4547C20.7045 36.8353 20.3363 37.1005 19.9245 37.2503C20.7045 37.4749 21.1663 38.0178 21.3067 38.8883C21.3535 39.2003 21.341 39.5653 21.2692 39.9803C21.0945 40.9694 20.7357 41.6963 20.1897 42.1612C19.6437 42.6261 18.8762 42.8601 17.8871 42.8601H11.3694L13.2227 32.252ZM18.6203 39.5248C18.7264 38.9195 18.4737 38.6169 17.8684 38.6169H14.8388L14.4676 40.7385H17.4971C18.1055 40.7385 18.4612 40.4327 18.5673 39.8274L18.6203 39.5248ZM18.9042 35.2815C19.0103 34.6763 18.7607 34.3736 18.1554 34.3736H15.5783L15.207 36.4952H17.7841C18.3894 36.4952 18.7451 36.1895 18.8512 35.5842L18.9042 35.2815ZM26.5265 42.8601H23.7996L25.2816 34.3736H22.0991L22.4704 32.252H31.5622L31.1909 34.3736H28.0085L26.5265 42.8601ZM38.4886 35.1287C38.5947 34.5234 38.342 34.2207 37.7367 34.2207H35.1627C34.5543 34.2207 34.1986 34.5234 34.0925 35.1287L33.247 39.9803C33.1409 40.5856 33.3905 40.8882 33.9958 40.8882H36.5729C37.1782 40.8882 37.5339 40.5856 37.64 39.9803L38.4886 35.1287ZM40.37 39.9803C40.1828 41.0411 39.8084 41.8118 39.2437 42.2891C38.6821 42.7696 37.8709 43.0099 36.8101 43.0099H33.0192C31.9584 43.0099 31.2315 42.7696 30.8352 42.2891C30.439 41.8118 30.3329 41.0411 30.517 39.9803L31.3656 35.1287C31.5497 34.0679 31.9241 33.3003 32.4888 32.8198C33.0536 32.3394 33.8648 32.0991 34.9256 32.0991H38.7133C39.7741 32.0991 40.5042 32.3394 40.8973 32.8198C41.2967 33.3003 41.3996 34.0679 41.2155 35.1287L40.37 39.9803ZM51.0561 36.9476L48.2699 40.7385H46.1514L44.6913 36.9476L43.6585 42.8601H40.9316L42.7818 32.252H45.6616L47.7146 37.8587L51.7238 32.252H54.6036L52.7503 42.8601H50.0234L51.0561 36.9476ZM62.2882 35.1287C62.3912 34.5234 62.1416 34.2207 61.5363 34.2207H58.9591C58.3538 34.2207 57.9982 34.5234 57.8921 35.1287L57.0466 39.9803C56.9405 40.5856 57.1901 40.8882 57.7954 40.8882H60.3725C60.9778 40.8882 61.3335 40.5856 61.4396 39.9803L62.2882 35.1287ZM64.1665 39.9803C63.9824 41.0411 63.608 41.8118 63.0432 42.2891C62.4816 42.7696 61.6673 43.0099 60.6065 43.0099H56.8188C55.758 43.0099 55.031 42.7696 54.6348 42.2891C54.2385 41.8118 54.1325 41.0411 54.3165 39.9803L55.1652 35.1287C55.3493 34.0679 55.7237 33.3003 56.2884 32.8198C56.85 32.3394 57.6643 32.0991 58.7251 32.0991H62.5128C63.5737 32.0991 64.3006 32.3394 64.6969 32.8198C65.0931 33.3003 65.1992 34.0679 65.0151 35.1287L64.1665 39.9803ZM68.5938 36.3424H72.2317C73.2925 36.3424 74.0226 36.5826 74.4189 37.0631C74.812 37.5436 74.9181 38.3111 74.734 39.3719L74.6529 39.8274C74.4688 40.8882 74.0944 41.6589 73.5297 42.1394C72.968 42.6198 72.1568 42.8601 71.0929 42.8601H64.7281L66.5814 32.252H74.993L74.6217 34.3736H68.9401L68.5938 36.3424ZM72.0071 39.3719C72.11 38.7666 71.8604 38.464 71.2552 38.464H68.2256L67.8262 40.7385H70.8589C71.4642 40.7385 71.8199 40.4327 71.926 39.8274L72.0071 39.3719ZM84.2813 42.8601H81.5544L82.69 36.3424L77.9164 42.8601H75.0366L76.8899 32.252H79.6168L78.4811 38.7666L83.2548 32.252H86.1346L84.2813 42.8601ZM89.214 40.6605C89.0393 41.3874 88.7055 41.9615 88.2187 42.3827C87.732 42.8008 87.1829 43.0099 86.5776 43.0099C85.9723 43.0099 85.4107 42.9599 84.8928 42.8601L85.2485 40.8134H85.9318C86.1221 40.8134 86.2937 40.7478 86.4434 40.6168C86.5932 40.4858 86.6868 40.3235 86.7305 40.1301L88.5619 32.252H96.9735L95.1202 42.8601H92.3933L93.8753 34.3736H90.6929L89.214 40.6605ZM100.434 35.8868H104.068C105.129 35.8868 105.859 36.1271 106.256 36.6076C106.652 37.088 106.758 37.8587 106.571 38.9195L106.412 39.8274C106.228 40.8882 105.853 41.6589 105.288 42.1394C104.727 42.6198 103.912 42.8601 102.852 42.8601H96.4868L98.3401 32.252H101.067L100.434 35.8868ZM103.844 38.9195C103.95 38.3111 103.7 38.0085 103.092 38.0085H100.062L99.585 40.7385H102.618C103.223 40.7385 103.579 40.4327 103.685 39.8274L103.844 38.9195ZM114.071 42.8601H111.341L113.195 32.252H121.453L121.082 34.3736H115.553L114.071 42.8601ZM128.38 35.1287C128.486 34.5234 128.236 34.2207 127.631 34.2207H125.054C124.448 34.2207 124.09 34.5234 123.987 35.1287L123.138 39.9803C123.032 40.5856 123.282 40.8882 123.89 40.8882H126.467C127.072 40.8882 127.428 40.5856 127.534 39.9803L128.38 35.1287ZM130.261 39.9803C130.077 41.0411 129.703 41.8118 129.138 42.2891C128.573 42.7696 127.762 43.0099 126.701 43.0099H122.913C121.853 43.0099 121.123 42.7696 120.726 42.2891C120.33 41.8118 120.227 41.0411 120.411 39.9803L121.257 35.1287C121.444 34.0679 121.818 33.3003 122.38 32.8198C122.945 32.3394 123.756 32.0991 124.817 32.0991H128.607C129.668 32.0991 130.395 32.3394 130.791 32.8198C131.188 33.3003 131.294 34.0679 131.107 35.1287L130.261 39.9803ZM133.887 32.252H141.843L140.361 40.7385H141.499L140.785 44.8288H138.208L138.401 42.8601H132.489L131.996 44.8288H129.419L130.133 40.7385H131.119C131.469 40.4046 131.756 40.0271 131.974 39.609C132.192 39.1878 132.342 38.8072 132.423 38.464L133.887 32.252ZM137.634 40.7385L138.744 34.3736H135.943L135.053 38.1613C134.916 38.776 134.654 39.4 134.273 40.024C134.114 40.2861 133.949 40.5263 133.771 40.7385H137.634ZM143.783 42.8601H140.829L146.697 32.252L149.571 32.2021L149.942 33.3003L151.892 42.8601H148.938L148.585 40.9631H144.797L143.783 42.8601ZM145.821 38.9944H148.245L147.655 35.4344L145.821 38.9944Z" fill="white"/>
<path d="M150.198 23.5566C142.423 23.5285 133.2 22.5582 126.115 20.5676C118.355 18.3929 112.024 15.8657 103.345 15.3696C95.1608 14.9048 86.9676 14.5927 77.8446 16.3493C68.0758 18.2276 59.4926 22.6674 47.5616 25.6189C35.7149 28.5486 17.9963 25.8155 6.38977 31.3067L6.51457 31.0852C18.302 24.4739 35.069 27.3443 47.3776 24.0839C59.7828 20.7985 68.912 15.6068 78.8087 13.7971C87.3576 12.234 95.6225 12.5679 103.366 13.2199C111.953 13.9438 118.729 16.003 126.342 18.6207C133.294 21.0106 142.479 23.3694 150.198 23.5566Z" fill="#2D3036"/>
<path fill-rule="evenodd" clip-rule="evenodd" d="M150.335 23.9277C142.56 23.8996 132.951 23.859 126.115 22.2709C118.355 20.1337 112.025 18.9793 103.345 18.4926C95.1609 18.0339 87.4732 17.9122 78.3471 19.6345C68.5783 21.4784 59.4928 24.3333 47.5618 27.2318C35.6838 30.1178 17.7999 26.2209 6.19336 31.6591L6.37744 31.3284C18.1711 24.8449 35.0661 28.9291 47.3777 25.7248C59.7829 22.4956 68.9121 17.3943 78.8088 15.619C87.3577 14.084 95.6227 14.4116 103.367 15.0512C111.953 15.7626 118.73 17.7874 126.342 20.3584C134.323 23.1601 142.617 23.7405 150.335 23.9277Z" fill="#2669BC"/>
<path fill-rule="evenodd" clip-rule="evenodd" d="M150.198 23.6966C142.423 23.6685 133.2 22.7138 126.115 20.7607C118.355 18.6203 112.025 16.1399 103.345 15.6532C95.1609 15.1977 86.9677 14.8919 77.8447 16.6142C68.0759 18.4581 59.4927 22.8199 47.5618 25.7215C35.7119 28.6013 17.9683 25.9618 6.36182 31.3594L6.50846 31.0911C18.299 24.5952 35.0692 27.4188 47.3777 24.2145C59.7829 20.9853 68.9121 15.8841 78.8088 14.1088C87.3577 12.5737 95.6226 12.9013 103.367 13.5409C111.953 14.2523 118.73 16.2772 126.342 18.8481C133.294 21.1912 142.479 23.5125 150.198 23.6966Z" fill="white"/>
<path fill-rule="evenodd" clip-rule="evenodd" d="M151.312 24.1863C143.478 24.1645 134.854 24.4515 127.294 23.1848C111.538 20.5421 93.5792 19.3316 77.7451 21.656C67.9295 23.0943 60.8127 25.1598 48.8911 27.6776C36.9694 30.1955 17.6658 27.7681 5.86902 32.2516V32.2485L6.19974 31.6494C17.8562 26.3891 36.127 29.0754 47.8084 26.7104C60.9156 24.0553 68.6221 20.5234 78.5656 19.135C87.1551 17.9369 96.0502 17.7809 103.86 18.2832C112.518 18.8355 119.438 20.1927 127.138 22.1989C134.174 24.0303 143.534 24.0397 151.312 24.1863Z" fill="#D22027"/>
<path d="M21.1631 52.1197C21.1569 52.1665 21.1413 52.2009 21.1194 52.2289C21.1007 52.2508 21.0633 52.2633 21.0071 52.2633H19.2349C19.0134 52.2633 18.8387 52.2321 18.7076 52.1728C18.5766 52.1104 18.4799 52.0261 18.4112 51.9232C18.3457 51.8171 18.3083 51.6985 18.2958 51.5675C18.2864 51.4333 18.2927 51.296 18.3208 51.1494L18.692 49.0215C18.717 48.8749 18.7607 48.7345 18.8231 48.6003C18.8855 48.4662 18.9697 48.3445 19.0789 48.2415C19.185 48.1386 19.3161 48.0543 19.4658 47.9919C19.6187 47.9295 19.7934 47.8983 19.9931 47.8983H21.731C21.784 47.8983 21.8183 47.9108 21.8277 47.9327C21.8402 47.9576 21.8402 47.9919 21.8308 48.0419L21.7622 48.435C21.7528 48.488 21.7403 48.5255 21.7216 48.5442C21.7029 48.5629 21.6686 48.5723 21.6155 48.5723H19.9588C19.7997 48.5723 19.6842 48.6066 19.6062 48.6783C19.5282 48.747 19.4814 48.8499 19.4565 48.9841L19.3441 49.6362H21.2224C21.2785 49.6362 21.3098 49.6487 21.3191 49.6674C21.3316 49.6892 21.3316 49.7298 21.3222 49.786L21.263 50.1292C21.2536 50.1791 21.2411 50.2165 21.2224 50.2384C21.2037 50.2602 21.1662 50.2727 21.1132 50.2727H19.2318L19.0758 51.1775C19.0509 51.3085 19.0696 51.4084 19.1257 51.477C19.1819 51.5456 19.2849 51.58 19.4346 51.58H21.1288C21.1849 51.58 21.2193 51.5893 21.2318 51.6112C21.2411 51.633 21.2411 51.6736 21.2318 51.7297L21.1631 52.1197ZM22.8885 49.9045C22.7637 49.8265 22.6732 49.7204 22.6139 49.5894C22.5515 49.4584 22.5172 49.3055 22.5047 49.1339L22.4267 48.0169C22.4205 47.9982 22.4236 47.9701 22.4361 47.9389C22.4486 47.9077 22.4798 47.8921 22.5359 47.8921H23.0445C23.0663 47.8921 23.0882 47.8983 23.1162 47.9046C23.1412 47.9139 23.1537 47.9389 23.1537 47.9795L23.2379 49.034C23.2535 49.1651 23.2816 49.2711 23.3253 49.3492C23.3658 49.4303 23.4158 49.4896 23.4719 49.5301C23.5312 49.5738 23.5936 49.5988 23.6623 49.6081C23.7309 49.6206 23.7964 49.6237 23.8588 49.6237H24.4298L24.7137 48.0044C24.7137 47.9607 24.7231 47.9327 24.7418 47.9202C24.7574 47.9108 24.7886 47.9046 24.8291 47.9046H25.3658C25.4032 47.9046 25.4313 47.9108 25.4469 47.9202C25.4625 47.9327 25.4687 47.9607 25.4594 48.0044L25.1786 49.6237H25.7464C25.8088 49.6237 25.8743 49.6206 25.9461 49.6081C26.021 49.5988 26.0928 49.5738 26.1645 49.5301C26.2363 49.4896 26.3049 49.4303 26.3767 49.3492C26.4453 49.2711 26.5108 49.1651 26.5701 49.034L27.0288 47.9795C27.0444 47.9389 27.0662 47.9139 27.0943 47.9046C27.1224 47.8983 27.1473 47.8921 27.1692 47.8921H27.6777C27.7308 47.8921 27.7588 47.9077 27.762 47.9389C27.762 47.9701 27.7557 47.9982 27.7432 48.0169L27.2752 49.1339C27.2035 49.3055 27.113 49.4584 27.0069 49.5894C26.8977 49.7204 26.7698 49.8265 26.6232 49.9045L26.62 49.9357C26.7199 49.9732 26.801 50.0168 26.8634 50.0636C26.9258 50.1104 26.9757 50.1666 27.01 50.2321C27.0444 50.2945 27.0693 50.3663 27.0818 50.4443C27.0943 50.5192 27.1068 50.6034 27.1161 50.697L27.2503 52.1416C27.2534 52.1603 27.2503 52.1884 27.2409 52.2196C27.2284 52.2477 27.1941 52.2633 27.1411 52.2633H26.5857C26.567 52.2633 26.5452 52.2601 26.5202 52.2508C26.4984 52.2445 26.4828 52.2196 26.4765 52.179L26.3486 50.8124C26.333 50.7001 26.3112 50.6096 26.2831 50.5379C26.255 50.463 26.2113 50.4068 26.1583 50.3694C26.1021 50.3288 26.0335 50.3008 25.9555 50.2852C25.8743 50.2664 25.7807 50.2602 25.6715 50.2602H25.0694L24.7355 52.1665C24.7293 52.2102 24.7137 52.2383 24.6919 52.2477C24.6731 52.2601 24.6451 52.2633 24.6076 52.2633H24.0772C24.0367 52.2633 24.0086 52.2601 23.993 52.2477C23.9774 52.2383 23.9743 52.2102 23.9836 52.1665L24.3206 50.2602H23.7153C23.6092 50.2602 23.5125 50.2664 23.4251 50.2852C23.3409 50.3008 23.2629 50.3288 23.1942 50.3694C23.1225 50.4068 23.0601 50.463 23.0008 50.5379C22.9446 50.6096 22.8916 50.7001 22.8417 50.8124L22.2426 52.179C22.2239 52.2196 22.199 52.2445 22.174 52.2508C22.1459 52.2601 22.1241 52.2633 22.1022 52.2633H21.55C21.4938 52.2633 21.4689 52.2477 21.4658 52.2196C21.4658 52.1884 21.472 52.1603 21.4845 52.1416L22.121 50.697C22.1615 50.6096 22.2021 50.5254 22.2426 50.4505C22.2832 50.3725 22.33 50.3008 22.3893 50.2384C22.4454 50.1728 22.5141 50.1167 22.5921 50.0668C22.6701 50.0168 22.7668 49.9732 22.8822 49.9357L22.8885 49.9045ZM30.8134 52.1197C30.8071 52.1665 30.7915 52.2009 30.7697 52.2289C30.7509 52.2508 30.7135 52.2633 30.6573 52.2633H28.8821C28.6637 52.2633 28.4889 52.2321 28.3579 52.1728C28.2268 52.1104 28.1301 52.0261 28.0615 51.9232C27.996 51.8171 27.9554 51.6985 27.946 51.5675C27.9367 51.4333 27.9429 51.296 27.9679 51.1494L28.3392 49.0215C28.3641 48.8749 28.4109 48.7345 28.4733 48.6003C28.5357 48.4662 28.62 48.3445 28.7292 48.2415C28.8353 48.1386 28.9663 48.0543 29.1161 47.9919C29.2689 47.9295 29.4437 47.8983 29.6433 47.8983H31.3812C31.4342 47.8983 31.4686 47.9108 31.4779 47.9327C31.4873 47.9576 31.4904 47.9919 31.481 48.0419L31.4124 48.435C31.403 48.488 31.3906 48.5255 31.3718 48.5442C31.3531 48.5629 31.3188 48.5723 31.2626 48.5723H29.609C29.4499 48.5723 29.3313 48.6066 29.2565 48.6783C29.1785 48.747 29.1285 48.8499 29.1067 48.9841L28.9913 49.6362H30.8726C30.9257 49.6362 30.96 49.6487 30.9694 49.6674C30.9818 49.6892 30.9818 49.7298 30.9725 49.786L30.9132 50.1292C30.9038 50.1791 30.8882 50.2165 30.8726 50.2384C30.8539 50.2602 30.8165 50.2727 30.7634 50.2727H28.8821L28.7229 51.1775C28.7011 51.3085 28.7167 51.4084 28.776 51.477C28.8321 51.5456 28.9351 51.58 29.0849 51.58H30.7759C30.8352 51.58 30.8695 51.5893 30.882 51.6112C30.8914 51.633 30.8914 51.6736 30.882 51.7297L30.8134 52.1197ZM32.1737 52.1353C32.1643 52.1915 32.1487 52.2289 32.1269 52.2445C32.105 52.257 32.0676 52.2633 32.0083 52.2633H31.5341C31.4904 52.2633 31.4561 52.257 31.4342 52.2414C31.4124 52.2227 31.4062 52.1884 31.4155 52.1353L31.9584 49.0215C31.9834 48.8749 32.0239 48.7345 32.0832 48.6003C32.1425 48.4662 32.2236 48.3445 32.3297 48.2415C32.4326 48.1386 32.5637 48.0543 32.7134 47.9919C32.8663 47.9295 33.0473 47.8983 33.2595 47.8983H34.9723C35.0316 47.8983 35.0659 47.9108 35.0753 47.9327C35.0878 47.9576 35.0878 47.9919 35.0784 48.0419L35.0129 48.4287C35.0035 48.4818 34.9879 48.5192 34.9661 48.5411C34.9474 48.5629 34.9099 48.5723 34.8569 48.5723H33.2251C33.066 48.5723 32.9506 48.6066 32.8726 48.6752C32.7977 48.7439 32.7478 48.8437 32.7228 48.9779L32.1737 52.1353ZM38.4418 50.0668C38.317 50.7906 38.0612 51.346 37.6743 51.7422C37.2874 52.1353 36.7726 52.3319 36.1299 52.3319C35.5028 52.3319 35.0659 52.1447 34.8226 51.7641C34.5761 51.3834 34.5168 50.8249 34.6447 50.0917C34.7071 49.7329 34.8101 49.4178 34.9536 49.1401C35.094 48.8593 35.2656 48.6253 35.4684 48.4319C35.6681 48.2384 35.8928 48.0918 36.1424 47.9888C36.3888 47.889 36.654 47.8359 36.9317 47.8359C37.2437 47.8359 37.5089 47.889 37.7304 47.9888C37.952 48.0918 38.1236 48.2384 38.2484 48.4319C38.3732 48.6253 38.4512 48.8593 38.4824 49.137C38.5167 49.4116 38.5042 49.7204 38.4418 50.0668ZM37.6524 50.0917C37.6899 49.8827 37.7086 49.6861 37.7117 49.4958C37.7117 49.3086 37.6868 49.1401 37.6306 48.9966C37.5744 48.8499 37.4808 48.7345 37.3529 48.6503C37.225 48.566 37.0503 48.5223 36.8256 48.5223C36.6322 48.5223 36.4606 48.5629 36.3046 48.644C36.1486 48.7251 36.0144 48.8343 35.8959 48.9779C35.7773 49.1183 35.6806 49.2805 35.6026 49.4646C35.5246 49.6518 35.4653 49.8484 35.431 50.0605C35.3873 50.3008 35.3686 50.5192 35.3686 50.7157C35.3686 50.9092 35.4029 51.0776 35.4653 51.2149C35.5277 51.3553 35.6244 51.4614 35.7555 51.5363C35.8834 51.6112 36.055 51.6486 36.2672 51.6486C36.4793 51.6486 36.6634 51.6049 36.8225 51.5176C36.9816 51.4302 37.1158 51.3148 37.2281 51.1712C37.3404 51.0277 37.4309 50.8624 37.4996 50.6783C37.5651 50.4911 37.6181 50.2945 37.6524 50.0917ZM39.0097 52.2633L38.7757 53.1805C38.7663 53.2273 38.7476 53.2554 38.7289 53.271C38.7101 53.2835 38.6852 53.2929 38.6509 53.2929H38.239C38.2109 53.2929 38.1891 53.2835 38.1766 53.271C38.161 53.2554 38.1579 53.2273 38.161 53.1805L38.2952 51.9045C38.3077 51.8327 38.3326 51.7672 38.3701 51.7079C38.4075 51.6486 38.4761 51.6143 38.5729 51.6049L38.8006 51.5862C38.888 51.502 38.966 51.4177 39.0284 51.3272C39.0908 51.2368 39.1469 51.1432 39.1969 51.0371C39.2468 50.9341 39.2905 50.8187 39.3341 50.6939C39.3778 50.566 39.4215 50.4224 39.4714 50.2664L40.0705 48.2852C40.1141 48.1573 40.1765 48.0606 40.2577 47.9982C40.3388 47.9358 40.4542 47.9046 40.5978 47.9046H42.5228C42.6757 47.9046 42.7787 47.9389 42.8255 48.0075C42.8754 48.0762 42.8847 48.1823 42.8598 48.3227L42.2919 51.5987L42.5446 51.6112C42.6414 51.6205 42.6975 51.6486 42.7131 51.6954C42.7287 51.7422 42.7287 51.7921 42.7131 51.8483L42.4011 53.1805C42.3886 53.2273 42.373 53.2554 42.3574 53.271C42.3387 53.2835 42.3138 53.2929 42.2826 53.2929H41.8645C41.8302 53.2929 41.8083 53.2835 41.799 53.271C41.7896 53.2554 41.7865 53.2273 41.7896 53.1805L41.9144 52.2633H39.0097ZM42.0642 48.5723H40.707L40.3419 49.8047C40.2483 50.1292 40.1703 50.3912 40.1048 50.5909C40.0424 50.7906 39.9862 50.9497 39.9332 51.0745C39.8833 51.1993 39.8365 51.2992 39.7928 51.3709C39.7491 51.4427 39.6961 51.5176 39.6399 51.5924H41.5369L42.0642 48.5723ZM46.6662 52.1353C46.6568 52.1915 46.6412 52.2289 46.6194 52.2445C46.5976 52.257 46.5601 52.2633 46.5008 52.2633H46.0266C45.9767 52.2633 45.9424 52.257 45.9236 52.2414C45.9018 52.2227 45.8987 52.1884 45.908 52.1353L46.2263 50.3039H44.2887L43.9705 52.1353C43.9611 52.1915 43.9424 52.2289 43.9206 52.2445C43.8987 52.257 43.8551 52.2633 43.7989 52.2633H43.3247C43.281 52.2633 43.2467 52.257 43.2248 52.2414C43.203 52.2227 43.1967 52.1884 43.2061 52.1353L43.9175 48.0356C43.9268 47.9826 43.9455 47.9483 43.9736 47.9295C44.0017 47.9139 44.0391 47.9046 44.0859 47.9046H44.5571C44.6163 47.9046 44.6538 47.9139 44.6725 47.9264C44.6912 47.942 44.6943 47.9795 44.685 48.0356L44.4042 49.6487H46.3417L46.6225 48.0356C46.6319 47.9826 46.6475 47.9483 46.6724 47.9295C46.7005 47.9139 46.738 47.9046 46.7879 47.9046H47.259C47.3183 47.9046 47.3557 47.9139 47.3713 47.9264C47.3869 47.942 47.3901 47.9795 47.3807 48.0356L46.6662 52.1353ZM49.9485 51.3116H48.3666L47.9454 52.1603C47.9267 52.1946 47.9017 52.2227 47.8768 52.2414C47.8518 52.257 47.8144 52.2633 47.7645 52.2633H47.1904C47.1467 52.2633 47.1186 52.2508 47.1124 52.2258C47.103 52.1977 47.1092 52.1665 47.128 52.1353L49.1591 48.1916C49.1903 48.1292 49.2184 48.0793 49.2465 48.0419C49.2745 48.0044 49.3057 47.9763 49.3401 47.9545C49.3744 47.9358 49.4149 47.9202 49.4555 47.9077C49.4992 47.8983 49.5522 47.8921 49.6084 47.8921H49.8767C50.0046 47.8921 50.0951 47.9139 50.1419 47.9514C50.1887 47.9919 50.223 48.0731 50.2418 48.1916L50.9063 52.1353C50.9126 52.1665 50.9094 52.1977 50.8938 52.2258C50.8782 52.2508 50.847 52.2633 50.8034 52.2633H50.2293C50.1856 52.2633 50.1482 52.2601 50.1232 52.2477C50.0982 52.2383 50.0826 52.2102 50.0733 52.1665L49.9485 51.3116ZM48.6661 50.6658H49.8611L49.7207 49.6175L49.6115 48.7345H49.5803L49.1747 49.5988L48.6661 50.6658ZM54.0201 50.4536H53.29C53.0903 50.4536 52.9187 50.4911 52.7752 50.5722C52.6317 50.6502 52.51 50.8 52.4133 51.0184L51.9078 52.1665C51.886 52.2165 51.861 52.2445 51.8267 52.2508C51.7893 52.2601 51.755 52.2633 51.7238 52.2633H51.1746C51.1216 52.2633 51.0935 52.2508 51.0904 52.2258C51.0904 52.1977 51.0966 52.1665 51.1122 52.1353L51.6551 50.8998C51.7238 50.7469 51.808 50.6159 51.9078 50.5098C52.0077 50.4006 52.1481 50.3164 52.3353 50.2602V50.254C52.1138 50.1572 51.964 50.0168 51.8829 49.8265C51.8018 49.6393 51.783 49.4178 51.8267 49.1713C51.8579 48.9841 51.9203 48.8125 52.0139 48.6565C52.1044 48.5005 52.2199 48.3663 52.3603 48.254C52.5007 48.1417 52.6598 48.0543 52.8376 47.9919C53.0155 47.9295 53.212 47.8983 53.4242 47.8983H54.8875C55.0216 47.8983 55.1059 47.9295 55.1464 47.9857C55.187 48.045 55.1964 48.1355 55.1745 48.254L54.4944 52.1665C54.485 52.2102 54.4694 52.2383 54.4507 52.2477C54.4288 52.2601 54.3976 52.2633 54.3571 52.2633H53.8267C53.783 52.2633 53.7518 52.2601 53.7331 52.2477C53.7175 52.2383 53.7143 52.2102 53.7206 52.1665L54.0201 50.4536ZM52.5943 49.2025C52.5631 49.3741 52.5943 49.5208 52.6847 49.6393C52.7752 49.7579 52.9499 49.8172 53.2027 49.8172H54.1231L54.3384 48.5847H53.3805C53.237 48.5847 53.1215 48.6066 53.0248 48.6471C52.9312 48.6877 52.8532 48.7376 52.7939 48.8C52.7347 48.8593 52.6879 48.9248 52.6567 48.9997C52.6255 49.0715 52.6036 49.1401 52.5943 49.2025ZM60.5378 52.1353C60.5285 52.1915 60.5129 52.2289 60.491 52.2445C60.4692 52.257 60.4286 52.2633 60.3725 52.2633H59.8982C59.8483 52.2633 59.814 52.257 59.7922 52.2414C59.7734 52.2227 59.7672 52.1884 59.7766 52.1353L60.0979 50.3039H58.1604L57.8421 52.1353C57.8297 52.1915 57.8141 52.2289 57.7922 52.2445C57.7673 52.257 57.7267 52.2633 57.6705 52.2633H57.1963C57.1495 52.2633 57.1152 52.257 57.0933 52.2414C57.0715 52.2227 57.0653 52.1884 57.0746 52.1353L57.7891 48.0356C57.7985 47.9826 57.8172 47.9483 57.8453 47.9295C57.8733 47.9139 57.9108 47.9046 57.9545 47.9046H58.4287C58.4849 47.9046 58.5254 47.9139 58.5441 47.9264C58.5597 47.942 58.566 47.9795 58.5566 48.0356L58.2758 49.6487H60.2102L60.491 48.0356C60.5004 47.9826 60.5191 47.9483 60.5441 47.9295C60.569 47.9139 60.6065 47.9046 60.6564 47.9046H61.1306C61.1899 47.9046 61.2274 47.9139 61.243 47.9264C61.2586 47.942 61.2617 47.9795 61.2523 48.0356L60.5378 52.1353ZM63.817 51.3116H62.2351L61.8139 52.1603C61.7952 52.1946 61.7734 52.2227 61.7484 52.2414C61.7235 52.257 61.6829 52.2633 61.633 52.2633H61.062C61.0152 52.2633 60.9902 52.2508 60.9809 52.2258C60.9746 52.1977 60.9778 52.1665 60.9965 52.1353L63.0276 48.1916C63.0619 48.1292 63.09 48.0793 63.1181 48.0419C63.1462 48.0044 63.1743 47.9763 63.2117 47.9545C63.246 47.9358 63.2835 47.9202 63.3271 47.9077C63.3708 47.8983 63.4207 47.8921 63.48 47.8921H63.7483C63.8763 47.8921 63.9636 47.9139 64.0104 47.9514C64.0572 47.9919 64.0916 48.0731 64.1134 48.1916L64.778 52.1353C64.7842 52.1665 64.7811 52.1977 64.7655 52.2258C64.7499 52.2508 64.7187 52.2633 64.6719 52.2633H64.1009C64.0541 52.2633 64.0198 52.2601 63.9948 52.2477C63.9699 52.2383 63.9512 52.2102 63.9449 52.1665L63.817 51.3116ZM62.5347 50.6658H63.7327L63.5892 49.6175L63.4831 48.7345H63.4519L63.0463 49.5988L62.5347 50.6658ZM68.7903 51.58L69.0274 51.6049C69.0836 51.6143 69.1273 51.6268 69.1554 51.6424C69.1834 51.658 69.2022 51.6798 69.2115 51.7048C69.224 51.7297 69.2271 51.7547 69.2209 51.7828C69.2178 51.8077 69.2115 51.8358 69.2053 51.867L68.9026 53.1868C68.8902 53.2336 68.8746 53.2617 68.8558 53.2773C68.8371 53.2897 68.8122 53.2991 68.7841 53.2991H68.3722C68.3098 53.2991 68.2817 53.2617 68.2911 53.1868L68.4097 52.2633H65.611C65.4893 52.2633 65.3957 52.2321 65.3364 52.1634C65.2803 52.0948 65.2616 51.9856 65.2865 51.8421L65.9573 48.0044C65.9636 47.9607 65.9792 47.9295 65.9979 47.9171C66.0197 47.9046 66.0509 47.8983 66.0915 47.8983H66.6157C66.6625 47.8983 66.6937 47.9046 66.7093 47.9171C66.7249 47.9295 66.7311 47.9607 66.7217 48.0044L66.0946 51.5987H68.0259L68.653 48.0044C68.6593 47.9607 68.6749 47.9295 68.6967 47.9171C68.7154 47.9046 68.7466 47.8983 68.7903 47.8983H69.3051C69.3519 47.8983 69.3831 47.9046 69.3987 47.9171C69.4143 47.9295 69.4206 47.9607 69.4112 48.0044L68.7903 51.58ZM72.993 48.9966L72.2816 49.942L70.6966 51.9981C70.6155 52.101 70.5469 52.1728 70.4907 52.2071C70.4346 52.2445 70.3503 52.2633 70.238 52.2633H70.0196C69.8792 52.2633 69.7887 52.2321 69.7513 52.1697C69.7107 52.1041 69.7045 52.0105 69.7232 51.892L70.4002 48.0044C70.4096 47.9607 70.4221 47.9295 70.4439 47.9171C70.4658 47.9046 70.497 47.8983 70.5375 47.8983H71.0555C71.0991 47.8983 71.1303 47.9046 71.1459 47.9171C71.1584 47.9295 71.1615 47.9607 71.1553 48.0044L70.6062 51.1556H70.6311L71.2988 50.2852L72.9243 48.1729C73.0055 48.0668 73.0741 47.9919 73.1303 47.9545C73.1864 47.9171 73.2707 47.8983 73.3768 47.8983H73.6014C73.7387 47.8983 73.8292 47.9295 73.8697 47.9888C73.9103 48.0512 73.9196 48.1479 73.8978 48.279L73.2207 52.1603C73.2114 52.204 73.1989 52.2321 73.1771 52.2445C73.1552 52.257 73.124 52.2633 73.0835 52.2633H72.5655C72.5219 52.2633 72.4907 52.257 72.4782 52.2445C72.4626 52.2321 72.4595 52.204 72.4657 52.1603L73.0179 48.9966H72.993ZM78.0786 50.0668C77.9538 50.7906 77.698 51.346 77.3111 51.7422C76.9242 52.1353 76.4094 52.3319 75.7667 52.3319C75.1396 52.3319 74.7028 52.1447 74.4594 51.7641C74.2129 51.3834 74.1536 50.8249 74.2816 50.0917C74.344 49.7329 74.4469 49.4178 74.5904 49.1401C74.7308 48.8593 74.9024 48.6253 75.1052 48.4319C75.3049 48.2384 75.5327 48.0918 75.7792 47.9888C76.0288 47.889 76.2909 47.8359 76.5685 47.8359C76.8805 47.8359 77.1457 47.889 77.3673 47.9888C77.5888 48.0918 77.7604 48.2384 77.8852 48.4319C78.01 48.6253 78.088 48.8593 78.1192 49.137C78.1535 49.4116 78.141 49.7204 78.0786 50.0668ZM77.2893 50.0917C77.3267 49.8827 77.3454 49.6861 77.3485 49.4958C77.3485 49.3086 77.3236 49.1401 77.2674 48.9966C77.2113 48.8499 77.1208 48.7345 76.9897 48.6503C76.8618 48.566 76.6871 48.5223 76.4625 48.5223C76.2721 48.5223 76.0974 48.5629 75.9414 48.644C75.7885 48.7251 75.6512 48.8343 75.5327 48.9779C75.4141 49.1183 75.3174 49.2805 75.2394 49.4646C75.1614 49.6518 75.1052 49.8484 75.0678 50.0605C75.0241 50.3008 75.0054 50.5192 75.0054 50.7157C75.0085 50.9092 75.0397 51.0776 75.1021 51.2149C75.1645 51.3553 75.2612 51.4614 75.3923 51.5363C75.5233 51.6112 75.6949 51.6486 75.904 51.6486C76.1161 51.6486 76.3033 51.6049 76.4593 51.5176C76.6185 51.4302 76.7526 51.3148 76.8649 51.1712C76.9773 51.0277 77.0677 50.8624 77.1364 50.6783C77.205 50.4911 77.2549 50.2945 77.2893 50.0917ZM81.8851 52.1353C81.8757 52.1915 81.857 52.2289 81.8383 52.2445C81.8164 52.257 81.7759 52.2633 81.7197 52.2633H81.2455C81.1955 52.2633 81.1612 52.257 81.1394 52.2414C81.1207 52.2227 81.1144 52.1884 81.1238 52.1353L81.4451 50.3039H79.5076L79.1894 52.1353C79.1769 52.1915 79.1613 52.2289 79.1363 52.2445C79.1145 52.257 79.0739 52.2633 79.0146 52.2633H78.5435C78.4967 52.2633 78.4624 52.257 78.4406 52.2414C78.4187 52.2227 78.4125 52.1884 78.4218 52.1353L79.1363 48.0356C79.1457 47.9826 79.1644 47.9483 79.1925 47.9295C79.2206 47.9139 79.2549 47.9046 79.3017 47.9046H79.7759C79.8321 47.9046 79.8726 47.9139 79.8882 47.9264C79.907 47.942 79.9132 47.9795 79.9007 48.0356L79.6199 49.6487H81.5575L81.8383 48.0356C81.8476 47.9826 81.8663 47.9483 81.8913 47.9295C81.9163 47.9139 81.9537 47.9046 82.0036 47.9046H82.4779C82.5371 47.9046 82.5746 47.9139 82.5902 47.9264C82.6058 47.942 82.6089 47.9795 82.5995 48.0356L81.8851 52.1353ZM85.1642 51.3116H83.5824L83.1612 52.1603C83.1424 52.1946 83.1206 52.2227 83.0956 52.2414C83.0676 52.257 83.0301 52.2633 82.9802 52.2633H82.4092C82.3624 52.2633 82.3375 52.2508 82.3281 52.2258C82.3219 52.1977 82.325 52.1665 82.3437 52.1353L84.3748 48.1916C84.406 48.1292 84.4372 48.0793 84.4653 48.0419C84.4903 48.0044 84.5215 47.9763 84.5558 47.9545C84.5932 47.9358 84.6307 47.9202 84.6744 47.9077C84.718 47.8983 84.768 47.8921 84.8272 47.8921H85.0956C85.2235 47.8921 85.3109 47.9139 85.3577 47.9514C85.4044 47.9919 85.4388 48.0731 85.4606 48.1916L86.1252 52.1353C86.1314 52.1665 86.1252 52.1977 86.1127 52.2258C86.0971 52.2508 86.0659 52.2633 86.0191 52.2633H85.4481C85.4013 52.2633 85.367 52.2601 85.342 52.2477C85.3171 52.2383 85.2984 52.2102 85.289 52.1665L85.1642 51.3116ZM83.8819 50.6658H85.08L84.9364 49.6175L84.8304 48.7345H84.7992L84.3936 49.5988L83.8819 50.6658ZM87.8194 48.3227C87.8537 48.1729 87.9098 48.0668 87.9847 48.0013C88.0596 47.9389 88.1626 47.9046 88.2905 47.9046H90.3341C90.5993 47.9046 90.7085 48.045 90.6586 48.3227L89.9909 52.1603C89.9846 52.204 89.969 52.2321 89.9503 52.2445C89.9316 52.257 89.9004 52.2633 89.8536 52.2633H89.3263C89.2826 52.2633 89.2546 52.257 89.239 52.2445C89.2234 52.2321 89.2171 52.204 89.2265 52.1603L89.8505 48.5723H88.4746L88.3435 49.1151C88.2281 49.58 88.122 49.995 88.0253 50.36C87.9254 50.7251 87.81 51.0433 87.6758 51.3116C87.5417 51.5831 87.3763 51.8046 87.1829 51.9793C86.9863 52.1541 86.7367 52.2851 86.4309 52.3693C86.3873 52.3787 86.3529 52.3787 86.328 52.3662C86.303 52.3569 86.2843 52.3288 86.2781 52.2851L86.2094 51.9169C86.2094 51.8795 86.2125 51.8483 86.225 51.8233C86.2344 51.7984 86.2656 51.7734 86.3124 51.7547C86.4996 51.6798 86.6525 51.5831 86.771 51.4676C86.8896 51.3522 86.9925 51.1962 87.0799 50.9996C87.1673 50.8062 87.2515 50.5628 87.3295 50.2696C87.4075 49.9763 87.5011 49.6144 87.6072 49.1838L87.8194 48.3227ZM91.1547 52.2633C91.0236 52.2633 90.9363 52.2383 90.8957 52.1821C90.8551 52.126 90.8458 52.0355 90.8676 51.9107L91.5478 48.0044C91.5571 47.9607 91.5696 47.9295 91.5915 47.9171C91.6133 47.9046 91.6445 47.8983 91.6851 47.8983H92.2155C92.2591 47.8983 92.2904 47.9046 92.306 47.9171C92.3184 47.9295 92.3215 47.9607 92.3153 48.0044L92.0501 49.5239H93.0704C93.3075 49.5239 93.504 49.5488 93.6632 49.5956C93.8192 49.6456 93.9502 49.708 94.05 49.786C94.1499 49.864 94.2248 49.9544 94.2778 50.0512C94.3277 50.1479 94.362 50.2477 94.3808 50.3538C94.3964 50.4568 94.4026 50.5566 94.3964 50.6533C94.3901 50.7469 94.3808 50.8312 94.3683 50.906C94.334 51.1026 94.2653 51.2836 94.1592 51.4489C94.0532 51.6143 93.9221 51.7578 93.7692 51.8795C93.6164 51.9981 93.4448 52.0948 93.2544 52.1634C93.0672 52.2321 92.8707 52.2633 92.6679 52.2633H91.1547ZM93.5883 50.8686C93.6257 50.672 93.5914 50.5036 93.4884 50.3694C93.3855 50.2321 93.2108 50.1666 92.9643 50.1666H91.9378L91.6913 51.58H92.7053C92.8551 51.58 92.983 51.555 93.0891 51.5082C93.1952 51.4614 93.2825 51.4021 93.3543 51.3304C93.426 51.2617 93.4791 51.1837 93.5165 51.0995C93.554 51.0184 93.5789 50.9404 93.5883 50.8686ZM98.1997 52.1353C98.1903 52.1915 98.1747 52.2289 98.1529 52.2445C98.1342 52.257 98.0936 52.2633 98.0343 52.2633H97.5601C97.5102 52.2633 97.4758 52.257 97.4571 52.2414C97.4384 52.2227 97.4322 52.1884 97.4415 52.1353L97.7598 50.3039H95.8222L95.504 52.1353C95.4946 52.1915 95.479 52.2289 95.4541 52.2445C95.4322 52.257 95.3917 52.2633 95.3324 52.2633H94.8581C94.8145 52.2633 94.7801 52.257 94.7583 52.2414C94.7365 52.2227 94.7302 52.1884 94.7396 52.1353L95.4509 48.0356C95.4603 47.9826 95.479 47.9483 95.5071 47.9295C95.5352 47.9139 95.5726 47.9046 95.6194 47.9046H96.0905C96.1498 47.9046 96.1873 47.9139 96.206 47.9264C96.2247 47.942 96.2278 47.9795 96.2185 48.0356L95.9377 49.6487H97.8752L98.156 48.0356C98.1654 47.9826 98.181 47.9483 98.209 47.9295C98.234 47.9139 98.2714 47.9046 98.3214 47.9046H98.7956C98.8518 47.9046 98.8892 47.9139 98.9048 47.9264C98.9204 47.942 98.9235 47.9795 98.9142 48.0356L98.1997 52.1353ZM101.482 51.3116H99.9001L99.4789 52.1603C99.4602 52.1946 99.4383 52.2227 99.4102 52.2414C99.3853 52.257 99.3478 52.2633 99.2979 52.2633H98.7238C98.6802 52.2633 98.6521 52.2508 98.6458 52.2258C98.6365 52.1977 98.6427 52.1665 98.6614 52.1353L100.693 48.1916C100.724 48.1292 100.752 48.0793 100.78 48.0419C100.808 48.0044 100.839 47.9763 100.874 47.9545C100.908 47.9358 100.948 47.9202 100.992 47.9077C101.033 47.8983 101.086 47.8921 101.142 47.8921H101.41C101.538 47.8921 101.629 47.9139 101.675 47.9514C101.722 47.9919 101.757 48.0731 101.775 48.1916L102.44 52.1353C102.446 52.1665 102.443 52.1977 102.427 52.2258C102.412 52.2508 102.384 52.2633 102.337 52.2633H101.763C101.719 52.2633 101.682 52.2601 101.657 52.2477C101.632 52.2383 101.616 52.2102 101.607 52.1665L101.482 51.3116ZM100.2 50.6658H101.395L101.254 49.6175L101.145 48.7345H101.114L100.708 49.5988L100.2 50.6658ZM105.554 50.4536H104.823C104.624 50.4536 104.452 50.4911 104.309 50.5722C104.165 50.6502 104.043 50.8 103.947 51.0184L103.441 52.1665C103.423 52.2165 103.395 52.2445 103.36 52.2508C103.323 52.2601 103.292 52.2633 103.257 52.2633H102.708C102.655 52.2633 102.627 52.2508 102.627 52.2258C102.624 52.1977 102.63 52.1665 102.646 52.1353L103.189 50.8998C103.257 50.7469 103.341 50.6159 103.441 50.5098C103.541 50.4006 103.685 50.3164 103.869 50.2602V50.254C103.65 50.1572 103.497 50.0168 103.416 49.8265C103.335 49.6393 103.317 49.4178 103.36 49.1713C103.391 48.9841 103.454 48.8125 103.547 48.6565C103.638 48.5005 103.753 48.3663 103.894 48.254C104.034 48.1417 104.193 48.0543 104.371 47.9919C104.552 47.9295 104.745 47.8983 104.958 47.8983H106.421C106.555 47.8983 106.639 47.9295 106.68 47.9857C106.72 48.045 106.73 48.1355 106.708 48.254L106.028 52.1665C106.018 52.2102 106.006 52.2383 105.984 52.2477C105.962 52.2601 105.931 52.2633 105.891 52.2633H105.363C105.316 52.2633 105.285 52.2601 105.267 52.2477C105.251 52.2383 105.248 52.2102 105.254 52.1665L105.554 50.4536ZM104.128 49.2025C104.097 49.3741 104.128 49.5208 104.218 49.6393C104.309 49.7579 104.483 49.8172 104.736 49.8172H105.657L105.872 48.5847H104.914C104.77 48.5847 104.655 48.6066 104.558 48.6471C104.465 48.6877 104.387 48.7376 104.327 48.8C104.268 48.8593 104.221 48.9248 104.19 48.9997C104.159 49.0715 104.137 49.1401 104.128 49.2025ZM112.062 52.1603C112.053 52.204 112.037 52.2321 112.018 52.2445C111.996 52.257 111.962 52.2633 111.918 52.2633H111.401C111.36 52.2633 111.332 52.257 111.313 52.2445C111.298 52.2321 111.294 52.204 111.301 52.1603L111.925 48.5723H109.996L109.369 52.1603C109.363 52.204 109.348 52.2321 109.329 52.2445C109.307 52.257 109.273 52.2633 109.229 52.2633H108.705C108.664 52.2633 108.633 52.257 108.617 52.2445C108.602 52.2321 108.596 52.204 108.605 52.1603L109.273 48.3227C109.298 48.1791 109.354 48.0699 109.435 48.0013C109.516 47.9327 109.622 47.8983 109.747 47.8983H112.405C112.67 47.8983 112.78 48.0419 112.73 48.3227L112.062 52.1603ZM113.647 52.1353C113.634 52.1915 113.619 52.2289 113.6 52.2445C113.578 52.257 113.538 52.2633 113.478 52.2633H113.014C112.967 52.2633 112.932 52.257 112.911 52.2414C112.889 52.2227 112.883 52.1884 112.892 52.1353L113.569 48.2478C113.591 48.1323 113.628 48.045 113.691 47.9826C113.75 47.9233 113.847 47.8921 113.981 47.8921H115.463C115.669 47.8921 115.853 47.9264 116.015 47.9888C116.177 48.0543 116.308 48.1448 116.408 48.2634C116.511 48.3819 116.583 48.5223 116.623 48.6877C116.661 48.8499 116.664 49.0309 116.63 49.2243C116.611 49.3367 116.57 49.4708 116.508 49.6268C116.446 49.7828 116.349 49.9326 116.218 50.0792C116.087 50.2259 115.915 50.3476 115.706 50.4505C115.5 50.5504 115.238 50.6034 114.926 50.6034H113.912L113.647 52.1353ZM115.837 49.2743C115.85 49.2056 115.853 49.1276 115.843 49.0465C115.834 48.9623 115.809 48.8874 115.765 48.8187C115.722 48.7501 115.653 48.6939 115.56 48.6471C115.469 48.6003 115.347 48.5785 115.194 48.5785H114.271L114.031 49.9607H114.964C115.226 49.9607 115.428 49.8952 115.572 49.7672C115.716 49.6393 115.803 49.474 115.837 49.2743Z" fill="white"/>
<path d="M119.693 52.1203C119.684 52.1671 119.671 52.2014 119.65 52.2295C119.628 52.2514 119.59 52.2638 119.537 52.2638H117.762C117.544 52.2638 117.366 52.2326 117.238 52.1734C117.107 52.111 117.007 52.0267 116.941 51.9238C116.873 51.8177 116.835 51.6991 116.826 51.5681C116.817 51.4339 116.823 51.2966 116.848 51.15L117.219 49.0221C117.244 48.8755 117.288 48.7351 117.35 48.6009C117.416 48.4668 117.5 48.3451 117.606 48.2421C117.715 48.1392 117.843 48.0549 117.996 47.9925C118.149 47.9301 118.324 47.8989 118.523 47.8989H120.261C120.314 47.8989 120.345 47.9114 120.358 47.9332C120.367 47.9582 120.367 47.9925 120.361 48.0424L120.292 48.4356C120.283 48.4886 120.267 48.5261 120.252 48.5448C120.233 48.5635 120.196 48.5729 120.143 48.5729H118.486C118.33 48.5729 118.211 48.6072 118.136 48.6789C118.058 48.7476 118.009 48.8505 117.987 48.9847L117.871 49.6368H119.753C119.806 49.6368 119.84 49.6493 119.849 49.668C119.859 49.6898 119.862 49.7304 119.849 49.7865L119.79 50.1297C119.784 50.1797 119.768 50.2171 119.749 50.2389C119.731 50.2608 119.696 50.2733 119.64 50.2733H117.762L117.603 51.1781C117.581 51.3091 117.597 51.409 117.653 51.4776C117.709 51.5462 117.812 51.5806 117.962 51.5806H119.656C119.715 51.5806 119.749 51.5899 119.759 51.6118C119.771 51.6336 119.771 51.6742 119.762 51.7303L119.693 52.1203ZM124.358 49.2593H124.32L123.843 50.1048L123.047 51.4807C122.982 51.5899 122.926 51.6617 122.876 51.6991C122.826 51.7366 122.748 51.7553 122.645 51.7553H122.364C122.261 51.7553 122.189 51.7366 122.155 51.6991C122.118 51.6617 122.086 51.5899 122.065 51.4807L121.746 50.1672L121.553 49.331H121.515L121.029 52.1359C121.019 52.1921 121.001 52.2295 120.979 52.2451C120.954 52.2576 120.916 52.2638 120.863 52.2638H120.414C120.367 52.2638 120.333 52.2576 120.311 52.2451C120.289 52.2295 120.283 52.1921 120.292 52.1359L120.966 48.2796C120.988 48.1516 121.029 48.0549 121.091 47.9925C121.15 47.9301 121.25 47.8989 121.394 47.8989H121.646C121.756 47.8989 121.834 47.9176 121.88 47.9551C121.927 47.9925 121.965 48.0674 121.99 48.1797L122.414 50.0049L122.632 50.969H122.657L123.213 49.9987L124.264 48.1797C124.33 48.0674 124.395 47.9925 124.458 47.9551C124.523 47.9176 124.61 47.8989 124.717 47.8989H124.954C125.088 47.8989 125.175 47.9301 125.219 47.9863C125.263 48.0456 125.275 48.1392 125.253 48.2671L124.579 52.1359C124.567 52.1921 124.551 52.2295 124.526 52.2451C124.504 52.2576 124.467 52.2638 124.411 52.2638H123.971C123.924 52.2638 123.89 52.2576 123.871 52.2451C123.849 52.2295 123.846 52.1921 123.855 52.1359L124.358 49.2593ZM128.716 48.9972L128.002 49.9425L126.42 51.9986C126.339 52.1016 126.27 52.1734 126.214 52.2077C126.158 52.2451 126.074 52.2638 125.961 52.2638H125.743C125.603 52.2638 125.512 52.2326 125.475 52.1702C125.434 52.1047 125.425 52.0111 125.447 51.8926L126.124 48.005C126.133 47.9613 126.146 47.9301 126.167 47.9176C126.189 47.9052 126.22 47.8989 126.261 47.8989H126.779C126.823 47.8989 126.854 47.9052 126.869 47.9176C126.882 47.9301 126.885 47.9613 126.879 48.005L126.33 51.1562H126.355L127.022 50.2857L128.648 48.1735C128.729 48.0674 128.798 47.9925 128.854 47.9551C128.91 47.9176 128.991 47.8989 129.1 47.8989H129.325C129.462 47.8989 129.549 47.9301 129.593 47.9894C129.634 48.0518 129.643 48.1485 129.618 48.2796L128.944 52.1609C128.935 52.2046 128.922 52.2326 128.901 52.2451C128.879 52.2576 128.847 52.2638 128.807 52.2638H128.289C128.245 52.2638 128.214 52.2576 128.202 52.2451C128.186 52.2326 128.183 52.2046 128.189 52.1609L128.741 48.9972H128.716ZM132.429 50.4542H131.699C131.5 50.4542 131.328 50.4917 131.184 50.5728C131.038 50.6508 130.919 50.8006 130.822 51.019L130.317 52.1671C130.295 52.217 130.267 52.2451 130.233 52.2514C130.198 52.2607 130.164 52.2638 130.133 52.2638H129.584C129.531 52.2638 129.503 52.2514 129.5 52.2264C129.5 52.1983 129.506 52.1671 129.518 52.1359L130.064 50.9004C130.133 50.7475 130.217 50.6165 130.317 50.5104C130.417 50.4012 130.557 50.3169 130.741 50.2608L130.744 50.2545C130.523 50.1578 130.373 50.0174 130.292 49.8271C130.211 49.6399 130.192 49.4184 130.236 49.1719C130.267 48.9847 130.33 48.8131 130.42 48.6571C130.514 48.5011 130.629 48.3669 130.769 48.2546C130.907 48.1423 131.069 48.0549 131.247 47.9925C131.425 47.9301 131.621 47.8989 131.833 47.8989H133.297C133.428 47.8989 133.515 47.9301 133.556 47.9863C133.593 48.0456 133.606 48.136 133.584 48.2546L132.9 52.1671C132.894 52.2108 132.879 52.2389 132.86 52.2482C132.838 52.2607 132.807 52.2638 132.766 52.2638H132.236C132.192 52.2638 132.161 52.2607 132.142 52.2482C132.127 52.2389 132.12 52.2108 132.13 52.1671L132.429 50.4542ZM131.003 49.2031C130.972 49.3747 131.003 49.5213 131.094 49.6399C131.184 49.7585 131.356 49.8177 131.612 49.8177H132.532L132.748 48.5853H131.79C131.646 48.5853 131.531 48.6072 131.434 48.6477C131.34 48.6883 131.262 48.7382 131.203 48.8006C131.144 48.8599 131.097 48.9254 131.066 49.0003C131.035 49.0721 131.013 49.1407 131.003 49.2031Z" fill="white"/>
<path d="M177.57 23.2942C177.249 23.2942 176.884 23.2568 176.472 23.1819L176.696 21.7342H177.139C177.423 21.7342 177.595 21.5845 177.654 21.2881L178.497 17.2757H183.844L182.933 23.1819H180.983L181.663 18.7796H180.103L179.498 21.6219C179.389 22.1273 179.161 22.5329 178.809 22.8356C178.456 23.1414 178.044 23.2942 177.57 23.2942ZM186.634 18.558C186.334 18.558 186.162 18.7078 186.119 19.0042L186.022 19.6157H187.916L188.013 19.0042C188.056 18.7078 187.932 18.558 187.635 18.558H186.634ZM189.111 23.0696C187.654 23.2194 186.343 23.2942 185.177 23.2942C184.674 23.2942 184.29 23.1414 184.035 22.8356C183.776 22.5329 183.685 22.1273 183.763 21.6219L184.178 18.948C184.262 18.3896 184.487 17.9559 184.852 17.6376C185.217 17.3225 185.679 17.1665 186.234 17.1665H188.462C189.02 17.1665 189.432 17.3225 189.697 17.6376C189.966 17.9559 190.056 18.3896 189.969 18.948L189.651 21.0104H185.81L185.741 21.4534C185.723 21.5657 185.744 21.6593 185.81 21.7342C185.872 21.806 185.96 21.8434 186.069 21.8434C186.805 21.8434 187.891 21.7873 189.326 21.6781L189.111 23.0696ZM193.928 18.7796L193.251 23.1819H191.301L191.978 18.7796H190.141L190.375 17.2757H196L195.766 18.7796H193.928Z" fill="#D22027"/>
<path d="M179.195 5.2198C178.964 6.50837 178.216 7.6191 176.955 8.55823C176.571 8.84527 176.156 9.13232 175.71 9.41936L170.191 12.9387H177.794L177.217 16.1181H164.959L165.742 11.8031L174.986 5.90309L175.192 4.7674C175.358 3.85947 174.986 3.40395 174.078 3.40395H167.723L168.3 0.227762H175.564C177.152 0.227762 178.241 0.586565 178.83 1.30417C179.417 2.0249 179.567 3.17931 179.28 4.7674L179.195 5.2198ZM189.66 4.53964C189.825 3.63171 189.454 3.17931 188.546 3.17931H186.047C185.139 3.17931 184.605 3.63171 184.44 4.53964L183.12 11.8031C182.955 12.711 183.326 13.1665 184.234 13.1665H186.73C187.638 13.1665 188.175 12.711 188.34 11.8031L189.66 4.53964ZM192.427 11.8031C192.137 13.3943 191.569 14.5456 190.721 15.2663C189.872 15.9839 188.652 16.3427 187.064 16.3427H182.749C181.161 16.3427 180.072 15.9839 179.482 15.2663C178.896 14.5456 178.746 13.3943 179.033 11.8031L180.353 4.53964C180.643 2.95155 181.211 1.79713 182.059 1.07953C182.908 0.358803 184.128 0 185.716 0H190.031C191.619 0 192.708 0.358803 193.298 1.07953C193.884 1.79713 194.034 2.95155 193.747 4.53964L192.427 11.8031Z" fill="#D22027"/>
<mask id="mask0" mask-type="alpha" maskUnits="userSpaceOnUse" x="164" y="0" width="30" height="17">
<path d="M179.195 5.2198C178.964 6.50837 178.216 7.6191 176.955 8.55823C176.571 8.84527 176.156 9.13232 175.71 9.41936L170.191 12.9387H177.794L177.217 16.1181H164.959L165.742 11.8031L174.986 5.90309L175.192 4.7674C175.358 3.85947 174.986 3.40395 174.078 3.40395H167.723L168.3 0.227762H175.564C177.152 0.227762 178.241 0.586565 178.83 1.30417C179.417 2.0249 179.567 3.17931 179.28 4.7674L179.195 5.2198ZM189.66 4.53964C189.825 3.63171 189.454 3.17931 188.546 3.17931H186.047C185.139 3.17931 184.605 3.63171 184.44 4.53964L183.12 11.8031C182.955 12.711 183.326 13.1665 184.234 13.1665H186.73C187.638 13.1665 188.175 12.711 188.34 11.8031L189.66 4.53964ZM192.427 11.8031C192.137 13.3943 191.569 14.5456 190.721 15.2663C189.872 15.9839 188.652 16.3427 187.064 16.3427H182.749C181.161 16.3427 180.072 15.9839 179.482 15.2663C178.896 14.5456 178.746 13.3943 179.033 11.8031L180.353 4.53964C180.643 2.95155 181.211 1.79713 182.059 1.07953C182.908 0.358803 184.128 0 185.716 0H190.031C191.619 0 192.708 0.358803 193.298 1.07953C193.884 1.79713 194.034 2.95155 193.747 4.53964L192.427 11.8031Z" fill="#D22027"/>
</mask>
<g mask="url(#mask0)">
<path fill-rule="evenodd" clip-rule="evenodd" d="M157.655 18.5457C162.173 18.5301 167.761 18.5083 171.732 17.5848C176.247 16.3399 179.926 15.6691 184.971 15.3851C189.729 15.1199 194.197 15.0482 199.501 16.0497C205.182 17.123 210.464 18.7828 217.397 20.4677C224.333 22.1525 234.641 19.8312 241.384 23.0573L241.253 22.9512C234.392 19.0636 224.714 21.4692 217.506 19.5909C210.293 17.7158 204.986 14.7487 199.235 13.7159C194.265 12.8236 189.46 13.0139 184.958 13.3883C179.966 13.8002 176.029 14.9764 171.601 16.4709C166.962 18.0996 162.141 18.4396 157.655 18.5457Z" fill="#2669BC"/>
<path fill-rule="evenodd" clip-rule="evenodd" d="M157.732 18.4113C162.253 18.3957 167.613 17.8403 171.732 16.7047C176.247 15.4629 179.925 14.0214 184.97 13.7375C189.728 13.4723 194.489 13.2945 199.793 14.296C205.472 15.3693 210.464 17.9027 217.397 19.5876C224.332 21.2755 234.803 19.678 241.549 22.901L241.415 22.7949C234.554 18.9105 224.713 20.5891 217.506 18.7139C210.292 16.8357 204.985 13.8717 199.235 12.8389C194.265 11.9466 189.46 12.1369 184.958 12.5082C179.966 12.9232 176.028 14.0994 171.601 15.5939C167.56 16.9574 162.222 18.3052 157.732 18.4113Z" fill="white"/>
</g>
</svg>
