<svg width="165" height="45" viewBox="0 0 165 45" fill="none" xmlns="http://www.w3.org/2000/svg">
<path d="M127.604 4.42021C127.407 5.49781 126.782 6.43155 125.726 7.21882C125.404 7.45945 125.056 7.70008 124.682 7.94071L120.055 10.891H126.429L125.945 13.5536H115.669L116.325 9.93897L124.075 4.99039L124.248 4.03834C124.386 3.27722 124.075 2.89797 123.314 2.89797H117.986L118.47 0.232751H124.559C125.89 0.232751 126.803 0.536152 127.298 1.13772C127.789 1.73929 127.915 2.70704 127.674 4.03834L127.604 4.42021ZM136.376 3.85002C136.515 3.08891 136.203 2.70704 135.442 2.70704H133.347C132.586 2.70704 132.136 3.08891 131.998 3.85002L130.894 9.93897C130.755 10.7001 131.067 11.0793 131.828 11.0793H133.92C134.681 11.0793 135.131 10.7001 135.27 9.93897L136.376 3.85002ZM138.696 9.93897C138.453 11.2703 137.977 12.238 137.265 12.8396C136.551 13.4438 135.531 13.7446 134.197 13.7446H130.583C129.251 13.7446 128.339 13.4438 127.844 12.8396C127.352 12.238 127.227 11.2703 127.468 9.93897L128.574 3.85002C128.815 2.51611 129.293 1.55098 130.005 0.94679C130.716 0.345219 131.739 0.0444336 133.07 0.0444336H136.687C138.019 0.0444336 138.931 0.345219 139.423 0.94679C139.917 1.55098 140.043 2.51611 139.8 3.85002L138.696 9.93897Z" fill="#2D3036"/>
<path d="M3.17026 35.9296H0.693359L5.61316 27.0369H8.15284L9.96801 35.9296H7.49111L7.19556 34.3394H4.02031L3.17026 35.9296ZM4.8782 32.689H6.91308L6.41613 29.7047L4.8782 32.689ZM11.778 27.0369H16.8573C17.689 27.0369 18.2645 27.2252 18.5888 27.6018C18.9131 27.9784 19.0073 28.5512 18.8739 29.3228C18.785 29.8302 18.6019 30.2435 18.3272 30.56C18.05 30.8791 17.7414 31.1014 17.3961 31.2269C18.05 31.4152 18.4371 31.8703 18.5548 32.6001C18.594 32.8616 18.5836 33.1676 18.5234 33.5155C18.3769 34.3446 18.0761 34.954 17.6184 35.3438C17.1607 35.7335 16.5173 35.9296 15.6882 35.9296H10.2243L11.778 27.0369ZM16.3028 33.1336C16.3917 32.6262 16.1799 32.3725 15.6725 32.3725H13.1328L12.8216 34.1511H15.3612C15.8713 34.1511 16.1694 33.8948 16.2584 33.3873L16.3028 33.1336ZM16.5408 29.5765C16.6298 29.0691 16.4205 28.8154 15.9131 28.8154H13.7527L13.4414 30.594H15.6019C16.1093 30.594 16.4074 30.3376 16.4964 29.8302L16.5408 29.5765ZM22.9306 35.9296H20.6446L21.887 28.8154H19.2191L19.5304 27.0369H27.152L26.8408 28.8154H24.1729L22.9306 35.9296ZM32.9585 29.4484C33.0474 28.941 32.8356 28.6872 32.3281 28.6872H30.1703C29.6603 28.6872 29.3621 28.941 29.2732 29.4484L28.5644 33.5155C28.4755 34.0229 28.6847 34.2766 29.1921 34.2766H31.3526C31.86 34.2766 32.1581 34.0229 32.2471 33.5155L32.9585 29.4484ZM34.5356 33.5155C34.3787 34.4048 34.0648 35.0508 33.5914 35.451C33.1206 35.8538 32.4406 36.0552 31.5513 36.0552H28.3735C27.4842 36.0552 26.8748 35.8538 26.5426 35.451C26.2104 35.0508 26.1215 34.4048 26.2758 33.5155L26.9872 29.4484C27.1416 28.5591 27.4554 27.9157 27.9288 27.5129C28.4022 27.1101 29.0823 26.9087 29.9716 26.9087H33.1468C34.0361 26.9087 34.6481 27.1101 34.9777 27.5129C35.3125 27.9157 35.3988 28.5591 35.2445 29.4484L34.5356 33.5155ZM43.4938 30.9732L41.1582 34.1511H39.3822L38.1581 30.9732L37.2924 35.9296H35.0064L36.5574 27.0369H38.9716L40.6926 31.737L44.0535 27.0369H46.4677L44.9141 35.9296H42.6281L43.4938 30.9732ZM52.9097 29.4484C52.996 28.941 52.7868 28.6872 52.2794 28.6872H50.1189C49.6115 28.6872 49.3134 28.941 49.2244 29.4484L48.5156 33.5155C48.4267 34.0229 48.6359 34.2766 49.1434 34.2766H51.3038C51.8112 34.2766 52.1094 34.0229 52.1983 33.5155L52.9097 29.4484ZM54.4843 33.5155C54.3299 34.4048 54.0161 35.0508 53.5427 35.451C53.0719 35.8538 52.3892 36.0552 51.4999 36.0552H48.3247C47.4354 36.0552 46.826 35.8538 46.4938 35.451C46.1617 35.0508 46.0727 34.4048 46.227 33.5155L46.9385 29.4484C47.0928 28.5591 47.4066 27.9157 47.8801 27.5129C48.3509 27.1101 49.0335 26.9087 49.9228 26.9087H53.098C53.9873 26.9087 54.5967 27.1101 54.9289 27.5129C55.2611 27.9157 55.35 28.5591 55.1957 29.4484L54.4843 33.5155ZM58.1957 30.4658H61.2454C62.1347 30.4658 62.7467 30.6672 63.0789 31.07C63.4084 31.4728 63.4974 32.1162 63.343 33.0055L63.275 33.3873C63.1207 34.2766 62.8069 34.9227 62.3335 35.3255C61.8627 35.7282 61.1826 35.9296 60.2907 35.9296H54.9551L56.5087 27.0369H63.5601L63.2489 28.8154H58.486L58.1957 30.4658ZM61.0571 33.0055C61.1434 32.4981 60.9341 32.2444 60.4267 32.2444H57.8871L57.5523 34.1511H60.0946C60.602 34.1511 60.9001 33.8948 60.9891 33.3873L61.0571 33.0055ZM71.3465 35.9296H69.0606L70.0126 30.4658L66.0109 35.9296H63.5968L65.1504 27.0369H67.4363L66.4843 32.4981L70.486 27.0369H72.9002L71.3465 35.9296ZM75.4817 34.0857C75.3352 34.6951 75.0554 35.1764 74.6473 35.5295C74.2393 35.8799 73.779 36.0552 73.2716 36.0552C72.7642 36.0552 72.2934 36.0133 71.8592 35.9296L72.1574 34.2139H72.7302C72.8897 34.2139 73.0336 34.1589 73.1591 34.0491C73.2847 33.9392 73.3631 33.8032 73.3997 33.6411L74.9351 27.0369H81.9865L80.4329 35.9296H78.1469L79.3893 28.8154H76.7215L75.4817 34.0857ZM84.8871 30.0839H87.9342C88.8235 30.0839 89.4355 30.2853 89.7677 30.6881C90.0999 31.0909 90.1888 31.737 90.0319 32.6262L89.8985 33.3873C89.7442 34.2766 89.4303 34.9227 88.9569 35.3255C88.4861 35.7282 87.8034 35.9296 86.9142 35.9296H81.5785L83.1321 27.0369H85.4181L84.8871 30.0839ZM87.7459 32.6262C87.8348 32.1162 87.6256 31.8625 87.1156 31.8625H84.5759L84.1757 34.1511H86.718C87.2254 34.1511 87.5236 33.8948 87.6125 33.3873L87.7459 32.6262ZM96.3196 35.9296H94.031L95.5846 27.0369H102.508L102.197 28.8154H97.562L96.3196 35.9296ZM108.314 29.4484C108.403 28.941 108.194 28.6872 107.687 28.6872H105.526C105.019 28.6872 104.718 28.941 104.632 29.4484L103.92 33.5155C103.831 34.0229 104.041 34.2766 104.551 34.2766H106.711C107.218 34.2766 107.517 34.0229 107.606 33.5155L108.314 29.4484ZM109.892 33.5155C109.737 34.4048 109.423 35.0508 108.95 35.451C108.477 35.8538 107.797 36.0552 106.907 36.0552H103.732C102.843 36.0552 102.231 35.8538 101.899 35.451C101.566 35.0508 101.48 34.4048 101.634 33.5155L102.343 29.4484C102.5 28.5591 102.814 27.9157 103.285 27.5129C103.758 27.1101 104.438 26.9087 105.327 26.9087H108.505C109.395 26.9087 110.004 27.1101 110.336 27.5129C110.668 27.9157 110.757 28.5591 110.6 29.4484L109.892 33.5155ZM112.931 27.0369H119.6L118.358 34.1511H119.313L118.714 37.58H116.553L116.715 35.9296H111.759L111.346 37.58H109.185L109.784 34.1511H110.611C110.904 33.8712 111.144 33.5547 111.327 33.2043C111.511 32.8512 111.636 32.5321 111.704 32.2444L112.931 27.0369ZM116.072 34.1511L117.003 28.8154H114.654L113.909 31.9907C113.794 32.5059 113.574 33.029 113.255 33.5521C113.122 33.7718 112.983 33.9732 112.834 34.1511H116.072ZM121.227 35.9296H118.75L123.67 27.0369L126.079 26.995L126.39 27.9157L128.025 35.9296H125.548L125.253 34.3394H122.077L121.227 35.9296ZM122.935 32.689H124.967L124.473 29.7047L122.935 32.689Z" fill="#2D3036"/>
<path d="M126.607 19.7473C120.089 19.7238 112.357 18.9103 106.417 17.2416C99.9125 15.4186 94.6056 13.3 87.3292 12.8842C80.4687 12.4944 73.6003 12.2329 65.9525 13.7054C57.7633 15.28 50.568 19.0019 40.5662 21.4762C30.6351 23.9321 15.7815 21.6409 6.05176 26.2443L6.15638 26.0586C16.0378 20.5163 30.0937 22.9225 40.4119 20.1893C50.8112 17.4352 58.4643 13.0829 66.7607 11.5659C73.9273 10.2556 80.8558 10.5354 87.3475 11.0821C94.5454 11.6889 100.226 13.4151 106.608 15.6095C112.436 17.613 120.136 19.5904 126.607 19.7473Z" fill="#2D3036"/>
<path fill-rule="evenodd" clip-rule="evenodd" d="M126.718 20.0583C120.201 20.0348 112.145 20.0008 106.414 18.6695C99.9093 16.8779 94.6024 15.9101 87.326 15.5021C80.4655 15.1176 74.0208 15.0156 66.3704 16.4594C58.1812 18.0052 50.5648 20.3984 40.563 22.8282C30.6057 25.2475 15.6135 21.9807 5.88379 26.5396L6.03811 26.2624C15.9248 20.8273 30.0879 24.251 40.4087 21.5649C50.8081 18.8578 58.4611 14.5814 66.7575 13.0932C73.9241 11.8064 80.8526 12.081 87.3443 12.6172C94.5423 13.2135 100.223 14.911 106.605 17.0662C113.296 19.4149 120.248 19.9014 126.718 20.0583Z" fill="#2669BC"/>
<path fill-rule="evenodd" clip-rule="evenodd" d="M126.605 19.8648C120.087 19.8413 112.355 19.0409 106.415 17.4036C99.9107 15.6094 94.6038 13.53 87.3274 13.122C80.4668 12.7401 73.5985 12.4838 65.9507 13.9276C57.7615 15.4734 50.5662 19.1299 40.5644 21.5623C30.6306 23.9764 15.7561 21.7637 6.02637 26.2886L6.1493 26.0636C16.0334 20.6181 30.0918 22.9852 40.4101 20.299C50.8094 17.5919 58.4624 13.3156 66.7589 11.8273C73.9254 10.5405 80.8539 10.8151 87.3457 11.3513C94.5436 11.9476 100.225 13.6451 106.606 15.8003C112.434 17.7646 120.134 19.7105 126.605 19.8648Z" fill="white"/>
<path fill-rule="evenodd" clip-rule="evenodd" d="M127.538 20.2756C120.97 20.2573 113.741 20.4979 107.403 19.436C94.1949 17.2207 79.14 16.2058 65.8662 18.1544C57.6377 19.3602 51.6717 21.0916 41.6778 23.2024C31.6839 25.3131 15.5016 23.2782 5.6123 27.0367V27.0341L5.88955 26.5319C15.6612 22.1221 30.9777 24.3741 40.7702 22.3915C51.758 20.1657 58.2184 17.205 66.554 16.041C73.7546 15.0367 81.2114 14.9059 87.7581 15.327C95.0162 15.79 100.817 16.9277 107.273 18.6095C113.171 20.1448 121.017 20.1527 127.538 20.2756Z" fill="#D22027"/>
<path d="M18.4373 43.6923C18.4321 43.7315 18.419 43.7603 18.4007 43.7839C18.385 43.8022 18.3536 43.8126 18.3066 43.8126H16.8209C16.6352 43.8126 16.4888 43.7865 16.3789 43.7368C16.2691 43.6845 16.188 43.6138 16.1304 43.5275C16.0755 43.4386 16.0441 43.3392 16.0337 43.2294C16.0258 43.1169 16.0311 43.0018 16.0546 42.8789L16.3658 41.0951C16.3868 40.9722 16.4234 40.8545 16.4757 40.742C16.528 40.6295 16.5986 40.5275 16.6902 40.4412C16.7791 40.3549 16.889 40.2843 17.0145 40.232C17.1427 40.1797 17.2891 40.1535 17.4565 40.1535H18.9134C18.9578 40.1535 18.9866 40.164 18.9944 40.1823C19.0049 40.2032 19.0049 40.232 18.9971 40.2738L18.9395 40.6034C18.9317 40.6478 18.9212 40.6792 18.9055 40.6949C18.8898 40.7106 18.8611 40.7185 18.8166 40.7185H17.4277C17.2944 40.7185 17.1976 40.7472 17.1322 40.8074C17.0668 40.8649 17.0276 40.9512 17.0067 41.0637L16.9125 41.6104H18.487C18.5341 41.6104 18.5603 41.6208 18.5681 41.6365C18.5786 41.6548 18.5786 41.6888 18.5707 41.7359L18.521 42.0236C18.5132 42.0655 18.5027 42.0968 18.487 42.1152C18.4713 42.1335 18.44 42.1439 18.3955 42.1439H16.8183L16.6876 42.9024C16.6666 43.0123 16.6823 43.096 16.7294 43.1535C16.7765 43.2111 16.8628 43.2398 16.9883 43.2398H18.4086C18.4557 43.2398 18.4844 43.2477 18.4949 43.266C18.5027 43.2843 18.5027 43.3183 18.4949 43.3654L18.4373 43.6923ZM19.8837 41.8353C19.7791 41.7699 19.7033 41.681 19.6536 41.5711C19.6013 41.4613 19.5725 41.3331 19.562 41.1893L19.4966 40.2529C19.4914 40.2372 19.494 40.2137 19.5045 40.1875C19.5149 40.1614 19.5411 40.1483 19.5882 40.1483H20.0145C20.0328 40.1483 20.0511 40.1535 20.0747 40.1587C20.0956 40.1666 20.106 40.1875 20.106 40.2215L20.1767 41.1056C20.1897 41.2154 20.2133 41.3043 20.2499 41.3697C20.2839 41.4377 20.3258 41.4874 20.3728 41.5214C20.4225 41.558 20.4748 41.579 20.5324 41.5868C20.5899 41.5973 20.6448 41.5999 20.6972 41.5999H21.1758L21.4138 40.2424C21.4138 40.2058 21.4217 40.1823 21.4374 40.1718C21.4504 40.164 21.4766 40.1587 21.5106 40.1587H21.9605C21.9918 40.1587 22.0154 40.164 22.0285 40.1718C22.0415 40.1823 22.0468 40.2058 22.0389 40.2424L21.8035 41.5999H22.2795C22.3319 41.5999 22.3868 41.5973 22.4469 41.5868C22.5097 41.579 22.5699 41.558 22.63 41.5214C22.6902 41.4874 22.7477 41.4377 22.8079 41.3697C22.8654 41.3043 22.9204 41.2154 22.97 41.1056L23.3545 40.2215C23.3676 40.1875 23.3859 40.1666 23.4095 40.1587C23.433 40.1535 23.4539 40.1483 23.4722 40.1483H23.8986C23.943 40.1483 23.9666 40.1614 23.9692 40.1875C23.9692 40.2137 23.9639 40.2372 23.9535 40.2529L23.5612 41.1893C23.501 41.3331 23.4251 41.4613 23.3362 41.5711C23.2447 41.681 23.1374 41.7699 23.0145 41.8353L23.0119 41.8614C23.0956 41.8928 23.1636 41.9294 23.2159 41.9687C23.2682 42.0079 23.3101 42.055 23.3388 42.1099C23.3676 42.1622 23.3885 42.2224 23.399 42.2878C23.4095 42.3505 23.4199 42.4212 23.4278 42.4996L23.5402 43.7106C23.5428 43.7263 23.5402 43.7499 23.5324 43.776C23.5219 43.7995 23.4932 43.8126 23.4487 43.8126H22.9831C22.9674 43.8126 22.9491 43.81 22.9282 43.8022C22.9099 43.7969 22.8968 43.776 22.8916 43.742L22.7843 42.5964C22.7713 42.5022 22.753 42.4264 22.7294 42.3662C22.7059 42.3035 22.6693 42.2564 22.6248 42.225C22.5777 42.191 22.5202 42.1675 22.4548 42.1544C22.3868 42.1387 22.3083 42.1335 22.2168 42.1335H21.712L21.4321 43.7315C21.4269 43.7682 21.4138 43.7917 21.3955 43.7995C21.3798 43.81 21.3563 43.8126 21.3249 43.8126H20.8802C20.8462 43.8126 20.8227 43.81 20.8096 43.7995C20.7965 43.7917 20.7939 43.7682 20.8018 43.7315L21.0843 42.1335H20.5768C20.4879 42.1335 20.4068 42.1387 20.3336 42.1544C20.263 42.1675 20.1976 42.191 20.14 42.225C20.0799 42.2564 20.0276 42.3035 19.9779 42.3662C19.9308 42.4264 19.8863 42.5022 19.8445 42.5964L19.3423 43.742C19.3266 43.776 19.3057 43.7969 19.2848 43.8022C19.2612 43.81 19.2429 43.8126 19.2246 43.8126H18.7617C18.7146 43.8126 18.6937 43.7995 18.691 43.776C18.691 43.7499 18.6963 43.7263 18.7067 43.7106L19.2403 42.4996C19.2743 42.4264 19.3083 42.3558 19.3423 42.293C19.3763 42.2276 19.4155 42.1675 19.4652 42.1152C19.5123 42.0602 19.5699 42.0131 19.6353 41.9713C19.7006 41.9294 19.7817 41.8928 19.8785 41.8614L19.8837 41.8353ZM26.5272 43.6923C26.5219 43.7315 26.5089 43.7603 26.4905 43.7839C26.4749 43.8022 26.4435 43.8126 26.3964 43.8126H24.9082C24.7251 43.8126 24.5786 43.7865 24.4687 43.7368C24.3589 43.6845 24.2778 43.6138 24.2203 43.5275C24.1653 43.4386 24.1313 43.3392 24.1235 43.2294C24.1156 43.1169 24.1209 43.0018 24.1418 42.8789L24.4531 41.0951C24.474 40.9722 24.5132 40.8545 24.5655 40.742C24.6178 40.6295 24.6884 40.5275 24.78 40.4412C24.8689 40.3549 24.9788 40.2843 25.1043 40.232C25.2325 40.1797 25.3789 40.1535 25.5463 40.1535H27.0032C27.0477 40.1535 27.0764 40.164 27.0843 40.1823C27.0921 40.2032 27.0947 40.232 27.0869 40.2738L27.0293 40.6034C27.0215 40.6478 27.011 40.6792 26.9953 40.6949C26.9796 40.7106 26.9509 40.7185 26.9038 40.7185H25.5176C25.3842 40.7185 25.2848 40.7472 25.222 40.8074C25.1566 40.8649 25.1148 40.9512 25.0965 41.0637L24.9997 41.6104H26.5769C26.6213 41.6104 26.6501 41.6208 26.6579 41.6365C26.6684 41.6548 26.6684 41.6888 26.6606 41.7359L26.6109 42.0236C26.603 42.0655 26.5899 42.0968 26.5769 42.1152C26.5612 42.1335 26.5298 42.1439 26.4853 42.1439H24.9082L24.7748 42.9024C24.7565 43.0123 24.7695 43.096 24.8192 43.1535C24.8663 43.2111 24.9526 43.2398 25.0782 43.2398H26.4958C26.5455 43.2398 26.5742 43.2477 26.5847 43.266C26.5926 43.2843 26.5926 43.3183 26.5847 43.3654L26.5272 43.6923ZM27.6675 43.7054C27.6597 43.7525 27.6466 43.7839 27.6283 43.7969C27.61 43.8074 27.5786 43.8126 27.5289 43.8126H27.1313C27.0947 43.8126 27.066 43.8074 27.0477 43.7943C27.0293 43.7786 27.0241 43.7499 27.032 43.7054L27.4871 41.0951C27.508 40.9722 27.542 40.8545 27.5917 40.742C27.6414 40.6295 27.7094 40.5275 27.7983 40.4412C27.8846 40.3549 27.9945 40.2843 28.12 40.232C28.2482 40.1797 28.3999 40.1535 28.5777 40.1535H30.0137C30.0634 40.1535 30.0921 40.164 30.1 40.1823C30.1104 40.2032 30.1104 40.232 30.1026 40.2738L30.0477 40.5981C30.0398 40.6426 30.0267 40.674 30.0084 40.6923C29.9927 40.7106 29.9613 40.7185 29.9169 40.7185H28.549C28.4156 40.7185 28.3188 40.7472 28.2534 40.8048C28.1906 40.8623 28.1488 40.946 28.1279 41.0585L27.6675 43.7054ZM32.9221 41.9713C32.8175 42.5781 32.603 43.0437 32.2787 43.3758C31.9544 43.7054 31.5228 43.8702 30.984 43.8702C30.4583 43.8702 30.0921 43.7132 29.8881 43.3941C29.6815 43.075 29.6318 42.6069 29.739 41.9922C29.7913 41.6914 29.8777 41.4273 29.998 41.1945C30.1157 40.9591 30.2595 40.7629 30.4295 40.6008C30.5969 40.4386 30.7852 40.3157 30.9945 40.2294C31.2011 40.1457 31.4234 40.1012 31.6562 40.1012C31.9178 40.1012 32.1401 40.1457 32.3258 40.2294C32.5115 40.3157 32.6553 40.4386 32.76 40.6008C32.8646 40.7629 32.93 40.9591 32.9561 41.1919C32.9849 41.422 32.9744 41.681 32.9221 41.9713ZM32.2604 41.9922C32.2918 41.817 32.3075 41.6522 32.3101 41.4927C32.3101 41.3357 32.2892 41.1945 32.2421 41.0742C32.195 40.9512 32.1165 40.8545 32.0093 40.7838C31.9021 40.7132 31.7556 40.6766 31.5673 40.6766C31.4051 40.6766 31.2613 40.7106 31.1305 40.7786C30.9997 40.8466 30.8872 40.9382 30.7879 41.0585C30.6885 41.1762 30.6074 41.3122 30.542 41.4665C30.4766 41.6234 30.4269 41.7882 30.3981 41.9661C30.3615 42.1675 30.3458 42.3505 30.3458 42.5153C30.3458 42.6775 30.3746 42.8187 30.4269 42.9338C30.4792 43.0515 30.5603 43.1404 30.6702 43.2032C30.7774 43.266 30.9212 43.2974 31.0991 43.2974C31.277 43.2974 31.4313 43.2608 31.5647 43.1875C31.6981 43.1143 31.8105 43.0175 31.9047 42.8972C31.9988 42.7769 32.0747 42.6383 32.1322 42.4839C32.1872 42.327 32.2316 42.1622 32.2604 41.9922ZM33.3981 43.8126L33.202 44.5816C33.1941 44.6208 33.1784 44.6444 33.1628 44.6574C33.1471 44.6679 33.1261 44.6758 33.0974 44.6758H32.7521C32.7286 44.6758 32.7103 44.6679 32.6998 44.6574C32.6867 44.6444 32.6841 44.6208 32.6867 44.5816L32.7992 43.5118C32.8097 43.4517 32.8306 43.3968 32.862 43.3471C32.8934 43.2974 32.9509 43.2686 33.032 43.2608L33.2229 43.2451C33.2961 43.1744 33.3615 43.1038 33.4138 43.028C33.4662 42.9521 33.5132 42.8737 33.5551 42.7847C33.5969 42.6984 33.6335 42.6016 33.6702 42.497C33.7068 42.3898 33.7434 42.2695 33.7852 42.1387L34.2874 40.4778C34.324 40.3706 34.3764 40.2895 34.4444 40.2372C34.5124 40.1849 34.6091 40.1587 34.7295 40.1587H36.3432C36.4714 40.1587 36.5577 40.1875 36.5969 40.2451C36.6388 40.3026 36.6466 40.3915 36.6257 40.5092L36.1497 43.2555L36.3615 43.266C36.4426 43.2738 36.4897 43.2974 36.5028 43.3366C36.5159 43.3758 36.5159 43.4177 36.5028 43.4648L36.2412 44.5816C36.2308 44.6208 36.2177 44.6444 36.2046 44.6574C36.1889 44.6679 36.168 44.6758 36.1418 44.6758H35.7914C35.7626 44.6758 35.7443 44.6679 35.7364 44.6574C35.7286 44.6444 35.726 44.6208 35.7286 44.5816L35.8332 43.8126H33.3981ZM35.9587 40.7185H34.821L34.515 41.7516C34.4365 42.0236 34.3711 42.2433 34.3162 42.4107C34.2639 42.5781 34.2168 42.7115 34.1723 42.8161C34.1305 42.9207 34.0913 43.0044 34.0546 43.0646C34.018 43.1247 33.9736 43.1875 33.9265 43.2503H35.5167L35.9587 40.7185ZM39.8167 43.7054C39.8088 43.7525 39.7957 43.7839 39.7774 43.7969C39.7591 43.8074 39.7277 43.8126 39.678 43.8126H39.2805C39.2386 43.8126 39.2098 43.8074 39.1942 43.7943C39.1758 43.7786 39.1732 43.7499 39.1811 43.7054L39.4479 42.1701H37.8236L37.5568 43.7054C37.549 43.7525 37.5333 43.7839 37.515 43.7969C37.4967 43.8074 37.4601 43.8126 37.413 43.8126H37.0154C36.9788 43.8126 36.95 43.8074 36.9317 43.7943C36.9134 43.7786 36.9082 43.7499 36.916 43.7054L37.5124 40.2686C37.5202 40.2241 37.5359 40.1954 37.5595 40.1797C37.583 40.1666 37.6144 40.1587 37.6536 40.1587H38.0486C38.0982 40.1587 38.1296 40.1666 38.1453 40.177C38.161 40.1901 38.1636 40.2215 38.1558 40.2686L37.9204 41.6208H39.5446L39.78 40.2686C39.7879 40.2241 39.801 40.1954 39.8219 40.1797C39.8454 40.1666 39.8768 40.1587 39.9187 40.1587H40.3136C40.3633 40.1587 40.3947 40.1666 40.4078 40.177C40.4208 40.1901 40.4235 40.2215 40.4156 40.2686L39.8167 43.7054ZM42.5682 43.0149H41.2421L40.889 43.7263C40.8733 43.7551 40.8524 43.7786 40.8315 43.7943C40.8106 43.8074 40.7792 43.8126 40.7373 43.8126H40.2561C40.2194 43.8126 40.1959 43.8022 40.1907 43.7812C40.1828 43.7577 40.1881 43.7315 40.2037 43.7054L41.9065 40.3994C41.9326 40.3471 41.9562 40.3052 41.9797 40.2738C42.0032 40.2424 42.0294 40.2189 42.0582 40.2006C42.0869 40.1849 42.1209 40.1718 42.1549 40.1614C42.1915 40.1535 42.236 40.1483 42.2831 40.1483H42.508C42.6153 40.1483 42.6911 40.1666 42.7303 40.198C42.7696 40.232 42.7983 40.3 42.814 40.3994L43.3711 43.7054C43.3764 43.7315 43.3738 43.7577 43.3607 43.7812C43.3476 43.8022 43.3215 43.8126 43.2848 43.8126H42.8036C42.767 43.8126 42.7356 43.81 42.7147 43.7995C42.6937 43.7917 42.6807 43.7682 42.6728 43.7315L42.5682 43.0149ZM41.4932 42.4735H42.4949L42.3772 41.5947L42.2857 40.8545H42.2596L41.9195 41.579L41.4932 42.4735ZM45.9814 42.2956H45.3694C45.202 42.2956 45.0582 42.327 44.9378 42.395C44.8175 42.4604 44.7155 42.5859 44.6344 42.769L44.2107 43.7315C44.1924 43.7734 44.1715 43.7969 44.1427 43.8022C44.1113 43.81 44.0826 43.8126 44.0564 43.8126H43.5961C43.5516 43.8126 43.5281 43.8022 43.5255 43.7812C43.5255 43.7577 43.5307 43.7315 43.5438 43.7054L43.9989 42.6696C44.0564 42.5415 44.127 42.4316 44.2107 42.3427C44.2944 42.2512 44.4121 42.1805 44.5691 42.1335V42.1282C44.3834 42.0471 44.2578 41.9294 44.1898 41.7699C44.1218 41.613 44.1061 41.4273 44.1427 41.2206C44.1689 41.0637 44.2212 40.9199 44.2997 40.7891C44.3755 40.6583 44.4723 40.5458 44.59 40.4517C44.7077 40.3575 44.8411 40.2843 44.9902 40.232C45.1392 40.1797 45.304 40.1535 45.4819 40.1535H46.7086C46.821 40.1535 46.8916 40.1797 46.9256 40.2267C46.9597 40.2764 46.9675 40.3523 46.9492 40.4517L46.379 43.7315C46.3712 43.7682 46.3581 43.7917 46.3424 43.7995C46.3241 43.81 46.2979 43.8126 46.2639 43.8126H45.8193C45.7827 43.8126 45.7565 43.81 45.7408 43.7995C45.7277 43.7917 45.7251 43.7682 45.7304 43.7315L45.9814 42.2956ZM44.7861 41.2468C44.76 41.3906 44.7861 41.5136 44.862 41.613C44.9378 41.7124 45.0843 41.7621 45.2962 41.7621H46.0678L46.2482 40.7289H45.4453C45.3249 40.7289 45.2282 40.7472 45.1471 40.7812C45.0686 40.8152 45.0032 40.8571 44.9535 40.9094C44.9038 40.9591 44.8646 41.014 44.8385 41.0768C44.8123 41.1369 44.794 41.1945 44.7861 41.2468ZM51.4453 43.7054C51.4374 43.7525 51.4244 43.7839 51.406 43.7969C51.3877 43.8074 51.3537 43.8126 51.3067 43.8126H50.9091C50.8672 43.8126 50.8385 43.8074 50.8202 43.7943C50.8045 43.7786 50.7992 43.7499 50.8071 43.7054L51.0765 42.1701H49.4522L49.1855 43.7054C49.175 43.7525 49.1619 43.7839 49.1436 43.7969C49.1227 43.8074 49.0887 43.8126 49.0416 43.8126H48.6441C48.6048 43.8126 48.576 43.8074 48.5577 43.7943C48.5394 43.7786 48.5342 43.7499 48.542 43.7054L49.141 40.2686C49.1488 40.2241 49.1645 40.1954 49.1881 40.1797C49.2116 40.1666 49.243 40.1587 49.2796 40.1587H49.6772C49.7243 40.1587 49.7583 40.1666 49.774 40.177C49.787 40.1901 49.7923 40.2215 49.7844 40.2686L49.549 41.6208H51.1706L51.406 40.2686C51.4139 40.2241 51.4296 40.1954 51.4505 40.1797C51.4714 40.1666 51.5028 40.1587 51.5447 40.1587H51.9422C51.9919 40.1587 52.0233 40.1666 52.0364 40.177C52.0495 40.1901 52.0521 40.2215 52.0442 40.2686L51.4453 43.7054ZM54.1942 43.0149H52.8681L52.515 43.7263C52.4993 43.7551 52.481 43.7786 52.4601 43.7943C52.4392 43.8074 52.4052 43.8126 52.3633 43.8126H51.8847C51.8455 43.8126 51.8245 43.8022 51.8167 43.7812C51.8115 43.7577 51.8141 43.7315 51.8298 43.7054L53.5325 40.3994C53.5612 40.3471 53.5848 40.3052 53.6083 40.2738C53.6319 40.2424 53.6554 40.2189 53.6868 40.2006C53.7156 40.1849 53.7469 40.1718 53.7836 40.1614C53.8202 40.1535 53.862 40.1483 53.9117 40.1483H54.1367C54.2439 40.1483 54.3171 40.1666 54.3564 40.198C54.3956 40.232 54.4244 40.3 54.4427 40.3994L54.9998 43.7054C55.005 43.7315 55.0024 43.7577 54.9893 43.7812C54.9762 43.8022 54.9501 43.8126 54.9108 43.8126H54.4322C54.393 43.8126 54.3642 43.81 54.3433 43.7995C54.3224 43.7917 54.3067 43.7682 54.3014 43.7315L54.1942 43.0149ZM53.1192 42.4735H54.1236L54.0033 41.5947L53.9143 40.8545H53.8882L53.5482 41.579L53.1192 42.4735ZM58.3633 43.2398L58.5621 43.2608C58.6092 43.2686 58.6458 43.2791 58.6694 43.2921C58.6929 43.3052 58.7086 43.3235 58.7164 43.3444C58.7269 43.3654 58.7295 43.3863 58.7243 43.4098C58.7217 43.4308 58.7164 43.4543 58.7112 43.4805L58.4575 44.5868C58.447 44.6261 58.434 44.6496 58.4183 44.6627C58.4026 44.6731 58.3816 44.681 58.3581 44.681H58.0129C57.9606 44.681 57.937 44.6496 57.9449 44.5868L58.0442 43.8126H55.6981C55.5961 43.8126 55.5177 43.7865 55.468 43.7289C55.4209 43.6714 55.4052 43.5798 55.4261 43.4595L55.9884 40.2424C55.9937 40.2058 56.0068 40.1797 56.0224 40.1692C56.0408 40.1587 56.0669 40.1535 56.1009 40.1535H56.5403C56.5796 40.1535 56.6057 40.1587 56.6188 40.1692C56.6319 40.1797 56.6371 40.2058 56.6292 40.2424L56.1035 43.2555H57.7225L58.2483 40.2424C58.2535 40.2058 58.2666 40.1797 58.2849 40.1692C58.3006 40.1587 58.3267 40.1535 58.3633 40.1535H58.7949C58.8341 40.1535 58.8603 40.1587 58.8734 40.1692C58.8864 40.1797 58.8917 40.2058 58.8838 40.2424L58.3633 43.2398ZM61.8865 41.0742L61.2901 41.8667L59.9614 43.5903C59.8934 43.6766 59.8359 43.7368 59.7888 43.7655C59.7417 43.7969 59.6711 43.8126 59.5769 43.8126H59.3939C59.2762 43.8126 59.2003 43.7865 59.1689 43.7342C59.1349 43.6792 59.1297 43.6008 59.1454 43.5014L59.713 40.2424C59.7208 40.2058 59.7313 40.1797 59.7496 40.1692C59.7679 40.1587 59.794 40.1535 59.828 40.1535H60.2622C60.2988 40.1535 60.325 40.1587 60.3381 40.1692C60.3485 40.1797 60.3511 40.2058 60.3459 40.2424L59.8856 42.8841H59.9065L60.4662 42.1544L61.8289 40.3837C61.8969 40.2947 61.9545 40.232 62.0015 40.2006C62.0486 40.1692 62.1192 40.1535 62.2082 40.1535H62.3965C62.5116 40.1535 62.5874 40.1797 62.6214 40.2294C62.6554 40.2817 62.6633 40.3627 62.645 40.4726L62.0774 43.7263C62.0695 43.7629 62.0591 43.7865 62.0408 43.7969C62.0225 43.8074 61.9963 43.8126 61.9623 43.8126H61.5281C61.4915 43.8126 61.4654 43.8074 61.4549 43.7969C61.4418 43.7865 61.4392 43.7629 61.4444 43.7263L61.9074 41.0742H61.8865ZM66.1498 41.9713C66.0451 42.5781 65.8307 43.0437 65.5063 43.3758C65.182 43.7054 64.7505 43.8702 64.2117 43.8702C63.6859 43.8702 63.3198 43.7132 63.1158 43.3941C62.9091 43.075 62.8594 42.6069 62.9667 41.9922C63.019 41.6914 63.1053 41.4273 63.2256 41.1945C63.3433 40.9591 63.4872 40.7629 63.6572 40.6008C63.8246 40.4386 64.0155 40.3157 64.2221 40.2294C64.4314 40.1457 64.6511 40.1012 64.8838 40.1012C65.1454 40.1012 65.3677 40.1457 65.5534 40.2294C65.7391 40.3157 65.883 40.4386 65.9876 40.6008C66.0922 40.7629 66.1576 40.9591 66.1838 41.1919C66.2125 41.422 66.2021 41.681 66.1498 41.9713ZM65.488 41.9922C65.5194 41.817 65.5351 41.6522 65.5377 41.4927C65.5377 41.3357 65.5168 41.1945 65.4697 41.0742C65.4226 40.9512 65.3468 40.8545 65.2369 40.7838C65.1297 40.7132 64.9832 40.6766 64.7949 40.6766C64.6354 40.6766 64.4889 40.7106 64.3581 40.7786C64.23 40.8466 64.1149 40.9382 64.0155 41.0585C63.9161 41.1762 63.835 41.3122 63.7696 41.4665C63.7042 41.6234 63.6572 41.7882 63.6258 41.9661C63.5892 42.1675 63.5735 42.3505 63.5735 42.5153C63.5761 42.6775 63.6022 42.8187 63.6546 42.9338C63.7069 43.0515 63.7879 43.1404 63.8978 43.2032C64.0076 43.266 64.1515 43.2974 64.3267 43.2974C64.5046 43.2974 64.6615 43.2608 64.7923 43.1875C64.9257 43.1143 65.0382 43.0175 65.1323 42.8972C65.2265 42.7769 65.3023 42.6383 65.3599 42.4839C65.4174 42.327 65.4593 42.1622 65.488 41.9922ZM69.3407 43.7054C69.3329 43.7525 69.3172 43.7839 69.3015 43.7969C69.2832 43.8074 69.2492 43.8126 69.2021 43.8126H68.8045C68.7627 43.8126 68.7339 43.8074 68.7156 43.7943C68.6999 43.7786 68.6947 43.7499 68.7025 43.7054L68.9719 42.1701H67.3477L67.0809 43.7054C67.0704 43.7525 67.0574 43.7839 67.0364 43.7969C67.0181 43.8074 66.9841 43.8126 66.9344 43.8126H66.5395C66.5002 43.8126 66.4715 43.8074 66.4532 43.7943C66.4349 43.7786 66.4296 43.7499 66.4375 43.7054L67.0364 40.2686C67.0443 40.2241 67.06 40.1954 67.0835 40.1797C67.107 40.1666 67.1358 40.1587 67.175 40.1587H67.5726C67.6197 40.1587 67.6537 40.1666 67.6668 40.177C67.6825 40.1901 67.6877 40.2215 67.6772 40.2686L67.4418 41.6208H69.0661L69.3015 40.2686C69.3093 40.2241 69.325 40.1954 69.3459 40.1797C69.3669 40.1666 69.3982 40.1587 69.4401 40.1587H69.8377C69.8873 40.1587 69.9187 40.1666 69.9318 40.177C69.9449 40.1901 69.9475 40.2215 69.9397 40.2686L69.3407 43.7054ZM72.0896 43.0149H70.7635L70.4105 43.7263C70.3948 43.7551 70.3764 43.7786 70.3555 43.7943C70.332 43.8074 70.3006 43.8126 70.2588 43.8126H69.7801C69.7409 43.8126 69.72 43.8022 69.7121 43.7812C69.7069 43.7577 69.7095 43.7315 69.7252 43.7054L71.4279 40.3994C71.454 40.3471 71.4802 40.3052 71.5037 40.2738C71.5247 40.2424 71.5508 40.2189 71.5796 40.2006C71.611 40.1849 71.6424 40.1718 71.679 40.1614C71.7156 40.1535 71.7575 40.1483 71.8071 40.1483H72.0321C72.1393 40.1483 72.2126 40.1666 72.2518 40.198C72.291 40.232 72.3198 40.3 72.3381 40.3994L72.8952 43.7054C72.9004 43.7315 72.8952 43.7577 72.8847 43.7812C72.8717 43.8022 72.8455 43.8126 72.8063 43.8126H72.3276C72.2884 43.8126 72.2596 43.81 72.2387 43.7995C72.2178 43.7917 72.2021 43.7682 72.1942 43.7315L72.0896 43.0149ZM71.0146 42.4735H72.019L71.8987 41.5947L71.8098 40.8545H71.7836L71.4436 41.579L71.0146 42.4735ZM74.3154 40.5092C74.3442 40.3837 74.3913 40.2947 74.4541 40.2398C74.5168 40.1875 74.6031 40.1587 74.7104 40.1587H76.4235C76.6459 40.1587 76.7374 40.2764 76.6956 40.5092L76.1358 43.7263C76.1306 43.7629 76.1175 43.7865 76.1018 43.7969C76.0861 43.8074 76.06 43.8126 76.0208 43.8126H75.5787C75.5421 43.8126 75.5186 43.8074 75.5055 43.7969C75.4924 43.7865 75.4872 43.7629 75.495 43.7263L76.0181 40.7185H74.8647L74.7548 41.1736C74.6581 41.5633 74.5691 41.9111 74.4881 42.2172C74.4044 42.5232 74.3076 42.79 74.1951 43.0149C74.0827 43.2424 73.944 43.4281 73.7819 43.5746C73.6171 43.7211 73.4078 43.8309 73.1515 43.9016C73.1149 43.9094 73.0861 43.9094 73.0652 43.8989C73.0443 43.8911 73.0286 43.8676 73.0234 43.8309L72.9658 43.5223C72.9658 43.4909 72.9684 43.4648 72.9789 43.4438C72.9867 43.4229 73.0129 43.402 73.0521 43.3863C73.2091 43.3235 73.3372 43.2424 73.4366 43.1457C73.536 43.0489 73.6223 42.9181 73.6956 42.7533C73.7688 42.5912 73.8394 42.3872 73.9048 42.1413C73.9702 41.8954 74.0486 41.592 74.1376 41.2311L74.3154 40.5092ZM77.1114 43.8126C77.0016 43.8126 76.9283 43.7917 76.8943 43.7446C76.8603 43.6975 76.8525 43.6217 76.8708 43.5171L77.441 40.2424C77.4488 40.2058 77.4593 40.1797 77.4776 40.1692C77.4959 40.1587 77.5221 40.1535 77.5561 40.1535H78.0007C78.0373 40.1535 78.0635 40.1587 78.0766 40.1692C78.087 40.1797 78.0896 40.2058 78.0844 40.2424L77.8621 41.5162H78.7174C78.9161 41.5162 79.0809 41.5371 79.2143 41.5764C79.3451 41.6182 79.4549 41.6705 79.5386 41.7359C79.6223 41.8013 79.6851 41.8771 79.7296 41.9582C79.7714 42.0393 79.8002 42.123 79.8159 42.2119C79.829 42.2982 79.8342 42.3819 79.829 42.463C79.8237 42.5415 79.8159 42.6121 79.8054 42.6749C79.7766 42.8397 79.7191 42.9914 79.6302 43.13C79.5413 43.2686 79.4314 43.3889 79.3032 43.4909C79.1751 43.5903 79.0312 43.6714 78.8717 43.7289C78.7147 43.7865 78.55 43.8126 78.38 43.8126H77.1114ZM79.1515 42.6435C79.1829 42.4787 79.1542 42.3375 79.0678 42.225C78.9815 42.1099 78.8351 42.055 78.6284 42.055H77.7679L77.5613 43.2398H78.4113C78.5369 43.2398 78.6441 43.2189 78.7331 43.1797C78.822 43.1404 78.8952 43.0907 78.9554 43.0306C79.0155 42.973 79.06 42.9077 79.0914 42.837C79.1228 42.769 79.1437 42.7036 79.1515 42.6435ZM83.0173 43.7054C83.0094 43.7525 82.9964 43.7839 82.9781 43.7969C82.9624 43.8074 82.9284 43.8126 82.8787 43.8126H82.4811C82.4393 43.8126 82.4105 43.8074 82.3948 43.7943C82.3791 43.7786 82.3739 43.7499 82.3817 43.7054L82.6485 42.1701H81.0243L80.7575 43.7054C80.7496 43.7525 80.7365 43.7839 80.7156 43.7969C80.6973 43.8074 80.6633 43.8126 80.6136 43.8126H80.2161C80.1794 43.8126 80.1507 43.8074 80.1324 43.7943C80.1141 43.7786 80.1088 43.7499 80.1167 43.7054L80.713 40.2686C80.7209 40.2241 80.7365 40.1954 80.7601 40.1797C80.7836 40.1666 80.815 40.1587 80.8542 40.1587H81.2492C81.2989 40.1587 81.3303 40.1666 81.346 40.177C81.3617 40.1901 81.3643 40.2215 81.3564 40.2686L81.121 41.6208H82.7453L82.9807 40.2686C82.9885 40.2241 83.0016 40.1954 83.0251 40.1797C83.0461 40.1666 83.0774 40.1587 83.1193 40.1587H83.5169C83.5639 40.1587 83.5953 40.1666 83.6084 40.177C83.6215 40.1901 83.6241 40.2215 83.6162 40.2686L83.0173 43.7054ZM85.7688 43.0149H84.4427L84.0897 43.7263C84.074 43.7551 84.0556 43.7786 84.0321 43.7943C84.0112 43.8074 83.9798 43.8126 83.938 43.8126H83.4567C83.4201 43.8126 83.3965 43.8022 83.3913 43.7812C83.3835 43.7577 83.3887 43.7315 83.4044 43.7054L85.1071 40.3994C85.1332 40.3471 85.1568 40.3052 85.1803 40.2738C85.2039 40.2424 85.23 40.2189 85.2588 40.2006C85.2876 40.1849 85.3216 40.1718 85.3582 40.1614C85.3922 40.1535 85.4366 40.1483 85.4837 40.1483H85.7087C85.8159 40.1483 85.8917 40.1666 85.931 40.198C85.9702 40.232 85.999 40.3 86.0147 40.3994L86.5718 43.7054C86.577 43.7315 86.5744 43.7577 86.5613 43.7812C86.5482 43.8022 86.5247 43.8126 86.4855 43.8126H86.0042C85.9676 43.8126 85.9362 43.81 85.9153 43.7995C85.8944 43.7917 85.8813 43.7682 85.8734 43.7315L85.7688 43.0149ZM84.6938 42.4735H85.6956L85.5779 41.5947L85.4863 40.8545H85.4602L85.1202 41.579L84.6938 42.4735ZM89.1821 42.2956H88.57C88.4027 42.2956 88.2588 42.327 88.1385 42.395C88.0182 42.4604 87.9162 42.5859 87.8351 42.769L87.4114 43.7315C87.3957 43.7734 87.3721 43.7969 87.3434 43.8022C87.312 43.81 87.2858 43.8126 87.2571 43.8126H86.7967C86.7523 43.8126 86.7287 43.8022 86.7287 43.7812C86.7261 43.7577 86.7313 43.7315 86.7444 43.7054L87.1995 42.6696C87.2571 42.5415 87.3277 42.4316 87.4114 42.3427C87.4951 42.2512 87.6154 42.1805 87.7697 42.1335V42.1282C87.5866 42.0471 87.4585 41.9294 87.3904 41.7699C87.3224 41.613 87.3067 41.4273 87.3434 41.2206C87.3695 41.0637 87.4218 40.9199 87.5003 40.7891C87.5761 40.6583 87.6729 40.5458 87.7906 40.4517C87.9083 40.3575 88.0417 40.2843 88.1908 40.232C88.3425 40.1797 88.5047 40.1535 88.6825 40.1535H89.9092C90.0217 40.1535 90.0923 40.1797 90.1263 40.2267C90.1603 40.2764 90.1681 40.3523 90.1498 40.4517L89.5796 43.7315C89.5718 43.7682 89.5613 43.7917 89.543 43.7995C89.5247 43.81 89.4986 43.8126 89.4646 43.8126H89.0225C88.9833 43.8126 88.9571 43.81 88.9415 43.7995C88.9284 43.7917 88.9258 43.7682 88.931 43.7315L89.1821 42.2956ZM87.9868 41.2468C87.9606 41.3906 87.9868 41.5136 88.0626 41.613C88.1385 41.7124 88.285 41.7621 88.4968 41.7621H89.2684L89.4489 40.7289H88.6459C88.5256 40.7289 88.4288 40.7472 88.3477 40.7812C88.2693 40.8152 88.2039 40.8571 88.1542 40.9094C88.1045 40.9591 88.0653 41.014 88.0391 41.0768C88.0129 41.1369 87.9946 41.1945 87.9868 41.2468ZM94.6381 43.7263C94.6302 43.7629 94.6171 43.7865 94.6014 43.7969C94.5831 43.8074 94.5544 43.8126 94.5178 43.8126H94.0836C94.0496 43.8126 94.026 43.8074 94.0103 43.7969C93.9973 43.7865 93.9947 43.7629 93.9999 43.7263L94.523 40.7185H92.9066L92.3809 43.7263C92.3756 43.7629 92.3626 43.7865 92.3469 43.7969C92.3286 43.8074 92.2998 43.8126 92.2632 43.8126H91.8238C91.7898 43.8126 91.7636 43.8074 91.7505 43.7969C91.7374 43.7865 91.7322 43.7629 91.7401 43.7263L92.2998 40.5092C92.3207 40.3889 92.3678 40.2974 92.4358 40.2398C92.5038 40.1823 92.5927 40.1535 92.6973 40.1535H94.9258C95.1481 40.1535 95.2396 40.2738 95.1978 40.5092L94.6381 43.7263ZM95.9668 43.7054C95.9563 43.7525 95.9432 43.7839 95.9275 43.7969C95.9092 43.8074 95.8752 43.8126 95.8255 43.8126H95.4358C95.3966 43.8126 95.3678 43.8074 95.3495 43.7943C95.3312 43.7786 95.326 43.7499 95.3338 43.7054L95.9014 40.4464C95.9197 40.3497 95.9511 40.2764 96.0034 40.2241C96.0531 40.1744 96.1341 40.1483 96.2466 40.1483H97.489C97.6616 40.1483 97.8159 40.177 97.9519 40.2294C98.0879 40.2843 98.1978 40.3601 98.2815 40.4595C98.3678 40.5589 98.428 40.6766 98.462 40.8152C98.4934 40.9512 98.496 41.1029 98.4672 41.2651C98.4515 41.3593 98.4175 41.4717 98.3652 41.6025C98.3129 41.7333 98.2318 41.8588 98.1219 41.9818C98.0121 42.1047 97.8682 42.2067 97.693 42.293C97.5204 42.3767 97.3007 42.4212 97.0391 42.4212H96.1891L95.9668 43.7054ZM97.8029 41.307C97.8133 41.2494 97.8159 41.184 97.8081 41.116C97.8002 41.0454 97.7793 40.9826 97.7427 40.9251C97.7061 40.8675 97.6485 40.8205 97.5701 40.7812C97.4942 40.742 97.3922 40.7237 97.2641 40.7237H96.4899L96.2885 41.8824H97.0705C97.2902 41.8824 97.4602 41.8274 97.5805 41.7202C97.7008 41.613 97.7741 41.4743 97.8029 41.307Z" fill="#2669BC"/>
<path d="M101.034 43.6925C101.026 43.7317 101.016 43.7605 100.997 43.784C100.979 43.8023 100.948 43.8128 100.903 43.8128H99.4151C99.232 43.8128 99.0829 43.7867 98.9757 43.737C98.8658 43.6846 98.7821 43.614 98.7272 43.5277C98.6696 43.4388 98.6383 43.3394 98.6304 43.2295C98.6226 43.1171 98.6278 43.002 98.6487 42.8791L98.96 41.0953C98.9809 40.9723 99.0175 40.8546 99.0698 40.7422C99.1248 40.6297 99.1954 40.5277 99.2843 40.4414C99.3758 40.3551 99.4831 40.2845 99.6112 40.2322C99.7394 40.1798 99.8859 40.1537 100.053 40.1537H101.51C101.555 40.1537 101.581 40.1641 101.591 40.1825C101.599 40.2034 101.599 40.2322 101.594 40.274L101.536 40.6036C101.528 40.648 101.515 40.6794 101.502 40.6951C101.487 40.7108 101.455 40.7186 101.411 40.7186H100.022C99.8911 40.7186 99.7917 40.7474 99.7289 40.8076C99.6635 40.8651 99.6217 40.9514 99.6034 41.0639L99.5066 41.6105H101.084C101.128 41.6105 101.157 41.621 101.165 41.6367C101.173 41.655 101.175 41.689 101.165 41.7361L101.115 42.0238C101.11 42.0656 101.097 42.097 101.081 42.1153C101.065 42.1336 101.037 42.1441 100.99 42.1441H99.4151L99.2817 42.9026C99.2634 43.0125 99.2765 43.0962 99.3235 43.1537C99.3706 43.2112 99.4569 43.24 99.5825 43.24H101.003C101.052 43.24 101.081 43.2479 101.089 43.2662C101.099 43.2845 101.099 43.3185 101.092 43.3656L101.034 43.6925ZM104.944 41.2941H104.913L104.513 42.0029L103.846 43.1563C103.791 43.2479 103.744 43.308 103.702 43.3394C103.66 43.3708 103.595 43.3865 103.508 43.3865H103.273C103.187 43.3865 103.127 43.3708 103.098 43.3394C103.066 43.308 103.04 43.2479 103.022 43.1563L102.755 42.0552L102.593 41.3542H102.562L102.154 43.7056C102.146 43.7526 102.13 43.784 102.112 43.7971C102.091 43.8076 102.059 43.8128 102.015 43.8128H101.638C101.599 43.8128 101.57 43.8076 101.552 43.7971C101.534 43.784 101.528 43.7526 101.536 43.7056L102.101 40.4728C102.12 40.3655 102.154 40.2845 102.206 40.2322C102.256 40.1798 102.339 40.1537 102.46 40.1537H102.671C102.763 40.1537 102.828 40.1694 102.868 40.2008C102.907 40.2322 102.938 40.2949 102.959 40.3891L103.315 41.9192L103.498 42.7274H103.519L103.984 41.9139L104.866 40.3891C104.921 40.2949 104.976 40.2322 105.028 40.2008C105.083 40.1694 105.156 40.1537 105.245 40.1537H105.444C105.556 40.1537 105.63 40.1798 105.666 40.2269C105.703 40.2766 105.713 40.3551 105.695 40.4623L105.13 43.7056C105.12 43.7526 105.106 43.784 105.086 43.7971C105.067 43.8076 105.036 43.8128 104.989 43.8128H104.62C104.581 43.8128 104.552 43.8076 104.536 43.7971C104.518 43.784 104.515 43.7526 104.523 43.7056L104.944 41.2941ZM108.598 41.0744L107.999 41.8669L106.673 43.5905C106.605 43.6768 106.548 43.737 106.501 43.7657C106.453 43.7971 106.383 43.8128 106.289 43.8128H106.106C105.988 43.8128 105.912 43.7867 105.881 43.7343C105.847 43.6794 105.839 43.6009 105.857 43.5016L106.425 40.2426C106.433 40.206 106.443 40.1798 106.461 40.1694C106.48 40.1589 106.506 40.1537 106.54 40.1537H106.974C107.011 40.1537 107.037 40.1589 107.05 40.1694C107.06 40.1798 107.063 40.206 107.058 40.2426L106.597 42.8843H106.618L107.178 42.1546L108.541 40.3839C108.609 40.2949 108.666 40.2322 108.713 40.2008C108.76 40.1694 108.828 40.1537 108.92 40.1537H109.108C109.223 40.1537 109.297 40.1798 109.333 40.2295C109.367 40.2818 109.375 40.3629 109.354 40.4728L108.789 43.7265C108.781 43.7631 108.771 43.7867 108.753 43.7971C108.734 43.8076 108.708 43.8128 108.674 43.8128H108.24C108.203 43.8128 108.177 43.8076 108.167 43.7971C108.154 43.7867 108.151 43.7631 108.156 43.7265L108.619 41.0744H108.598ZM111.711 42.2958H111.099C110.931 42.2958 110.787 42.3272 110.667 42.3952C110.544 42.4606 110.445 42.5861 110.364 42.7692L109.94 43.7317C109.922 43.7736 109.898 43.7971 109.869 43.8023C109.841 43.8102 109.812 43.8128 109.786 43.8128H109.325C109.281 43.8128 109.257 43.8023 109.255 43.7814C109.255 43.7579 109.26 43.7317 109.27 43.7056L109.728 42.6698C109.786 42.5417 109.856 42.4318 109.94 42.3429C110.024 42.2513 110.141 42.1807 110.296 42.1336L110.298 42.1284C110.113 42.0473 109.987 41.9296 109.919 41.7701C109.851 41.6131 109.835 41.4274 109.872 41.2208C109.898 41.0639 109.95 40.92 110.026 40.7893C110.105 40.6585 110.202 40.546 110.319 40.4519C110.434 40.3577 110.57 40.2845 110.719 40.2322C110.868 40.1798 111.033 40.1537 111.211 40.1537H112.438C112.548 40.1537 112.621 40.1798 112.655 40.2269C112.686 40.2766 112.697 40.3525 112.678 40.4519L112.106 43.7317C112.1 43.7683 112.087 43.7919 112.072 43.7997C112.053 43.8102 112.027 43.8128 111.993 43.8128H111.548C111.512 43.8128 111.486 43.8102 111.47 43.7997C111.457 43.7919 111.452 43.7683 111.46 43.7317L111.711 42.2958ZM110.515 41.247C110.489 41.3908 110.515 41.5138 110.591 41.6131C110.667 41.7125 110.811 41.7622 111.025 41.7622H111.797L111.977 40.7291H111.174C111.054 40.7291 110.957 40.7474 110.876 40.7814C110.798 40.8154 110.732 40.8573 110.683 40.9096C110.633 40.9593 110.594 41.0142 110.568 41.077C110.542 41.1371 110.523 41.1947 110.515 41.247Z" fill="#2669BC"/>
<path d="M149.551 19.5275C149.281 19.5275 148.975 19.4961 148.63 19.4334L148.818 18.2198H149.19C149.428 18.2198 149.571 18.0942 149.621 17.8457L150.327 14.4822H154.81L154.047 19.4334H152.412L152.982 15.7429H151.674L151.167 18.1256C151.075 18.5493 150.884 18.8893 150.589 19.143C150.293 19.3994 149.948 19.5275 149.551 19.5275ZM157.149 15.5571C156.898 15.5571 156.754 15.6827 156.717 15.9312L156.636 16.4438H158.224L158.305 15.9312C158.341 15.6827 158.237 15.5571 157.988 15.5571H157.149ZM159.225 19.3392C158.004 19.4647 156.905 19.5275 155.927 19.5275C155.506 19.5275 155.184 19.3994 154.97 19.143C154.753 18.8893 154.677 18.5493 154.742 18.1256L155.09 15.8841C155.161 15.4159 155.349 15.0524 155.655 14.7856C155.961 14.5214 156.348 14.3906 156.814 14.3906H158.681C159.15 14.3906 159.495 14.5214 159.717 14.7856C159.942 15.0524 160.018 15.4159 159.945 15.8841L159.678 17.613H156.458L156.401 17.9844C156.385 18.0785 156.403 18.157 156.458 18.2198C156.51 18.2799 156.584 18.3113 156.675 18.3113C157.293 18.3113 158.203 18.2642 159.406 18.1727L159.225 19.3392ZM163.264 15.7429L162.696 19.4334H161.061L161.629 15.7429H160.088L160.285 14.4822H165L164.804 15.7429H163.264Z" fill="#D22027"/>
<path d="M150.913 4.37577C150.72 5.45599 150.092 6.38711 149.035 7.17439C148.714 7.41502 148.366 7.65564 147.992 7.89627L143.365 10.8466H149.739L149.255 13.5118H138.979L139.635 9.89453L147.385 4.94857L147.557 3.99652C147.696 3.2354 147.385 2.85354 146.624 2.85354H141.296L141.78 0.190933H147.869C149.2 0.190933 150.113 0.491719 150.607 1.09329C151.099 1.69748 151.224 2.66522 150.984 3.99652L150.913 4.37577ZM159.686 3.80559C159.824 3.04447 159.513 2.66522 158.752 2.66522H156.657C155.896 2.66522 155.448 3.04447 155.31 3.80559L154.203 9.89453C154.065 10.6557 154.376 11.0375 155.137 11.0375H157.23C157.991 11.0375 158.441 10.6557 158.579 9.89453L159.686 3.80559ZM162.006 9.89453C161.762 11.2285 161.286 12.1936 160.575 12.7978C159.863 13.3993 158.841 13.7001 157.51 13.7001H153.892C152.561 13.7001 151.648 13.3993 151.154 12.7978C150.662 12.1936 150.537 11.2285 150.777 9.89453L151.884 3.80559C152.127 2.47429 152.603 1.50654 153.314 0.904972C154.026 0.300786 155.048 0 156.38 0H159.997C161.328 0 162.241 0.300786 162.735 0.904972C163.227 1.50654 163.353 2.47429 163.112 3.80559L162.006 9.89453Z" fill="#D22027"/>
<mask id="mask0" mask-type="alpha" maskUnits="userSpaceOnUse" x="138" y="0" width="26" height="14">
<path d="M150.913 4.37577C150.72 5.45599 150.092 6.38711 149.035 7.17439C148.714 7.41502 148.366 7.65564 147.992 7.89627L143.365 10.8466H149.739L149.255 13.5118H138.979L139.635 9.89453L147.385 4.94857L147.557 3.99652C147.696 3.2354 147.385 2.85354 146.624 2.85354H141.296L141.78 0.190933H147.869C149.2 0.190933 150.113 0.491719 150.607 1.09329C151.099 1.69748 151.224 2.66522 150.984 3.99652L150.913 4.37577ZM159.686 3.80559C159.824 3.04447 159.513 2.66522 158.752 2.66522H156.657C155.896 2.66522 155.448 3.04447 155.31 3.80559L154.203 9.89453C154.065 10.6557 154.376 11.0375 155.137 11.0375H157.23C157.991 11.0375 158.441 10.6557 158.579 9.89453L159.686 3.80559ZM162.006 9.89453C161.762 11.2285 161.286 12.1936 160.575 12.7978C159.863 13.3993 158.841 13.7001 157.51 13.7001H153.892C152.561 13.7001 151.648 13.3993 151.154 12.7978C150.662 12.1936 150.537 11.2285 150.777 9.89453L151.884 3.80559C152.127 2.47429 152.603 1.50654 153.314 0.904972C154.026 0.300786 155.048 0 156.38 0H159.997C161.328 0 162.241 0.300786 162.735 0.904972C163.227 1.50654 163.353 2.47429 163.112 3.80559L162.006 9.89453Z" fill="#D22027"/>
</mask>
<g mask="url(#mask0)">
<path fill-rule="evenodd" clip-rule="evenodd" d="M132.855 15.5466C136.643 15.5335 141.327 15.5152 144.657 14.741C148.441 13.6974 151.525 13.1351 155.754 12.8971C159.743 12.6748 163.488 12.6146 167.935 13.4542C172.698 14.3539 177.126 15.7454 182.938 17.1578C188.752 18.5702 197.394 16.6242 203.046 19.3287L202.936 19.2397C197.184 15.9808 189.071 17.9974 183.029 16.4228C176.982 14.8509 172.533 12.3635 167.713 11.4978C163.546 10.7497 159.518 10.9093 155.744 11.2231C151.559 11.5684 148.258 12.5544 144.547 13.8073C140.658 15.1726 136.617 15.4577 132.855 15.5466Z" fill="#2669BC"/>
<path fill-rule="evenodd" clip-rule="evenodd" d="M132.922 15.4343C136.712 15.4212 141.205 14.9556 144.658 14.0036C148.442 12.9626 151.526 11.7542 155.755 11.5162C159.744 11.2939 163.735 11.1448 168.182 11.9844C172.942 12.8841 177.127 15.0079 182.939 16.4203C188.753 17.8353 197.531 16.4962 203.185 19.198L203.073 19.1091C197.321 15.8527 189.072 17.2599 183.03 15.688C176.983 14.1134 172.534 11.6287 167.714 10.7629C163.547 10.0149 159.519 10.1744 155.745 10.4857C151.56 10.8335 148.259 11.8196 144.548 13.0724C141.161 14.2154 136.686 15.3453 132.922 15.4343Z" fill="white"/>
</g>
</svg>
