<svg width="213" height="24" viewBox="0 0 213 24" fill="none" xmlns="http://www.w3.org/2000/svg">
<path d="M97.7784 8.52629L97.7456 8.59653L91.0384 22.9949H100.495L107.216 8.52629H97.7784ZM116.381 18.7542C116.359 18.7846 116.278 18.844 116.169 18.8932C115.992 18.976 115.746 19.0498 115.543 19.1019C115.441 19.1277 115.35 19.1481 115.282 19.1619C115.248 19.1686 115.22 19.1739 115.201 19.1774C115.191 19.1789 115.183 19.18 115.178 19.1812H115.176C114.477 19.1836 113.952 19.1174 113.68 18.9263L113.678 18.9251L113.676 18.9239C113.521 18.8241 113.448 18.7091 113.447 18.5686C113.447 18.4993 113.466 18.4194 113.512 18.3272C113.71 17.9443 114.231 17.5709 115.136 17.3045L115.138 17.3039L115.459 17.1971C116.035 17.0958 116.659 16.9597 117.279 16.8204L116.381 18.7542ZM128.99 9.91538C128.99 9.34435 128.645 8.84005 128.031 8.42005L128.019 8.41185L128.006 8.40687C127.867 8.35243 127.7 8.25029 127.544 8.14785L127.539 8.14433L127.534 8.1417C126.272 7.47613 124.364 7.14803 121.86 7.14745H121.096C119.198 7.14745 117.343 7.31545 115.546 7.6415C114.012 7.91048 112.543 8.34336 111.12 8.83771C110.622 8.99722 109.962 9.27674 109.092 9.70611L109.054 9.72513L107.659 12.6473H117.141L117.851 11.2181L117.853 11.2096C117.865 11.1701 117.908 11.1192 117.992 11.0668C118.075 11.0141 118.193 10.9632 118.327 10.9128L118.33 10.9111C118.575 10.8101 118.815 10.8078 119.153 10.8084C119.316 10.8078 119.446 10.8089 119.544 10.8259C119.642 10.8449 119.706 10.873 119.768 10.9342L119.789 10.9541L119.816 10.9632C119.864 10.9793 119.889 10.9974 119.9 11.0106C119.912 11.0244 119.915 11.0326 119.916 11.0574C119.916 11.0735 119.913 11.0969 119.903 11.1268L119.142 12.7995L115.451 13.5991L110.015 14.7939C108.97 15.0122 107.869 15.4512 106.72 16.0468L106.717 16.0486L106.713 16.0504C105.888 16.5427 105.22 16.9764 104.772 17.4813C104.374 17.8665 104.092 18.2593 103.868 18.6433L103.865 18.6485L103.862 18.6544C103.641 19.1414 103.526 19.6059 103.526 20.0441C103.524 20.8378 103.911 21.5327 104.669 22.0721V22.1212L104.721 22.1578C105.933 22.9987 107.848 23.4334 110.513 23.4339C111.072 23.4339 111.838 23.3201 112.872 23.1571C113.361 23.076 113.773 22.9806 114.1 22.877C114.259 22.8266 114.397 22.7754 114.516 22.7221L114.407 22.9981H123.062L128.8 10.6758C128.925 10.4185 128.99 10.1636 128.99 9.91538ZM151.854 10.5824C151.909 10.3983 151.938 10.2206 151.938 10.0474C151.938 9.72952 151.837 9.43186 151.633 9.16493C151.519 8.94746 151.353 8.77449 151.096 8.61995C150.264 7.98716 148.97 7.69097 147.133 7.69067C145.66 7.69067 144.286 7.79165 143.059 7.94326C141.89 8.07116 140.964 8.17185 140.286 8.24034C139.609 8.30912 139.176 8.3457 139.011 8.34512C138.893 8.34512 138.788 8.3337 138.706 8.31263C138.624 8.29185 138.567 8.26053 138.542 8.23419L138.534 8.22687L138.524 8.22043C138.435 8.15926 138.407 8.08902 138.408 8.05068C138.408 8.03633 138.411 8.02668 138.415 8.01877L138.506 7.84082H132.547L125.468 22.9949H134.815L140.141 11.6144C140.235 11.4104 140.392 11.2541 140.62 11.1432C140.848 11.0328 141.148 10.9717 141.513 10.9717C141.775 10.9714 141.964 11.01 142.071 11.0674C142.124 11.0958 142.157 11.1274 142.178 11.1593C142.198 11.1924 142.21 11.2284 142.21 11.2781C142.21 11.3375 142.192 11.4166 142.148 11.512L136.78 22.9949H146.129L148.506 17.8706L148.507 17.8676C148.525 17.8232 148.539 17.7831 148.555 17.7459L148.56 17.7333L148.572 17.6595L148.576 17.6487L151.851 10.5912L151.854 10.5824ZM84.2098 11.3326L80.5494 19.1013C80.4441 19.3012 80.296 19.4467 80.0768 19.5494C79.857 19.6524 79.5619 19.7078 79.177 19.7078C78.8829 19.7083 78.6675 19.6729 78.5428 19.6164C78.4799 19.5883 78.4412 19.5573 78.419 19.5278C78.397 19.4973 78.3868 19.4683 78.3862 19.4241C78.3859 19.3729 78.4043 19.3003 78.4506 19.2111L78.4521 19.2087L82.1206 11.2667C82.2289 11.116 82.3761 10.9638 82.689 10.8125C82.9618 10.7027 83.2243 10.6518 83.4892 10.6512C83.6525 10.6512 83.7807 10.6655 83.8782 10.6998C83.9759 10.7352 84.0465 10.7855 84.1138 10.878L84.1202 10.8871L84.1281 10.8947C84.2171 10.9837 84.2376 11.0472 84.2399 11.1406C84.2399 11.1935 84.2294 11.2582 84.2098 11.3326ZM96.2134 5.59095H96.2236L96.3735 5.27075L97.9558 1.89286H88.6124L85.8892 7.73633C84.6564 7.4653 83.2149 7.35789 81.4524 7.30579H80.6618C79.0126 7.30579 77.4121 7.6494 75.9774 8.27487H75.9771C74.487 8.90063 73.5475 9.70318 73.0587 10.6436L73.0576 10.6465L68.7533 19.8924C68.6143 20.1804 68.542 20.4635 68.542 20.7357C68.5406 21.2976 68.8546 21.7937 69.4335 22.1812C69.6577 22.3522 69.8448 22.4728 70.1272 22.5919C70.9341 22.9381 72.0762 23.1091 73.4395 23.1096C74.6267 23.1096 75.704 23.0549 76.6553 22.9949L76.6591 22.9943H76.6614C77.6273 22.8834 78.3593 22.7719 78.9212 22.7142C79.002 22.7154 79.2069 22.7649 79.4542 22.9674L79.4879 22.9949H88.1174L88.6226 21.9093L95.5991 6.91242L96.2134 5.59095ZM166.997 5.24499L168.566 1.88437H158.328L157.06 4.55396L157.058 4.55659C156.945 4.82206 156.785 4.99855 156.577 5.11592C156.368 5.23299 156.105 5.28889 155.788 5.28889H155.711L154.415 8.05185H155.412L153.89 11.332L153.888 11.3387C153.846 11.4657 153.803 11.5904 153.75 11.7154L153.74 11.7385L153.726 11.7687L150.509 18.6965L150.507 18.6995C150.322 19.1511 150.226 19.5837 150.226 19.9914C150.225 20.3862 150.317 20.7573 150.505 21.0919C150.654 21.3954 150.898 21.6948 151.234 21.943C152.155 22.6662 153.323 23.009 154.669 23.0084H158.805L158.812 23.0081C159.234 22.9656 160.048 22.9159 161.239 22.7719L161.306 22.7634L162.841 19.4443H162.65C161.995 19.4449 161.512 19.3785 161.21 19.2526C161.059 19.1906 160.955 19.1157 160.89 19.0325C160.826 18.9497 160.795 18.8584 160.794 18.7398C160.794 18.6377 160.82 18.5154 160.876 18.374L165.703 8.05185H168.12L169.463 5.24499H166.997ZM110.272 1.89286H100.867L100.696 2.26399L100.361 2.98019L98.782 6.38032H108.226L110.272 1.89286ZM45.2006 10.9834L45.1968 10.9895L45.1936 10.9963L42.0461 17.7236L41.2397 19.5327C41.1853 19.6208 41.0796 19.7016 40.8914 19.7622C40.6997 19.824 40.4275 19.86 40.0675 19.86C39.7464 19.86 39.5187 19.8181 39.3337 19.7713C39.2881 19.7382 39.2506 19.7066 39.2284 19.6814C39.2155 19.6677 39.2079 19.6557 39.2047 19.6489C39.2038 19.6472 39.2029 19.6454 39.2026 19.6442L39.2032 19.6437L42.3463 12.916L43.2045 11.0981L43.2048 11.0969C43.2341 11.0261 43.3359 10.9398 43.542 10.878C43.746 10.8157 44.0419 10.7785 44.4241 10.7785C44.7077 10.7779 44.9278 10.8054 45.0639 10.8485C45.1318 10.8689 45.1778 10.8941 45.1986 10.9128C45.2199 10.9336 45.2167 10.9351 45.2176 10.9404C45.2179 10.9445 45.2161 10.9588 45.2006 10.9834ZM54.0309 12.474L54.1758 12.1752L54.9397 10.5362L54.9418 10.5312C55.0006 10.367 55.0311 10.204 55.0311 10.0436C55.0313 9.77372 54.9438 9.51352 54.7773 9.27293C54.6113 9.03234 54.3687 8.80815 54.052 8.59361C53.8419 8.43468 53.5401 8.2857 53.2015 8.14316C51.6658 7.48989 49.6412 7.14511 47.0779 7.14452H44.8169C43.9324 7.14452 43.1445 7.19662 42.3139 7.24111L42.3106 7.24169H42.3089C40.6745 7.39389 39.1909 7.68892 37.75 8.13936L37.748 8.13995C36.7078 8.48502 35.8596 8.85439 35.2145 9.26035C34.5706 9.66572 34.1257 10.108 33.9073 10.6064L30.9152 16.9369L30.1803 18.4908L29.3789 20.2829L29.376 20.2949C29.3537 20.3979 29.3426 20.4995 29.3426 20.6007C29.3417 20.9493 29.4796 21.2821 29.7424 21.5807C30.0053 21.8795 30.3913 22.1499 30.9018 22.397C30.9623 22.4294 31.0191 22.4438 31.0651 22.4564C31.1128 22.4695 31.1494 22.4804 31.1827 22.4979L31.186 22.5003L31.1895 22.5014C32.6854 23.1989 34.7529 23.4904 37.2662 23.491H39.5767C40.4108 23.491 41.2962 23.4916 42.0911 23.3938C43.7217 23.2457 45.2074 22.949 46.6427 22.5079L46.6447 22.5073H46.6444C48.6757 21.8435 49.9152 21.0968 50.454 20.1737L50.4567 20.169L53.1306 14.4219L54.0309 12.474ZM16.9764 13.9255L16.9436 13.9963L15.0514 18.129L15.0487 18.1393C15.0361 18.1884 14.9937 18.2478 14.9 18.3131C14.8081 18.3769 14.6712 18.4428 14.4979 18.5075C14.0972 18.6365 13.7545 18.7235 13.3283 18.7235C12.843 18.7258 12.4702 18.628 12.2925 18.4469L12.2831 18.4375L12.272 18.4302C12.2076 18.3872 12.1918 18.35 12.1909 18.3146C12.1912 18.2941 12.1971 18.2683 12.2179 18.2353L12.2223 18.2276L17.567 6.37446C17.6367 6.23632 17.8325 6.06773 18.1743 5.94422L18.177 5.94305L18.1805 5.94188C18.4691 5.81836 18.8613 5.77212 19.2968 5.7727C19.8137 5.7727 20.1464 5.85612 20.3882 6.00919C20.4227 6.04636 20.4479 6.07797 20.462 6.10081C20.4781 6.12715 20.4801 6.13973 20.4801 6.14822C20.4801 6.15729 20.478 6.1728 20.4558 6.20588L20.4499 6.21466L19.0711 9.31332H31.9452L32.7846 7.49574L34.1629 4.40235L34.0906 4.34352C33.6439 3.97883 33.1923 3.66449 32.7436 3.35102L32.7398 3.34839L32.7354 3.34546C31.6502 2.7115 30.5189 2.17296 29.3403 1.80535H29.3391C26.9464 1.08563 24.153 0.725634 21.004 0.725634H19.9752C16.5941 0.725634 13.6137 1.17491 11.0404 2.12086C8.46945 3.02351 6.86641 4.20244 6.21577 5.59943L0.241757 18.7972L0.240881 18.799C0.0825384 19.18 1.59072e-06 19.5471 1.59072e-06 19.8986C-0.000583781 20.3853 0.16039 20.8407 0.481466 21.2502C0.801957 21.66 1.27874 22.0264 1.91475 22.3586C3.6094 23.3242 6.23128 23.767 9.64604 23.7682H10.6816C12.9753 23.7682 15.584 23.5437 18.5083 23.0953L18.5124 23.0947L18.5094 23.0953C21.8364 22.553 24.4875 21.9711 26.4676 21.3872L26.5217 21.3714L27.3606 19.4929L27.3626 19.4865C27.4162 19.3179 27.475 19.1555 27.5447 19.0036L28.2003 17.6162L29.8522 13.9255H16.9764ZM70.8399 12.3959L73.1035 7.53174H72.9124C72.4069 7.53233 71.8994 7.53174 71.4373 7.58414C70.5949 7.64648 69.9089 7.69975 69.2769 7.81389L69.2708 7.81448L69.2652 7.81624C68.8924 7.9216 68.3207 8.08053 67.6768 8.34044L67.5229 7.8695H58.5679L57.0046 11.2284L57.0026 11.2342C56.9505 11.3835 56.8996 11.5263 56.8363 11.6571L56.1292 13.1074L55.1376 15.237L52.4803 20.9853H52.48C52.4595 21.0278 52.4235 21.0769 52.3884 21.141L52.3869 21.1443L51.5264 22.9949H60.9828L65.0356 14.3033C65.3099 13.6939 65.9163 13.2172 66.8755 12.8908C67.8328 12.5651 69.1344 12.3953 70.7623 12.3959H70.8399Z" fill="#124B8D"/>
<path d="M180.64 20.9884C178.795 21.1707 175.823 21.4663 172.826 21.7692C168.884 22.1676 164.89 22.5826 163.415 22.7644L180.199 23.4961C180.162 23.288 180.15 23.0679 180.143 22.8519C180.127 22.2917 180.319 21.5857 180.64 20.9884Z" fill="#124B8D"/>
<path d="M186.181 13.0908C186.163 12.9503 186.159 12.7964 186.223 12.6026C186.394 12.0743 186.725 11.5788 187.113 11.0444C187.115 11.042 187.119 11.0426 187.122 11.0415C187.128 11.0318 187.135 11.021 187.142 11.0128C187.151 10.9976 187.16 10.9826 187.169 10.9677C186.065 11.0564 182.507 11.342 178.905 11.6418C175.438 11.9292 171.918 12.2333 170.562 12.3784L186.11 13.3373L186.196 13.1807C186.191 13.1544 186.187 13.1274 186.182 13.1005C186.182 13.097 186.181 13.0938 186.181 13.0908Z" fill="#124B8D"/>
<path d="M189.298 2.11541C189.4 2.00155 189.516 1.88975 189.643 1.78145C187.93 1.87014 178.516 2.36244 178.317 2.43385L188.714 3.02771C188.739 2.9762 188.765 2.92556 188.79 2.87698C188.928 2.60712 189.072 2.36741 189.298 2.11541Z" fill="#124B8D"/>
<path d="M205.573 12.3269C205.789 12.0559 206.053 11.8027 206.297 11.5557C206.406 11.4807 206.515 11.3961 206.627 11.3031C206.99 11.2624 207.347 11.2396 207.691 11.2252C207.347 11.4813 206.985 11.6821 206.801 11.7673C206.696 11.8147 206.466 11.8639 206.451 11.9297C206.437 11.9798 206.554 11.961 206.676 11.9239C206.885 11.8554 207.477 11.685 208.11 11.2126C208.138 11.212 208.166 11.2115 208.195 11.2109C208.309 11.2088 208.421 11.2077 208.532 11.2077C208.798 11.2077 209.063 11.2138 209.33 11.2281C209.053 11.4207 208.776 11.5621 208.618 11.6323C208.523 11.6757 208.318 11.7146 208.305 11.7769C208.293 11.8249 208.396 11.8112 208.507 11.7799C208.678 11.726 209.138 11.5987 209.653 11.2475C209.824 11.2606 209.996 11.2756 210.171 11.294C210.257 11.3031 210.343 11.3127 210.425 11.3236C210.23 11.4477 210.049 11.5393 209.935 11.5905C209.849 11.63 209.659 11.6648 209.645 11.7237C209.634 11.7696 209.731 11.7588 209.834 11.7295C209.97 11.6877 210.304 11.5958 210.694 11.3625C210.917 11.3991 211.116 11.4427 211.294 11.4913C211.224 11.5317 211.161 11.5647 211.112 11.5893C211.029 11.6318 210.844 11.6719 210.837 11.7295C210.828 11.7714 210.925 11.7588 211.022 11.7283C211.107 11.6976 211.272 11.6443 211.477 11.546C211.561 11.5741 211.64 11.6037 211.713 11.6359C211.771 11.6604 211.823 11.6856 211.868 11.7108C211.803 11.7398 211.745 11.7702 211.743 11.8009C211.743 11.844 211.838 11.8232 211.936 11.7854C211.947 11.7816 211.959 11.7763 211.972 11.7714C212.142 11.8817 212.209 11.988 212.227 12.1006C210.378 11.9022 208.139 11.9789 205.573 12.3269ZM211.943 13.0358C211.935 13.0413 211.928 13.0472 211.92 13.0525C211.851 13.1089 211.756 13.2108 211.711 13.2626C211.551 13.2456 211.392 13.2272 211.229 13.2158C211.269 13.1505 211.314 13.0729 211.335 13.0065C211.342 12.9787 211.349 12.9541 211.328 12.9427C211.294 12.9345 211.263 12.9608 211.241 12.9775C211.166 13.034 211.068 13.1461 211.022 13.1982C210.812 13.1839 210.596 13.1719 210.376 13.161C210.377 13.1599 210.377 13.1599 210.378 13.1552C210.378 13.1534 210.38 13.1523 210.38 13.1505V13.1461C210.374 13.1119 210.433 13.0077 210.455 12.9386C210.461 12.9164 210.455 12.8941 210.436 12.89C210.406 12.8798 210.368 12.8956 210.335 12.9175C210.304 12.9409 210.279 12.9655 210.257 12.9922C210.21 13.0443 210.175 13.1037 210.145 13.1523C209.88 13.1455 209.609 13.142 209.333 13.142C209.334 13.0753 209.323 13.0033 209.355 12.9345C209.359 12.9237 209.367 12.9105 209.371 12.9008C209.369 12.9008 209.366 12.9008 209.362 12.9014C209.362 12.8941 209.363 12.8888 209.367 12.8815C209.376 12.8596 209.374 12.8373 209.349 12.8306C209.31 12.823 209.27 12.847 209.239 12.8648C209.222 12.8798 209.206 12.8918 209.194 12.9055C209.186 12.9128 209.182 12.9175 209.177 12.9231C209.162 12.9386 209.155 12.9494 209.15 12.9585C209.111 13.0179 209.074 13.0838 209.05 13.1449C208.659 13.1505 208.257 13.1637 207.842 13.1862C207.835 13.1101 207.857 12.9933 207.827 12.9243C207.826 12.9128 207.818 12.9008 207.798 12.8941C207.766 12.8877 207.731 12.9044 207.704 12.9202C207.674 12.9415 207.657 12.9585 207.641 12.9746C207.635 12.9807 207.631 12.9837 207.628 12.9889C207.612 13.0059 207.607 13.0162 207.6 13.0249C207.57 13.0718 207.533 13.149 207.504 13.2055C206.887 13.2474 206.243 13.305 205.579 13.3817C205.578 13.3519 205.579 13.305 205.576 13.2594C205.57 13.2061 205.57 13.1558 205.528 13.1347C205.522 13.13 205.513 13.1265 205.504 13.125C205.471 13.1192 205.435 13.1365 205.409 13.1523H205.408C205.407 13.1523 205.405 13.1534 205.405 13.1552C205.38 13.1742 205.357 13.1935 205.336 13.2158C205.335 13.2164 205.334 13.2164 205.333 13.2199C205.315 13.2357 205.309 13.2488 205.305 13.2565C205.275 13.3074 205.246 13.3712 205.231 13.4215C205.17 13.4297 205.107 13.4376 205.047 13.4455C205.079 13.2055 205.175 12.9626 205.295 12.7396C205.297 12.7334 205.301 12.7282 205.303 12.7226C205.909 12.6383 206.499 12.5704 207.066 12.5183C207.031 12.5602 206.985 12.6161 206.959 12.6556C206.953 12.6646 206.945 12.6784 206.938 12.6968C206.936 12.715 206.928 12.7361 206.936 12.7592C206.942 12.7683 206.951 12.7732 206.965 12.7762C206.99 12.7814 207.019 12.7718 207.042 12.7592C207.077 12.7443 207.1 12.7226 207.122 12.7059C207.211 12.6327 207.298 12.5602 207.387 12.4905C207.854 12.4527 208.306 12.4235 208.745 12.4062C208.741 12.4103 208.74 12.4144 208.735 12.4188C208.701 12.4589 208.66 12.5086 208.635 12.5458C208.629 12.5555 208.617 12.5716 208.612 12.5932C208.604 12.6105 208.602 12.6292 208.604 12.6465V12.6483C208.604 12.6483 208.606 12.6503 208.608 12.6503C208.612 12.6603 208.62 12.6699 208.635 12.6746C208.663 12.6796 208.705 12.6646 208.736 12.6389C208.841 12.5751 208.953 12.4685 209.045 12.3983C209.358 12.3886 209.663 12.3857 209.961 12.3886C209.924 12.4343 209.874 12.4961 209.843 12.5423C209.835 12.5555 209.823 12.5733 209.815 12.5967C209.811 12.6105 209.807 12.6243 209.808 12.6363C209.809 12.6406 209.802 12.6723 209.834 12.679C209.836 12.679 209.839 12.679 209.844 12.6819C209.889 12.6819 209.921 12.6573 209.947 12.6333C209.957 12.6243 209.965 12.6172 209.974 12.607H209.976C209.98 12.6052 209.981 12.6046 209.982 12.6023C209.982 12.6014 209.984 12.6014 209.988 12.6003C209.988 12.5979 209.989 12.5962 209.99 12.5962C209.994 12.5915 209.998 12.5871 210 12.5853C210 12.5853 210 12.5842 210.003 12.583C210.073 12.5165 210.151 12.4527 210.229 12.3927C210.475 12.3989 210.717 12.4062 210.951 12.4205C210.911 12.4756 210.863 12.5423 210.842 12.6008C210.837 12.6155 210.834 12.6292 210.833 12.6436C210.834 12.6646 210.843 12.6784 210.862 12.6825C210.885 12.6939 210.934 12.6766 210.967 12.6406C211.025 12.5871 211.116 12.5057 211.181 12.432C211.381 12.4481 211.577 12.463 211.772 12.4829C211.728 12.5578 211.668 12.6515 211.663 12.722C211.664 12.7413 211.672 12.7551 211.688 12.7601C211.713 12.7718 211.758 12.7551 211.793 12.7191C211.827 12.6892 211.859 12.6556 211.888 12.6184C211.919 12.5795 211.95 12.5411 211.977 12.5045C212.043 12.5122 212.109 12.5206 212.174 12.5291C212.129 12.6933 212.06 12.8637 211.943 13.0358ZM210.921 13.8383C210.921 13.8377 210.921 13.8371 210.921 13.8371C210.885 13.7915 210.828 13.761 210.777 13.7994C210.743 13.8257 210.75 13.8664 210.766 13.9074C210.613 13.9727 210.445 14.0362 210.257 14.0962C210.2 13.9293 210.088 13.8389 210.037 13.7976C209.988 13.7584 209.918 13.7359 209.868 13.7777C209.804 13.831 209.921 13.8857 209.944 13.9343C209.97 13.9829 209.998 14.0651 210.01 14.1705C209.829 14.2232 209.654 14.2683 209.481 14.3084C209.463 13.9577 209.218 13.8114 209.128 13.7561C209.068 13.7195 208.988 13.7034 208.935 13.7514C208.867 13.809 209.007 13.855 209.037 13.9018C209.096 13.9817 209.171 14.1527 209.16 14.3763C208.907 14.4272 208.654 14.4667 208.393 14.5039C208.415 14.004 208.077 13.8573 207.958 13.7976C207.886 13.761 207.788 13.7458 207.73 13.7994C207.653 13.867 207.822 13.9127 207.861 13.9607C207.932 14.047 208.017 14.275 208.002 14.5533C207.591 14.6011 207.223 14.6347 206.926 14.6496C206.91 14.1017 206.433 13.9762 206.273 13.9293C206.182 13.9018 206.064 13.9001 206.003 13.9607C205.925 14.0368 206.131 14.0596 206.186 14.1014C206.294 14.1849 206.456 14.378 206.473 14.6581C206.295 14.6564 206.123 14.6558 205.955 14.6546C205.926 14.6546 205.901 14.6529 205.872 14.6529C205.729 14.6066 205.602 14.5443 205.478 14.4541C205.226 14.2689 205.098 14.0493 205.054 13.8172C207.415 13.5497 209.502 13.4953 211.253 13.6601C211.153 13.7207 211.043 13.7801 210.921 13.8383ZM193.973 21.2722C194.879 22.1283 196.505 22.7052 198.561 23.0772C198.468 23.1203 198.379 23.1527 198.247 23.187C198.191 23.2019 198.136 23.2145 198.079 23.2277C198.044 23.158 198 23.1118 197.973 23.0878C197.939 23.0538 197.885 23.0322 197.836 23.062C197.772 23.0963 197.832 23.1855 197.846 23.2221C197.85 23.2353 197.854 23.2517 197.855 23.2713C197.654 23.3055 197.454 23.3225 197.255 23.3254C197.302 23.0538 197.18 22.8803 197.122 22.8287C197.08 22.791 197.018 22.7687 196.961 22.8012C196.888 22.8425 196.982 22.9294 196.994 22.9704C197.015 23.0298 197.015 23.1621 196.97 23.3193C196.753 23.3067 196.535 23.2751 196.319 23.2277C196.435 22.8688 196.262 22.6247 196.192 22.5647C196.149 22.5258 196.078 22.5018 196.015 22.539C195.933 22.5852 196.046 22.6423 196.063 22.6874C196.091 22.7585 196.127 22.9332 196.041 23.1545C196.03 23.151 196.02 23.1489 196.01 23.1454C195.776 23.074 195.56 22.9932 195.357 22.9063C195.532 22.5246 195.341 22.2908 195.278 22.2243C195.237 22.181 195.17 22.1553 195.104 22.1913C195.017 22.2381 195.126 22.3016 195.137 22.3479C195.154 22.421 195.165 22.5882 195.089 22.7825C194.864 22.6698 194.656 22.5457 194.459 22.4067C194.675 21.9999 194.481 21.7991 194.414 21.7271C194.376 21.6861 194.312 21.6598 194.243 21.6975C194.159 21.7438 194.264 21.8043 194.273 21.8488C194.289 21.9238 194.29 22.0634 194.221 22.2343C194.089 22.1386 193.964 22.0461 193.844 21.9536C193.845 21.7546 193.884 21.5242 193.973 21.2722ZM194.422 20.453C194.437 20.4507 194.455 20.4448 194.466 20.4404C194.541 20.4141 194.608 20.3907 194.679 20.369C194.695 20.386 194.712 20.405 194.73 20.4232C194.895 20.609 195.091 20.7794 195.311 20.9377C195.275 20.9599 195.228 20.9892 195.193 21.0161C195.184 21.0229 195.166 21.0378 195.155 21.053C195.143 21.0656 195.137 21.077 195.131 21.0893C195.132 21.0893 195.129 21.0937 195.129 21.0972C195.126 21.12 195.132 21.1435 195.191 21.1268C195.28 21.1127 195.389 21.0656 195.465 21.0434C195.66 21.171 195.872 21.2927 196.103 21.4042C196.063 21.4309 196.012 21.4631 195.976 21.4918C195.967 21.5002 195.948 21.5152 195.937 21.5321C195.93 21.5412 195.927 21.5482 195.923 21.5544C195.921 21.5585 195.921 21.5591 195.921 21.5632C195.92 21.5693 195.911 21.5883 195.933 21.6003C195.951 21.6082 195.976 21.6077 196.009 21.5957C196.012 21.5945 196.019 21.5921 196.027 21.5892C196.03 21.5883 196.032 21.586 196.038 21.5837H196.038L196.046 21.5813L196.058 21.579L196.071 21.5711C196.073 21.5711 196.077 21.5693 196.078 21.5664C196.103 21.5567 196.127 21.5471 196.152 21.538C196.197 21.5219 196.242 21.5093 196.287 21.4938C196.492 21.5892 196.709 21.6797 196.937 21.7654C196.896 21.7973 196.844 21.8398 196.821 21.881C196.818 21.8854 196.814 21.8913 196.812 21.8974C196.81 21.9027 196.809 21.9077 196.809 21.9129C196.814 21.9363 196.831 21.9639 196.906 21.9431C196.912 21.9416 196.917 21.9387 196.926 21.934C196.982 21.9118 197.066 21.8763 197.133 21.8357C197.34 21.9106 197.558 21.9794 197.783 22.0461C197.753 22.0821 197.703 22.133 197.691 22.1763C197.687 22.1889 197.686 22.1965 197.686 22.2056C197.694 22.2308 197.725 22.2507 197.793 22.2331C197.8 22.2308 197.81 22.2279 197.817 22.2255C197.892 22.1913 197.949 22.1439 197.997 22.1079C198.184 22.1605 198.376 22.2109 198.574 22.2583C198.549 22.2961 198.518 22.3411 198.505 22.3821C198.501 22.397 198.492 22.4292 198.539 22.4424C198.564 22.4485 198.592 22.4439 198.619 22.436C198.626 22.4336 198.635 22.4298 198.644 22.4275C198.716 22.3938 198.764 22.3479 198.801 22.313C199.03 22.3663 199.266 22.4161 199.506 22.4629C199.494 22.4869 199.467 22.532 199.457 22.5715C199.454 22.5835 199.453 22.5955 199.456 22.6075C199.388 22.6525 199.318 22.6967 199.246 22.7383C199.181 22.7737 199.108 22.8088 199.032 22.8454C199.018 22.8516 199.002 22.8583 198.988 22.8659C198.947 22.8577 198.907 22.851 198.869 22.8425C198.9 22.8121 198.961 22.7579 198.971 22.7143C198.975 22.7023 198.972 22.6915 198.967 22.6812C198.948 22.6566 198.902 22.6537 198.851 22.6692C198.762 22.6979 198.674 22.755 198.623 22.7927C198.439 22.755 198.259 22.7143 198.082 22.6722C198.115 22.6373 198.166 22.5893 198.181 22.5451C198.182 22.5416 198.182 22.5404 198.182 22.5378C198.188 22.517 198.184 22.5018 198.166 22.4936C198.147 22.4869 198.118 22.4924 198.09 22.5018C198.006 22.5284 197.908 22.5852 197.857 22.6165C197.644 22.5647 197.44 22.5103 197.242 22.4532C197.279 22.4131 197.33 22.3634 197.346 22.3154C197.346 22.3154 197.347 22.3142 197.346 22.3136C197.346 22.3119 197.348 22.3119 197.348 22.3107C197.354 22.289 197.351 22.2747 197.336 22.2697C197.32 22.2615 197.292 22.2674 197.265 22.277C197.183 22.3051 197.087 22.3581 197.032 22.3921C196.792 22.3183 196.56 22.2422 196.34 22.1617C196.343 22.1582 196.344 22.1529 196.346 22.1506L196.349 22.1474V22.1439C196.348 22.1386 196.35 22.133 196.353 22.1272C196.367 22.0912 196.415 22.0432 196.437 21.9987C196.437 21.9975 196.439 21.9946 196.439 21.9922C196.449 21.9548 196.402 21.9478 196.348 21.9586C196.34 21.9592 196.334 21.9639 196.329 21.9644C196.237 21.9975 196.181 22.0467 196.139 22.085C195.892 21.9914 195.66 21.8913 195.445 21.7844C195.456 21.7534 195.465 21.7121 195.482 21.6756C195.492 21.651 195.505 21.627 195.52 21.6118L195.534 21.5986H195.531L195.533 21.5968L195.534 21.5939C195.536 21.5898 195.537 21.5883 195.536 21.5872C195.539 21.5796 195.54 21.574 195.546 21.5711C195.549 21.5658 195.552 21.5597 195.555 21.5567C195.566 21.5196 195.518 21.5178 195.476 21.5254L195.474 21.5272L195.47 21.5278C195.464 21.5292 195.456 21.5316 195.452 21.5333C195.44 21.5374 195.431 21.5412 195.421 21.5471C195.385 21.5608 195.363 21.579 195.356 21.5837C195.319 21.6156 195.277 21.6504 195.241 21.6861C194.965 21.5412 194.718 21.3887 194.498 21.2184C194.499 21.2178 194.501 21.2155 194.501 21.2131C194.529 21.1537 194.583 21.077 194.615 21.0115C194.621 20.9971 194.627 20.981 194.631 20.9678C194.645 20.9395 194.633 20.9216 194.591 20.9275C194.575 20.9307 194.559 20.9342 194.545 20.9412C194.534 20.9438 194.528 20.9479 194.521 20.9509L194.518 20.9532H194.517C194.484 20.9678 194.459 20.9875 194.459 20.9886C194.423 21.0164 194.379 21.053 194.338 21.0887C194.269 21.0188 194.236 20.8909 194.226 20.7439C194.284 20.6491 194.349 20.5514 194.422 20.453ZM195.468 19.563C195.506 19.5521 195.545 19.5395 195.585 19.5246C195.787 19.4611 195.982 19.4005 196.084 19.3686C196.106 19.392 196.144 19.3736 196.18 19.3455C196.222 19.337 196.262 19.3285 196.303 19.3209C196.339 19.3879 196.408 19.4886 196.413 19.491L196.483 19.5662C196.554 19.6405 196.627 19.7081 196.696 19.7687L196.765 19.824C196.271 20.1384 195.787 20.1767 195.617 20.1706C195.553 20.1755 195.474 20.1275 195.408 20.1849C195.353 20.2288 195.386 20.2598 195.441 20.2718C195.551 20.3111 196.013 20.5016 196.984 19.9985C197.035 20.0362 197.083 20.0693 197.124 20.0997L197.221 20.163C197.28 20.2001 197.336 20.2373 197.397 20.2745L197.454 20.3084C197.006 20.6084 196.517 20.6977 196.332 20.7153C196.26 20.7273 196.158 20.6959 196.099 20.7542C196.051 20.801 196.096 20.8227 196.165 20.8256C196.294 20.8461 196.834 20.9444 197.707 20.4507C197.759 20.477 197.812 20.5066 197.872 20.5341L197.989 20.5929C198.044 20.6187 198.103 20.6438 198.166 20.6714L198.173 20.6743C197.79 20.9424 197.344 21.0732 197.161 21.1121C197.083 21.1326 196.954 21.123 196.908 21.1836C196.871 21.228 196.932 21.2406 197.011 21.2333C197.154 21.231 197.714 21.2333 198.441 20.7861C198.5 20.8107 198.561 20.8341 198.62 20.8566L198.756 20.9067C198.799 20.9234 198.845 20.9395 198.891 20.9532L198.902 20.9588C198.572 21.2046 198.179 21.351 198.006 21.4019C197.925 21.4309 197.781 21.4361 197.748 21.4961C197.718 21.5412 197.79 21.5471 197.877 21.5298C198.019 21.5105 198.564 21.454 199.18 21.0516C199.231 21.0662 199.282 21.0823 199.331 21.0972L199.483 21.1405C199.529 21.1543 199.576 21.1686 199.622 21.1812L199.708 21.2046C199.399 21.4517 199.02 21.6118 198.848 21.6694C198.768 21.7031 198.613 21.7192 198.587 21.7768C198.566 21.8225 198.643 21.8219 198.731 21.8014C198.877 21.7745 199.427 21.6861 200.001 21.2813C200.04 21.291 200.076 21.3 200.115 21.3088L200.217 21.3331C200.226 21.3858 200.229 21.4402 200.227 21.4991C200.224 21.5436 200.218 21.5889 200.209 21.6334C200.044 21.7563 199.881 21.8482 199.783 21.898C199.705 21.9422 199.537 21.9843 199.534 22.0405C199.53 22.0821 199.617 22.0645 199.708 22.0282C199.778 22.0054 199.938 21.9536 200.134 21.8614C200.073 21.9922 199.986 22.1228 199.873 22.2469C197.714 21.8763 195.674 20.9834 194.901 19.92C195.074 19.7716 195.259 19.656 195.468 19.563ZM196.865 19.2392C196.932 19.2747 196.992 19.3086 197.04 19.3382L197.074 19.3592L197.109 19.3759C197.109 19.3759 197.126 19.3838 197.152 19.3958C197.117 19.4067 197.091 19.4149 197.085 19.4184C197.063 19.4263 197.04 19.4432 197.022 19.4588C196.976 19.4983 197.068 19.4172 197.02 19.4588C196.962 19.4102 196.876 19.3183 196.805 19.2463C196.826 19.2439 196.845 19.241 196.865 19.2392ZM197.313 19.4708C197.352 19.4904 197.398 19.5114 197.445 19.5337C197.362 19.5966 197.282 19.6584 197.262 19.6753C197.208 19.6194 197.157 19.5908 197.106 19.5313C197.106 19.5313 197.202 19.5035 197.313 19.4708ZM197.649 19.6314C197.759 19.6835 197.872 19.7359 197.97 19.7842C197.95 19.7886 197.934 19.7921 197.922 19.7956C197.91 19.7962 197.894 19.7994 197.877 19.8091C197.858 19.8173 197.817 19.8407 197.803 19.8556C197.766 19.8922 197.74 19.9121 197.702 19.9475C197.623 19.8966 197.552 19.8474 197.475 19.7951C197.508 19.764 197.58 19.6955 197.649 19.6314ZM198.221 19.9063C198.144 19.9824 198.046 20.074 197.995 20.1214C197.933 20.086 197.833 20.026 197.776 19.9882C197.799 19.9654 197.836 19.9247 197.892 19.8966C197.938 19.8881 198.022 19.8703 198.113 19.8533C198.149 19.8709 198.186 19.8887 198.221 19.9063ZM198.438 20.0122C198.542 20.0637 198.647 20.1161 198.751 20.1688C198.715 20.1773 198.678 20.1843 198.642 20.1934C198.627 20.1957 198.616 20.2001 198.605 20.2066C198.584 20.2145 198.563 20.23 198.546 20.2461C198.512 20.2815 198.477 20.3169 198.444 20.3506C198.363 20.3146 198.287 20.2756 198.209 20.2355C198.283 20.1609 198.36 20.0866 198.438 20.0122ZM198.923 20.2581C198.861 20.3289 198.776 20.4226 198.724 20.477C198.672 20.4548 198.571 20.4182 198.518 20.393C198.592 20.3122 198.603 20.2996 198.653 20.2815C198.698 20.2733 198.786 20.2528 198.876 20.2347C198.892 20.242 198.909 20.2505 198.923 20.2581ZM199.122 20.3643C199.202 20.4082 199.283 20.4542 199.363 20.4993C199.346 20.5039 199.329 20.5066 199.312 20.5101C199.304 20.5124 199.292 20.5154 199.282 20.5203C199.259 20.5294 199.237 20.5449 199.221 20.5634C199.196 20.59 199.168 20.6163 199.144 20.6438C199.075 20.6193 199.01 20.5941 198.94 20.5654C198.998 20.4987 199.059 20.4316 199.122 20.3643ZM199.506 20.5833C199.535 20.6011 199.564 20.6187 199.591 20.6365C199.547 20.6834 199.504 20.7308 199.473 20.7621C199.41 20.741 199.297 20.7097 199.231 20.6869C199.25 20.6696 199.297 20.6163 199.314 20.6005C199.358 20.5912 199.416 20.5786 199.477 20.566L199.506 20.5833ZM199.763 20.7495C199.846 20.8075 199.917 20.8634 199.976 20.9187C199.975 20.9193 199.975 20.9198 199.975 20.9198C199.879 20.892 199.785 20.8628 199.685 20.8303C199.711 20.8039 199.737 20.7764 199.763 20.7495ZM202.248 5.7678C202.415 5.58078 202.892 5.06419 203.011 4.40564C203.192 4.24554 203.379 4.09627 203.57 3.96427L203.592 3.94876L203.611 3.93208C203.712 3.85042 203.853 3.743 204.016 3.62622C203.977 3.959 203.826 4.30086 203.73 4.47706C203.681 4.56545 203.503 4.74692 203.566 4.77472C203.616 4.7955 203.716 4.70389 203.796 4.60438C203.93 4.43228 204.308 3.95608 204.386 3.37539C204.59 3.2428 204.806 3.11402 205.011 3.00953C204.983 3.28787 204.883 3.55949 204.813 3.71081C204.773 3.79627 204.617 3.9751 204.681 3.99734C204.733 4.01403 204.821 3.92242 204.89 3.82583C204.99 3.683 205.239 3.31071 205.325 2.86202C205.517 2.77568 205.712 2.68992 205.912 2.61324C205.886 2.79119 205.84 2.95246 205.802 3.05343C205.769 3.13861 205.636 3.3148 205.701 3.3309C205.75 3.34349 205.829 3.25422 205.888 3.1588C205.953 3.05021 206.093 2.8146 206.174 2.51899C206.369 2.44143 206.56 2.40982 206.661 2.39548C206.661 2.39548 206.638 2.48006 206.627 2.51343C206.596 2.5986 206.465 2.77216 206.529 2.78826C206.58 2.80085 206.659 2.71158 206.713 2.61616C206.746 2.55968 206.801 2.46543 206.857 2.34572C206.887 2.33782 206.911 2.33226 206.924 2.32874C207.022 2.31031 207.133 2.30123 207.253 2.30123H207.258C207.257 2.32582 207.263 2.34426 207.283 2.34865C207.308 2.35626 207.338 2.33723 207.371 2.30474C207.446 2.30826 207.528 2.31557 207.613 2.32582C205.837 3.35607 204.048 4.58623 202.264 6.00839C202.233 5.94897 202.207 5.88956 202.185 5.83073C202.207 5.81112 202.228 5.78888 202.248 5.7678ZM207.919 2.64836C207.933 2.65685 207.964 2.68143 208.015 2.65626L208.018 2.6545H208.02C208.055 2.63167 208.063 2.60299 208.063 2.5825C208.065 2.56377 208.06 2.54065 208.054 2.5225C208.043 2.49148 208.03 2.46367 208.017 2.43558C208.031 2.42767 208.046 2.41889 208.06 2.41099C208.153 2.44348 208.232 2.48767 208.347 2.55792C208.369 2.57226 208.392 2.59099 208.414 2.61236C208.41 2.62758 208.41 2.64426 208.409 2.65919C208.412 2.69899 208.42 2.73909 208.431 2.77012C208.434 2.77978 208.435 2.78651 208.441 2.79616C208.315 2.87285 208.188 2.95421 208.064 3.03295C208.038 2.99519 208.008 2.94543 207.964 2.91968C207.942 2.90768 207.922 2.8986 207.893 2.91177C207.857 2.93109 207.854 2.95685 207.849 2.97822C207.841 3.03588 207.86 3.11519 207.87 3.15646C207.714 3.25714 207.559 3.35812 207.406 3.46173C207.374 3.42397 207.341 3.37539 207.295 3.34671C207.275 3.33588 207.256 3.32622 207.225 3.33763C207.19 3.35812 207.186 3.38329 207.184 3.40232C207.176 3.4629 207.199 3.54983 207.21 3.59315C207.01 3.72515 206.815 3.86066 206.616 3.99793C206.616 3.99734 206.615 3.99735 206.614 3.995H206.611L206.604 3.99266C206.567 3.9871 206.518 3.92183 206.47 3.89227C206.455 3.88086 206.429 3.87734 206.406 3.88759C206.373 3.90603 206.355 3.93383 206.348 3.95959C206.345 3.98535 206.345 4.00876 206.351 4.02866C206.364 4.07462 206.389 4.11061 206.411 4.14427C206.177 4.30993 205.943 4.47911 205.708 4.64974C205.644 4.63247 205.567 4.61403 205.529 4.57247C205.529 4.57247 205.45 4.5312 205.427 4.54145C205.385 4.56457 205.374 4.59589 205.364 4.62106C205.362 4.63716 205.374 4.69862 205.38 4.70623C205.403 4.74691 205.433 4.79375 205.469 4.8274C205.143 5.06858 204.818 5.31911 204.494 5.57346C204.415 5.54946 204.323 5.49121 204.232 5.48185C204.22 5.47921 204.201 5.47804 204.179 5.48653C204.147 5.50087 204.133 5.52721 204.128 5.55121C204.12 5.57668 204.122 5.5916 204.124 5.61004C204.125 5.61502 204.125 5.6197 204.127 5.62263C204.129 5.63902 204.136 5.6478 204.139 5.65395C204.158 5.68995 204.199 5.7438 204.227 5.7839C203.886 6.05522 203.513 6.37366 203.153 6.6842C202.87 6.59962 202.63 6.48049 202.48 6.31893C202.726 6.12049 202.973 5.92439 203.219 5.73414C203.228 5.77131 203.242 5.82312 203.256 5.8559C203.261 5.8638 203.265 5.87229 203.279 5.88722C203.292 5.89746 203.308 5.91063 203.335 5.91532C203.348 5.91532 203.36 5.91473 203.373 5.90653C203.397 5.89746 203.415 5.87463 203.422 5.85707C203.436 5.83014 203.438 5.80849 203.439 5.79005C203.442 5.7078 203.453 5.62556 203.463 5.54536C203.815 5.27316 204.17 5.00506 204.523 4.74691C204.523 4.75013 204.524 4.75423 204.524 4.75657C204.533 4.79316 204.543 4.8353 204.557 4.86633C204.56 4.87248 204.567 4.88448 204.58 4.89589C204.593 4.90672 204.609 4.91492 204.628 4.91872L204.629 4.91989H204.631C204.643 4.92165 204.66 4.91989 204.677 4.91199C204.708 4.89999 204.727 4.8675 204.729 4.84116C204.755 4.75657 204.751 4.64974 204.766 4.57189C205.021 4.38603 205.277 4.20545 205.534 4.03042C205.543 4.06642 205.558 4.11735 205.575 4.15042C205.579 4.1592 205.605 4.19637 205.633 4.20369C205.637 4.20369 205.66 4.22593 205.693 4.20779C205.75 4.17735 205.751 4.08076 205.751 4.08076C205.751 4.08076 205.756 3.93617 205.765 3.87032C205.979 3.72515 206.194 3.58056 206.407 3.43949C206.424 3.48105 206.446 3.52846 206.483 3.55715C206.493 3.56446 206.504 3.57149 206.515 3.57617C206.535 3.58056 206.555 3.57763 206.578 3.56973C206.606 3.55539 206.632 3.52173 206.628 3.491C206.63 3.43949 206.63 3.36105 206.616 3.30339C206.802 3.18397 206.989 3.06543 207.176 2.94836C207.206 2.99343 207.245 3.05343 207.305 3.07304C207.324 3.07656 207.346 3.07539 207.366 3.06661C207.397 3.05461 207.419 3.01919 207.418 2.99139C207.418 2.96212 207.413 2.93402 207.404 2.90768C207.396 2.87753 207.384 2.85119 207.374 2.82485C207.523 2.73294 207.675 2.64309 207.823 2.55323C207.851 2.58543 207.88 2.62085 207.919 2.64836ZM208.8 3.30163C208.62 3.28671 208.465 3.33149 208.408 3.34671C208.353 3.35607 208.301 3.38212 208.303 3.42163C208.306 3.47432 208.408 3.44446 208.455 3.45149C208.54 3.45032 208.704 3.46642 208.846 3.54807C208.856 3.70759 208.846 3.86183 208.815 4.01286C208.42 3.54515 207.873 3.75032 207.751 3.79334C207.692 3.8071 207.639 3.83959 207.645 3.88086C207.653 3.93383 207.756 3.88525 207.808 3.887C207.964 3.87325 208.38 3.89783 208.516 4.24759C208.373 4.3553 208.217 4.47472 208.159 4.51921C207.701 4.04418 207.097 4.28593 206.958 4.3392C206.893 4.35706 206.833 4.39394 206.841 4.44164C206.85 4.50164 206.969 4.44223 207.029 4.44223C207.199 4.42145 207.648 4.43228 207.826 4.77882C207.666 4.90584 207.488 5.04692 207.421 5.0996C206.889 4.61345 206.22 4.93775 206.069 5.00565C206 5.03082 205.937 5.07502 205.948 5.12009C205.963 5.17892 206.088 5.10809 206.149 5.10106C206.342 5.06009 206.864 5.0194 207.06 5.39843C206.837 5.58253 206.58 5.79531 206.542 5.8278L206.537 5.83014C205.946 5.36302 205.251 5.74204 205.095 5.82078C205.021 5.85063 204.96 5.89922 204.973 5.9437C204.989 6.00488 205.12 5.92263 205.185 5.91122C205.386 5.85707 205.934 5.78214 206.164 6.15122C206.027 6.26859 205.838 6.40966 205.657 6.56742C205.642 6.55249 205.637 6.5522 205.621 6.53903C204.845 6.11698 204.083 6.64352 203.915 6.75445C203.883 6.77259 203.853 6.79337 203.83 6.81503C203.735 6.80479 203.64 6.79103 203.546 6.77493C205.247 5.33316 206.964 4.06818 208.673 2.9908C208.728 3.10114 208.772 3.21236 208.8 3.30163ZM208.579 4.61696C208.564 4.64272 208.536 4.67872 208.498 4.72174C208.469 4.68574 208.444 4.65355 208.426 4.62896C208.485 4.58213 208.541 4.53764 208.599 4.49286C208.613 4.50896 208.619 4.51862 208.628 4.52945C208.613 4.55872 208.596 4.5874 208.579 4.61696ZM208.258 4.96409C208.201 4.96731 208.138 4.97258 208.118 4.97433L208.063 4.91989C208.092 4.89589 208.172 4.83296 208.201 4.80955C208.224 4.83882 208.266 4.88155 208.301 4.92223C208.288 4.93599 208.274 4.95033 208.258 4.96409ZM207.882 5.29453C207.84 5.23833 207.803 5.18594 207.78 5.15141C207.845 5.09843 207.908 5.04633 207.974 4.99423C207.999 5.02584 207.991 5.01589 208.02 5.04867C208.029 5.06184 208.071 5.0715 208.071 5.0715C208.077 5.07092 208.107 5.06857 208.149 5.06506C208.066 5.13941 207.976 5.21726 207.882 5.29453ZM207.491 5.59278C207.426 5.60126 207.371 5.60829 207.35 5.61004C207.325 5.58253 207.324 5.57785 207.299 5.55121C207.349 5.5076 207.434 5.43853 207.484 5.39726C207.515 5.42829 207.559 5.47043 207.602 5.51287C207.564 5.54009 207.528 5.56702 207.491 5.59278ZM206.981 5.91122C206.966 5.89453 206.95 5.87697 206.935 5.8597C207.021 5.7877 207.105 5.71453 207.19 5.64195C207.225 5.67912 207.206 5.66156 207.242 5.69756C207.259 5.71336 207.262 5.72302 207.29 5.71863C207.294 5.71805 207.299 5.71804 207.302 5.71746C207.205 5.77922 207.101 5.84097 206.981 5.91122ZM211.988 11.0151C211.498 10.7999 210.875 10.6984 210.249 10.6205C210.077 10.5995 209.267 10.5468 209.245 10.5462C208.831 10.5228 208.278 10.5342 208.189 10.5354C207.44 10.5503 206.648 10.5845 205.817 10.737C205.456 10.8046 205.052 10.8828 204.719 10.9858C204.336 11.1029 204.178 11.1111 203.878 11.2C203.304 11.3689 203.031 11.5843 202.595 11.8033L202.182 12.0427C201.966 12.1481 201.756 12.2004 201.624 12.2561C201.624 12.2561 201.246 12.2938 200.93 12.5842C200.911 12.6003 200.894 12.6161 200.877 12.6316C200.863 12.6436 200.404 13.0592 200.404 13.0592L201.09 12.2748C201.09 12.2748 200.732 12.3102 200.438 12.5285C200.142 12.7478 199.64 13.1877 199.64 13.1862C199.641 13.1856 199.642 13.185 199.642 13.1839C199.647 13.1449 199.781 12.9087 199.781 12.9087C199.819 12.8505 199.861 12.7911 199.912 12.7352C200.047 12.5836 200.393 12.2812 200.393 12.2812C200.182 12.2938 199.992 12.3149 199.865 12.3342C199.411 12.4018 199.721 12.3503 199.442 12.4121C199.364 12.4006 199.288 12.3892 199.214 12.3749C199.011 12.336 198.826 12.2874 198.719 12.168C198.612 12.0529 198.551 11.9136 198.463 11.786C198.417 11.7181 198.341 11.6762 198.323 11.6013C198.321 11.594 198.317 11.5843 198.315 11.5735C198.317 11.5557 198.361 11.2317 198.42 11.0675C198.426 11.0493 198.436 11.0271 198.445 11.0031C198.432 11.0019 198.384 11.0104 198.3 10.9858C198.2 10.9565 198.075 10.8658 198.075 10.8658C198.075 10.8658 198.093 10.8365 198.097 10.831C198.149 10.7478 198.262 10.5913 198.36 10.5913C198.371 10.5913 198.383 10.593 198.393 10.5977C198.423 10.6103 198.413 10.6147 198.473 10.6141C198.534 10.6141 198.661 10.5547 198.661 10.5547C198.661 10.5547 198.85 10.2775 198.856 10.2626C198.861 10.2476 198.843 10.2374 198.843 10.2374L198.461 10.1666C198.461 10.1666 198.461 10.1654 198.461 10.1654C198.461 10.1654 198.249 9.97399 198.269 9.90608C198.271 9.89906 198.29 9.89555 198.309 9.89555C198.332 9.89555 198.364 9.90082 198.405 9.91282C198.54 9.94999 198.668 9.96199 198.775 9.96199C198.915 9.96199 199.019 9.9415 199.058 9.93272C199.096 9.90082 199.189 9.82413 199.191 9.82179C199.202 9.78579 199.186 9.74306 199.111 9.67896C198.93 9.53028 198.775 9.31076 198.764 9.28735C198.772 9.29203 198.782 9.29935 198.796 9.31135C198.954 9.44686 199.452 9.54111 199.452 9.54111L199.796 9.4533C199.83 9.43427 199.864 9.41496 199.896 9.39593C199.921 9.38569 199.982 9.34471 199.984 9.34354C199.997 9.30842 199.993 9.27652 199.927 9.25369C199.832 9.2212 199.81 9.18842 199.709 9.12549C199.608 9.06286 199.416 8.83807 199.399 8.82139C199.451 8.85798 199.515 8.90042 199.594 8.94169C199.837 9.06959 200.183 9.11876 200.183 9.11876L200.281 9.04032C200.281 9.04032 200.364 8.97183 200.55 8.9291L200.737 8.9209C200.75 8.91915 200.866 8.90217 200.92 8.89398C200.99 8.89368 201.047 8.89251 201.09 8.89251C201.132 8.89251 201.163 8.89368 201.185 8.89368C201.256 8.86998 201.321 8.84949 201.381 8.83134C201.381 8.83134 202.042 8.72422 202.393 8.66363C202.723 8.60656 203.051 8.5448 203.335 8.48071C203.616 8.41749 203.849 8.35573 204.011 8.28578C204.44 8.15436 204.779 8.07563 205.382 7.78616C205.992 7.49289 206.444 7.18206 206.983 6.86245C207.527 6.54166 207.816 6.388 208.187 6.10615C208.371 5.96566 208.601 5.77512 208.81 5.58078C209.018 5.38585 209.202 5.1956 209.306 5.02467C209.599 4.53062 209.692 4.05735 209.691 3.65549C209.691 3.5349 209.683 3.42163 209.671 3.31598C209.654 3.19597 209.583 2.93987 209.445 2.64309C209.304 2.35157 209.1 2.0302 208.792 1.83762C208.48 1.64093 208.252 1.5581 207.847 1.50366C207.689 1.48083 207.487 1.46035 207.268 1.45859C206.866 1.45479 206.129 1.65469 206.129 1.65469C205.671 1.78728 205.258 1.9743 204.852 2.15723C204.181 2.46016 203.417 3.01802 203.103 3.27295C202.293 3.83842 201.586 4.5394 200.98 5.22399C200.347 5.89395 199.733 6.74918 199.434 7.25172L199.378 7.3445C199.378 7.3445 199.202 7.50665 199.202 7.50723C199.202 7.50723 199.201 7.50723 199.201 7.50782C199.201 7.5084 199.198 7.51016 199.197 7.51016C199.168 7.52684 199.012 7.59767 198.92 7.75602C198.915 7.7645 198.909 7.77241 198.904 7.7806C198.904 7.7806 198.903 7.78119 198.903 7.78119C198.753 7.85816 198.619 7.96704 198.501 8.09026C198.5 8.09143 198.424 8.17602 198.388 8.21846C198.183 8.33787 198.013 8.4728 197.849 8.60949C197.702 8.63641 197.505 8.81056 197.361 8.87232C197.331 8.88725 197.261 8.90042 197.211 8.91915C197.094 8.96159 196.986 9.04208 196.83 9.0851C196.574 9.1571 196.304 9.19193 195.998 9.2932C195.617 9.41935 195.13 9.67545 194.972 9.68979C194.813 9.70472 194.645 9.71057 194.551 9.7132C194.476 9.71555 194.473 9.71057 194.349 9.71057C194.226 9.71057 193.951 9.8133 193.725 9.86979C193.725 9.86979 193.576 9.9014 193.52 9.9055C193.463 9.9093 193.334 9.89613 193.334 9.89613C193.212 9.85399 193.102 9.79281 192.991 9.75681C192.804 9.69681 192.685 9.63272 192.64 9.50189C192.64 9.50189 192.657 9.38276 192.622 9.32393C192.587 9.26452 192.566 9.2572 192.566 9.2572H192.565C192.565 9.2572 192.633 9.1612 192.642 9.10208C192.652 9.04266 192.613 8.91915 192.613 8.91915C192.613 8.91915 192.36 9.20979 191.884 9.54579C191.663 9.69886 191.477 9.74745 191.342 9.76647C191.258 9.77847 191.084 9.74599 191.084 9.74599L191.157 9.95174C191.157 9.95174 191.156 9.95233 191.155 9.95233C191.152 9.9535 190.992 10.0088 190.7 10.0065C190.7 10.0065 190.517 10.0147 190.378 9.97048C190.24 9.92657 190.269 9.86774 190.269 9.86774L190.944 9.70881L191.039 9.54023L190.874 9.39476L190.244 9.25369L190.745 9.05144L189.647 8.65749C189.651 8.66422 189.672 9.06403 189.754 9.2291V9.22969C189.732 9.25135 189.713 9.27154 189.695 9.29144C189.66 9.33037 189.579 9.43896 189.568 9.45476C189.491 9.57096 189.378 9.83174 189.368 9.84813C189.358 9.86247 189.26 10.0082 189.248 10.0334C189.186 10.1593 189.126 10.2553 189.062 10.353C189.049 10.3729 188.898 10.5942 188.893 10.5965C188.696 10.8556 188.523 11.0938 188.368 11.3438C188.212 11.5934 188.082 11.8422 187.992 12.0989C187.925 12.285 187.925 12.432 187.941 12.5681V12.5777C187.972 12.8271 188.056 13.0328 187.905 13.3472C187.904 13.3478 187.903 13.3484 187.902 13.3495C187.869 13.3706 187.834 13.392 187.801 13.4136C187.795 13.4166 187.79 13.4198 187.785 13.4239C187.75 13.4455 187.716 13.4684 187.683 13.4909C187.678 13.4947 187.673 13.4982 187.667 13.5017C187.598 13.548 187.53 13.596 187.46 13.6446C187.457 13.6475 187.452 13.6507 187.447 13.6542C187.414 13.6794 187.379 13.7034 187.347 13.728C187.344 13.7303 187.342 13.7315 187.339 13.7344C187.27 13.785 187.204 13.8377 187.138 13.8904C187.135 13.8933 187.131 13.896 187.128 13.8983C187.062 13.9528 186.997 14.0075 186.934 14.0637C186.934 14.0637 186.934 14.0643 186.933 14.0643C186.903 14.0915 186.872 14.1196 186.843 14.1489C186.841 14.1503 186.84 14.1521 186.837 14.1538C186.777 14.21 186.72 14.2683 186.666 14.3259C186.666 14.3259 186.665 14.3271 186.665 14.3283C186.637 14.357 186.61 14.3865 186.585 14.4158C186.585 14.417 186.584 14.417 186.583 14.4181C186.533 14.4775 186.486 14.5364 186.441 14.5958C186.441 14.597 186.44 14.5987 186.438 14.6005C186.404 14.6473 186.371 14.6959 186.341 14.7445C186.282 14.8399 186.231 14.9371 186.194 15.0331C186.122 15.2207 186.028 15.4779 186.034 15.6477C186.034 15.7174 186.074 15.7738 186.076 15.8552C186.083 16.0838 186.056 16.373 186.008 16.6171C185.977 16.7693 186.007 16.9235 185.907 17.0997C185.899 17.1123 185.888 17.1249 185.875 17.1381C185.867 17.1448 185.86 17.1509 185.853 17.1574C185.852 17.158 185.852 17.1585 185.852 17.1591C185.846 17.1653 185.839 17.1717 185.832 17.1779C185.802 17.2036 185.776 17.2276 185.773 17.2373C185.763 17.2472 185.759 17.2545 185.763 17.2569C186.045 17.1767 186.274 17.1483 186.467 17.1483C186.606 17.1483 186.727 17.1629 186.837 17.1843C187.175 17.2478 187.402 17.3631 187.435 17.6227C187.434 17.6227 187.433 17.6233 187.431 17.6227H187.421C187.414 17.6222 187.407 17.6222 187.4 17.6216C187.4 17.6216 187.399 17.621 187.396 17.621H187.395C187.393 17.621 187.39 17.6216 187.386 17.6222C187.381 17.6227 187.373 17.6227 187.366 17.6257C187.366 17.6295 187.367 17.6347 187.367 17.6385V17.6391L187.355 17.6409C187.36 17.7073 187.41 17.8622 187.487 17.8885C187.518 17.8308 187.713 17.7348 187.738 17.7073C187.763 17.6901 187.781 17.669 187.796 17.6473C187.813 17.6251 187.826 17.5999 187.838 17.5742C187.838 17.573 187.838 17.573 187.839 17.5712C187.842 17.5633 187.846 17.5557 187.848 17.5484V17.5478C187.856 17.5449 187.862 17.5443 187.865 17.5443C187.874 17.5443 187.875 17.5496 187.877 17.554C187.877 17.5598 187.878 17.566 187.886 17.566C187.889 17.566 187.892 17.5648 187.896 17.5639C187.952 17.5197 187.993 17.4676 188.088 17.4375C188.256 17.2472 188.571 17.1243 188.831 16.9756C188.864 16.975 188.899 16.9721 188.939 16.9636C189.03 16.8486 189.152 16.8304 189.284 16.7783C189.282 16.7783 189.294 16.7704 189.316 16.7611C189.339 16.7532 189.372 16.7453 189.411 16.7453C189.463 16.7453 189.526 16.7599 189.593 16.8088C189.619 16.8978 189.772 16.8474 189.849 16.8761C189.928 16.9068 189.973 16.9973 190.044 17.0573C190.235 17.2203 190.471 17.345 190.645 17.5095L190.642 17.5101C190.665 17.5329 190.696 17.5633 190.725 17.5894C190.828 17.705 190.927 17.8262 191.076 17.9347C191.141 17.9798 191.203 18.0504 191.257 18.1262C191.286 18.1651 191.384 18.2046 191.473 18.2508C191.48 18.2561 191.491 18.2628 191.497 18.2705C191.539 18.319 191.532 18.3012 191.575 18.3629L191.581 18.4888C191.547 18.5728 191.511 18.6653 191.575 18.7186C191.571 18.7648 191.563 18.814 191.542 18.871C191.535 18.8848 191.526 18.9603 191.516 19.0616C191.512 19.0964 191.511 19.1301 191.507 19.1655C191.503 19.2349 191.497 19.3063 191.495 19.3771C191.495 19.4046 191.492 19.4312 191.492 19.4558C191.491 19.5486 191.492 19.6355 191.5 19.7011H191.514C191.53 19.8454 191.555 19.9876 191.599 20.1138C191.811 20.7398 192.241 21.2225 192.628 21.7121C193.004 22.1889 193.514 22.5378 194.046 22.9247C194.554 23.2912 195.12 23.5672 195.824 23.7861C196.214 23.9052 196.68 23.996 197.209 23.996C197.585 23.996 197.993 23.9503 198.428 23.8347C198.743 23.7536 198.896 23.6649 199.137 23.5426C199.287 23.4656 199.452 23.3963 199.581 23.3231C199.967 23.103 200.284 22.8323 200.511 22.5331C200.559 22.4708 200.603 22.4079 200.642 22.3435C200.644 22.3411 200.646 22.3382 200.647 22.3359C200.667 22.3016 200.686 22.268 200.704 22.2337C200.707 22.229 200.71 22.2255 200.712 22.2217C200.73 22.1883 200.745 22.1553 200.76 22.121C200.763 22.1158 200.765 22.1108 200.767 22.1055C200.781 22.0719 200.796 22.0388 200.809 22.0042C200.81 21.9999 200.812 21.994 200.814 21.9884C200.826 21.9548 200.837 21.9202 200.848 21.886C200.848 21.8816 200.851 21.8763 200.851 21.8705C200.861 21.8357 200.87 21.8014 200.877 21.766C200.878 21.7613 200.878 21.7569 200.88 21.7528C200.887 21.7174 200.893 21.6808 200.898 21.6442V21.6358C200.903 21.598 200.906 21.5591 200.908 21.5207C200.942 20.7188 200.374 20.3146 199.868 20.0105C199.375 19.7154 198.875 19.4708 198.35 19.2176C198.35 19.2176 198.349 19.217 198.347 19.2164C198.314 19.1991 197.926 19.0042 197.31 18.7107C197.018 18.547 196.567 18.3463 196.211 18.2046C196.21 18.204 196.208 18.2028 196.206 18.2023C196.194 18.1973 196.18 18.192 196.167 18.1867C196.164 18.1865 196.161 18.1841 196.157 18.1835C196.146 18.1788 196.134 18.1745 196.123 18.1698C196.118 18.168 196.113 18.1657 196.107 18.1639C196.098 18.1607 196.087 18.1566 196.078 18.1531C196.072 18.1507 196.067 18.1487 196.062 18.1464C196.052 18.1428 196.043 18.1399 196.034 18.1355C196.028 18.1332 196.022 18.1308 196.016 18.1285C196.007 18.1262 195.999 18.1229 195.991 18.12C195.984 18.1177 195.978 18.1153 195.971 18.1133C195.964 18.1109 195.957 18.1086 195.95 18.1057C195.943 18.1033 195.937 18.1007 195.93 18.0989C195.924 18.0966 195.917 18.0943 195.911 18.0919C195.904 18.0896 195.898 18.0875 195.892 18.0852C195.885 18.0834 195.88 18.0817 195.874 18.0787C195.867 18.0767 195.86 18.0744 195.853 18.0726C195.849 18.0708 195.845 18.0697 195.84 18.0679C195.83 18.065 195.819 18.0612 195.81 18.0583C195.703 17.9959 195.395 17.8873 195.241 17.8736C195.176 17.8548 195.089 17.8393 194.972 17.7691C194.925 17.7152 194.912 17.6564 194.862 17.5993C194.631 17.6204 194.205 17.7044 193.938 17.7255C193.925 17.7261 193.913 17.7284 193.899 17.7296C193.889 17.7302 193.879 17.7325 193.868 17.7348C193.865 17.7354 193.861 17.7354 193.857 17.7363C193.85 17.7375 193.843 17.7398 193.836 17.7404C193.832 17.7422 193.826 17.7427 193.821 17.7445C193.816 17.7457 193.809 17.7468 193.802 17.7483C193.797 17.7501 193.791 17.7512 193.787 17.7524C193.78 17.7542 193.773 17.7559 193.766 17.7583C193.761 17.7594 193.756 17.7609 193.75 17.7626C193.744 17.7632 193.738 17.7662 193.731 17.7679C193.725 17.7691 193.72 17.7714 193.714 17.7729C193.706 17.7746 193.7 17.777 193.693 17.7787C193.687 17.7811 193.682 17.7823 193.676 17.7843C193.669 17.7866 193.662 17.789 193.656 17.7907C193.65 17.7925 193.643 17.796 193.637 17.7966C193.63 17.7992 193.624 17.8022 193.616 17.8039C193.61 17.8068 193.605 17.8086 193.598 17.8101C193.591 17.813 193.584 17.8153 193.576 17.8177L193.559 17.8244C193.548 17.8279 193.538 17.832 193.527 17.8358C193.519 17.8387 193.511 17.8417 193.504 17.8452C193.496 17.8472 193.49 17.8502 193.482 17.8531C193.475 17.8554 193.469 17.8581 193.462 17.8598C193.456 17.8633 193.45 17.8651 193.444 17.868C193.437 17.8701 193.43 17.873 193.423 17.8753C193.417 17.8777 193.41 17.8812 193.403 17.8832C193.397 17.8862 193.391 17.8885 193.384 17.8914C193.378 17.8938 193.372 17.897 193.365 17.8993C193.358 17.9023 193.353 17.904 193.346 17.9072C193.339 17.9096 193.333 17.9125 193.326 17.9154C193.321 17.9184 193.315 17.921 193.308 17.9233C193.302 17.9263 193.295 17.928 193.288 17.9306C193.283 17.9336 193.277 17.9365 193.271 17.9388C193.265 17.9418 193.259 17.9444 193.252 17.9467C193.246 17.9491 193.24 17.952 193.234 17.9544C193.228 17.957 193.222 17.9599 193.215 17.9628C193.21 17.9652 193.205 17.9672 193.199 17.9696C193.192 17.9731 193.185 17.9766 193.177 17.9798C193.174 17.981 193.17 17.9822 193.166 17.9839C193.155 17.9892 193.145 17.9942 193.134 17.9994C193.131 18 193.129 18.0006 193.127 18.0018C193.119 18.0056 193.11 18.0091 193.102 18.0126C193.1 18.0149 193.097 18.0155 193.095 18.0164C193.087 18.0199 193.08 18.0228 193.072 18.0269C193.069 18.0275 193.067 18.0296 193.065 18.0307C193.058 18.0337 193.051 18.0366 193.045 18.0395C193.043 18.0404 193.039 18.0427 193.036 18.0433C193.031 18.0463 193.024 18.0492 193.019 18.0515C193.017 18.0527 193.014 18.0542 193.012 18.0547C193.006 18.0577 193 18.0606 192.994 18.0641C192.993 18.0641 192.993 18.065 192.991 18.0656C192.984 18.0679 192.979 18.0708 192.973 18.0738C192.971 18.0744 192.971 18.0744 192.97 18.0749C192.951 18.084 192.935 18.0913 192.924 18.0966C193.026 18.0091 193.414 17.6883 193.714 17.6306C193.799 17.6145 193.826 17.6005 193.811 17.5923H193.811C193.814 17.5911 193.816 17.5894 193.819 17.5891C193.819 17.5885 193.82 17.5879 193.82 17.5873C193.821 17.5867 193.823 17.585 193.823 17.5844C193.823 17.5838 193.823 17.5838 193.823 17.5832C193.824 17.5815 193.824 17.5809 193.823 17.5809C193.823 17.5803 193.823 17.5791 193.823 17.5785C193.822 17.5785 193.821 17.578 193.82 17.5771C193.819 17.5765 193.818 17.5765 193.816 17.5765C193.815 17.5753 193.813 17.5747 193.81 17.5742C193.81 17.5736 193.809 17.5736 193.807 17.573C193.805 17.573 193.8 17.573 193.797 17.5724H193.796C193.78 17.5695 193.756 17.5695 193.727 17.5712C193.718 17.5712 193.708 17.5724 193.697 17.573H193.686C193.679 17.5742 193.672 17.5747 193.664 17.5759C193.659 17.5765 193.653 17.5771 193.647 17.5774C193.634 17.5785 193.621 17.5809 193.607 17.5821C193.432 17.6078 193.184 17.6713 192.975 17.801C192.867 17.8668 192.808 17.8941 192.777 17.8987C192.773 17.8993 192.771 17.8987 192.768 17.8987C192.765 17.8976 192.762 17.8976 192.76 17.897C192.759 17.8958 192.759 17.8946 192.758 17.8941C192.756 17.892 192.755 17.8903 192.755 17.8873V17.885C192.755 17.8812 192.757 17.8771 192.759 17.8724C192.759 17.8718 192.759 17.8712 192.759 17.8706C192.762 17.8651 192.765 17.8581 192.769 17.8531C192.816 17.7834 192.916 17.681 192.916 17.681C192.916 17.681 193.372 17.3219 193.821 17.2346C194.205 17.1574 194.344 16.9774 194.377 16.927C194.389 16.9098 194.395 16.8983 194.395 16.8983H194.392C194.391 16.8983 194.245 16.884 194.13 16.884L193.818 16.9007C193.697 16.9156 193.562 16.9428 193.479 16.9785C193.47 16.9823 193.105 17.1281 193.104 17.1287C192.861 17.2203 192.593 17.3151 192.457 17.3637C192.454 17.3649 192.383 17.3895 192.372 17.3936C192.434 17.3324 192.671 17.1135 193.192 16.8582C193.685 16.6171 193.838 16.5641 193.945 16.5503C194.027 16.5401 194.087 16.5612 194.087 16.5612L194.092 16.4611C194.092 16.4611 194.01 16.3194 194.113 16.1816C194.196 16.0712 194.229 16.0323 194.338 15.9465C194.532 15.7917 194.92 15.6705 195.228 15.5435C195.449 15.4493 195.675 15.3576 195.889 15.2742C196.122 15.1858 196.357 15.108 196.567 15.0161C196.8 14.9125 196.992 14.8021 197.19 14.7243C197.455 14.5586 197.689 14.5071 197.902 14.4813C198.201 14.4644 198.844 14.4333 199.27 14.3853C199.432 14.366 199.72 14.3253 199.72 14.3253C199.72 14.3253 200.205 14.2168 200.364 14.2185C200.515 14.2209 200.611 14.2557 200.794 14.2665C200.983 14.2779 201.187 14.2738 201.309 14.3265C201.566 14.4415 201.711 14.4333 201.924 14.5665C202.128 14.6918 202.449 14.8932 202.777 14.9851C204.144 15.3606 205.166 15.3029 206.531 15.3208H206.59C207.043 15.3208 207.678 15.2596 208.206 15.1949C208.849 15.1133 209.512 15.0108 210.3 14.7746C211.381 14.453 212.071 14.0025 212.47 13.4318C212.47 13.4318 212.767 13.0797 212.879 12.4246C213.003 11.6095 212.512 11.2448 211.988 11.0151Z" fill="#124B8D"/>
<path d="M190.673 4.42754C190.683 4.40178 190.696 4.36929 190.706 4.34178C191.191 4.31368 191.607 4.39564 191.677 4.48139C191.718 4.5133 191.708 4.62013 191.814 4.58354C191.895 4.55398 191.912 4.49544 191.895 4.44598C191.883 4.33885 191.752 3.997 190.835 4.02685C190.904 3.86558 190.98 3.69934 191.06 3.53338C191.553 3.47163 191.914 3.51904 192.012 3.57875C192.067 3.60158 192.09 3.70051 192.194 3.65134C192.274 3.61475 192.273 3.55855 192.239 3.51816C192.192 3.43563 191.964 3.19153 191.202 3.24655C191.24 3.17397 191.276 3.10021 191.312 3.03318C191.369 2.92869 191.427 2.83094 191.491 2.73611C191.81 2.68401 192.068 2.69777 192.177 2.71591C192.252 2.72001 192.327 2.78352 192.413 2.72674C192.481 2.68401 192.448 2.6445 192.389 2.6205C192.321 2.58508 192.114 2.46625 191.692 2.48176C191.706 2.46625 191.715 2.45015 191.73 2.43347C191.922 2.22771 192.162 2.04478 192.426 1.88439C192.529 1.81005 192.667 1.75063 192.715 1.72634C192.685 2.59533 192.456 3.58958 192.004 4.61895C191.587 4.58705 191.203 4.59378 190.953 4.61661C190.816 4.6292 190.7 4.64471 190.59 4.66198C190.617 4.58412 190.643 4.50744 190.673 4.42754ZM193.136 3.59631C193.084 3.59514 193.048 3.59455 192.97 3.60334C192.96 3.60538 192.91 3.60597 192.901 3.60714C192.982 3.3648 193.048 3.12831 193.1 2.89562C193.191 2.85377 193.323 2.79991 193.41 2.72352C193.427 2.70918 193.439 2.69484 193.447 2.68108C193.466 2.65035 193.47 2.61318 193.405 2.61318C193.395 2.61318 193.378 2.61494 193.362 2.61757C193.291 2.62694 193.213 2.65299 193.146 2.67318C193.182 2.48791 193.207 2.30615 193.227 2.12732C193.303 2.08722 193.383 2.04771 193.46 1.99561C193.484 1.97981 193.522 1.95405 193.541 1.92361C193.548 1.9122 193.55 1.90312 193.554 1.89171C193.556 1.85805 193.527 1.84664 193.492 1.84868C193.486 1.84868 193.475 1.85044 193.464 1.85161C193.395 1.86361 193.313 1.89581 193.246 1.92039C193.255 1.77844 193.253 1.64293 193.252 1.50478C193.342 1.4761 193.427 1.44127 193.519 1.41785C193.616 1.39327 193.711 1.376 193.805 1.36166C193.982 1.33502 194.13 1.35375 194.13 1.35375C194.13 1.50244 194.124 1.6561 194.111 1.81268C194.034 1.84605 193.932 1.88937 193.848 1.9482C193.817 1.97015 193.793 1.99181 193.78 2.00995C193.761 2.04274 193.79 2.05913 193.821 2.06088C193.856 2.06381 193.898 2.05912 193.942 2.05122C193.995 2.04478 194.052 2.03454 194.09 2.02488C194.065 2.2204 194.034 2.41767 193.992 2.6205C193.91 2.65708 193.803 2.70216 193.715 2.76186C193.681 2.78469 193.653 2.80752 193.642 2.82743C193.622 2.85904 193.65 2.8725 193.682 2.87718C193.715 2.87835 193.758 2.87601 193.801 2.86986C193.853 2.86343 193.906 2.8526 193.942 2.84411C193.882 3.10196 193.803 3.3648 193.714 3.63348C193.706 3.63699 193.7 3.6408 193.692 3.64431L193.688 3.64841L193.682 3.65251C193.621 3.70548 193.489 3.75875 193.388 3.82285C193.357 3.84041 193.335 3.86148 193.323 3.87934C193.306 3.90948 193.309 3.93348 193.333 3.94783C193.357 3.95602 193.382 3.95661 193.41 3.95251C193.477 3.94285 193.557 3.91358 193.622 3.88958C193.503 4.20393 193.438 4.38364 193.278 4.70998C193.256 4.76091 193.237 4.79808 193.217 4.83613C193.05 4.78198 192.872 4.73808 192.688 4.70413C192.715 4.69154 192.742 4.67749 192.763 4.66374C192.806 4.63095 192.836 4.59232 192.837 4.59115C192.85 4.56012 192.842 4.54081 192.798 4.53788C192.789 4.53788 192.748 4.53437 192.745 4.53437C192.679 4.53203 192.62 4.51388 192.564 4.4972C192.7 4.20802 192.718 4.12812 192.819 3.84831C192.889 3.82724 192.979 3.79973 193.063 3.75348C193.084 3.7409 193.106 3.72831 193.123 3.71368C193.146 3.69407 193.161 3.67709 193.174 3.65865C193.189 3.63231 193.196 3.59514 193.136 3.59631ZM194.635 1.37834C194.694 1.38361 194.752 1.39678 194.855 1.43541C195 1.48985 195.072 1.56478 195.141 1.68654C194.986 1.86478 194.885 2.00878 194.831 2.08605C194.758 2.19405 194.722 2.29708 194.808 2.28391C194.921 2.27132 195.017 2.07171 195.107 1.98098C195.138 1.94761 195.188 1.90137 195.231 1.85629C195.302 2.00264 195.346 2.13113 195.359 2.2684C194.885 2.67084 194.656 3.00421 194.558 3.1447C194.486 3.25006 194.449 3.35045 194.536 3.34197C194.647 3.33055 194.744 3.13094 194.833 3.04196C194.938 2.93426 195.123 2.76274 195.354 2.57542C195.336 2.7686 195.294 2.99221 195.231 3.23104C194.464 3.75582 194.133 4.23027 194.011 4.4012C193.94 4.50364 193.9 4.60315 193.988 4.59495C194.1 4.58705 194.197 4.39271 194.286 4.3052C194.436 4.15358 194.732 3.88548 195.118 3.61738C195.109 3.64548 195.102 3.67182 195.093 3.69934C195.047 3.829 194.99 3.95368 194.923 4.09154C194.85 4.24402 194.755 4.41144 194.648 4.58178C194.359 4.78198 194.137 4.97106 193.971 5.13759C193.861 5.08491 193.741 5.03018 193.599 4.97398C194.263 3.67182 194.602 2.45776 194.635 1.37834ZM189.565 6.98064C189.688 7.45215 189.772 7.57508 189.888 7.73108C190.005 7.8865 190.201 8.11011 190.596 8.26728C191.004 8.43089 191.24 8.44055 191.746 8.44055C191.791 8.44055 191.899 8.42562 191.899 8.42562C191.899 8.42562 191.704 8.34455 191.381 8.2427C191.14 8.16718 190.986 8.08904 190.932 8.0586L191.869 8.03138C191.869 8.03138 191.241 7.94503 190.993 7.83616C190.954 7.82094 190.861 7.77469 190.809 7.74835C190.978 7.76211 191.557 7.80074 191.557 7.80074C191.557 7.80074 191.471 7.55108 191.466 7.48698C191.608 7.51684 191.743 7.52942 191.871 7.52942C192.157 7.52942 192.411 7.46766 192.645 7.4024C193.453 7.17995 193.814 6.75117 194.253 6.17107C194.752 5.61496 195.227 4.95115 195.499 4.37778C195.573 4.22178 195.641 4.07836 195.697 3.91768C195.891 3.35806 196.011 2.77884 196.009 2.35474C196.006 1.96898 195.918 1.69093 195.705 1.37717C195.524 1.10731 195.326 0.912383 194.923 0.768967C194.758 0.710722 194.408 0.674137 194.308 0.672381C193.923 0.665942 193.374 0.769553 193.333 0.779797C192.43 1.01014 191.693 1.48195 191.225 1.98595C191.108 2.11064 191.013 2.23357 190.929 2.35825C190.845 2.48001 190.773 2.60352 190.701 2.73318C190.457 3.18245 190.187 3.77017 190.022 4.21329C189.937 4.44012 189.793 4.89291 189.793 4.89701C189.79 4.89788 189.699 5.24208 189.692 5.26959C189.551 5.81106 189.484 6.12716 189.521 6.56092C189.529 6.70112 189.533 6.85537 189.565 6.98064Z" fill="#124B8D"/>
<path d="M185.972 20.0759L185.965 20.0915C185.522 20.1605 185.367 19.9199 185.334 19.8222C185.318 19.7906 185.341 19.7077 185.277 19.7244C185.229 19.7399 185.209 19.7844 185.212 19.8234C185.201 19.9199 185.132 20.3531 185.84 20.3692C185.807 20.4509 185.779 20.5202 185.756 20.5802L185.708 20.7076C185.687 20.7626 185.668 20.8185 185.65 20.8723L185.649 20.8756C185.641 20.8952 185.633 20.9145 185.625 20.9347C185.175 21.0482 184.993 20.8293 184.95 20.7418C184.931 20.7172 184.946 20.644 184.889 20.6637C184.846 20.6786 184.834 20.7152 184.838 20.75C184.838 20.8305 184.815 21.2101 185.491 21.1914C185.498 21.1896 185.506 21.189 185.515 21.1879C185.489 21.2473 185.47 21.29 185.468 21.2982C185.42 21.4153 185.376 21.5297 185.332 21.6444C184.99 21.7024 184.791 21.5572 184.731 21.4925C184.703 21.4735 184.7 21.4056 184.643 21.4279C184.6 21.4434 184.598 21.48 184.613 21.5113C184.633 21.5777 184.703 21.8704 185.249 21.8634C185.206 21.9743 185.163 22.0841 185.117 22.1956C184.875 22.2128 184.706 22.1344 184.646 22.0928C184.613 22.0767 184.594 22.0217 184.542 22.0443C184.504 22.0618 184.507 22.0934 184.529 22.1186C184.561 22.1672 184.666 22.3551 185.043 22.3712C185.041 22.3773 185.039 22.3844 185.036 22.3917C184.989 22.4965 184.938 22.5919 184.883 22.6788C184.781 22.6677 184.704 22.6448 184.666 22.6279C184.628 22.6188 184.6 22.5723 184.551 22.5974C184.513 22.6165 184.523 22.641 184.55 22.6604C184.575 22.6849 184.643 22.7581 184.801 22.7982C184.699 22.9302 184.585 23.0388 184.453 23.1216C184.189 22.2064 184.43 21.1021 185.054 19.9243C185.118 19.8037 185.184 19.6855 185.256 19.562C185.268 19.5409 185.281 19.5242 185.295 19.5087C185.537 19.5547 185.828 19.6843 186.044 19.8576C186.023 19.9273 185.998 20.0022 185.972 20.0759ZM183.937 21.5171V21.5177H183.977C184.016 21.5148 184.057 21.5233 184.1 21.5303C184.062 21.7042 184.033 21.8733 184.016 22.0378C183.973 22.0533 183.92 22.0703 183.867 22.1002C183.853 22.1098 183.841 22.1168 183.829 22.1247C183.817 22.1373 183.812 22.1458 183.807 22.1561C183.795 22.1751 183.789 22.2064 183.849 22.2064C183.876 22.2058 183.914 22.2052 183.955 22.2032C183.971 22.2008 183.988 22.2003 184.003 22.1979C183.995 22.3381 183.997 22.4751 184.003 22.6071C183.947 22.634 183.868 22.6662 183.816 22.7136C183.809 22.7215 183.804 22.728 183.8 22.737C183.787 22.7569 183.786 22.79 183.851 22.7891C183.855 22.7891 183.858 22.7874 183.863 22.7862C183.917 22.7839 183.97 22.7678 184.016 22.7534C184.027 22.8588 184.044 22.9615 184.065 23.0616C184.02 23.0839 183.973 23.1079 183.928 23.1383C183.917 23.1456 183.893 23.1606 183.882 23.1816C183.878 23.191 183.874 23.1989 183.874 23.2086C183.88 23.2302 183.908 23.239 183.939 23.2361H183.944C184 23.2302 184.054 23.2138 184.099 23.1977C184.105 23.2217 184.112 23.2463 184.12 23.2703C183.949 23.3212 183.757 23.347 183.539 23.3505C183.531 23.3189 183.522 23.287 183.515 23.256C183.564 23.2361 183.627 23.2121 183.674 23.1767C183.692 23.1647 183.707 23.1515 183.713 23.1401C183.726 23.1184 183.712 23.1052 183.689 23.1029C183.667 23.0988 183.645 23.0988 183.618 23.1017C183.574 23.1041 183.522 23.1143 183.486 23.121C183.466 23.0125 183.45 22.9004 183.443 22.7862C183.493 22.7654 183.558 22.7388 183.61 22.7016C183.628 22.6879 183.646 22.6759 183.655 22.6604C183.667 22.6431 183.65 22.6285 183.628 22.6244C183.609 22.6203 183.586 22.622 183.564 22.6232C183.517 22.6285 183.471 22.6358 183.435 22.6428C183.429 22.4979 183.433 22.3472 183.447 22.1926C183.45 22.1894 183.465 22.1818 183.465 22.1818C183.493 22.1528 183.576 22.1174 183.64 22.0767C183.661 22.0665 183.672 22.0533 183.678 22.0419C183.69 22.0162 183.682 21.9971 183.655 21.9892C183.639 21.9857 183.622 21.9851 183.606 21.9857C183.555 21.9922 183.508 22.0088 183.467 22.0246C183.491 21.8411 183.529 21.6538 183.578 21.4644C183.645 21.4118 183.726 21.3456 183.781 21.3216L183.813 21.3005C183.819 21.2959 183.826 21.2935 183.833 21.2885C183.858 21.2774 183.874 21.2604 183.88 21.2461C183.893 21.2239 183.884 21.2066 183.865 21.1952H183.863C183.863 21.1952 183.833 21.192 183.822 21.1928C183.817 21.1914 183.765 21.204 183.759 21.2042C183.722 21.2168 183.68 21.2335 183.639 21.2508C183.722 20.9839 183.828 20.7064 183.962 20.4207C184.049 20.3572 184.15 20.3417 184.239 20.2679C184.258 20.2559 184.273 20.2407 184.283 20.2246C184.289 20.212 184.287 20.1983 184.279 20.1892C184.261 20.1796 184.177 20.1869 184.176 20.1869C184.144 20.1954 184.088 20.2085 184.045 20.2235C184.075 20.1684 184.14 20.0598 184.169 20.0051C184.221 19.9085 184.277 19.8073 184.334 19.7095C184.334 19.7095 184.889 19.5482 184.924 19.5602C184.847 19.6946 184.77 19.8257 184.703 19.9589C184.604 20.145 184.517 20.3285 184.441 20.5065C184.408 20.512 184.37 20.5191 184.332 20.5322C184.324 20.5334 184.302 20.5384 184.283 20.5504C184.261 20.5624 184.243 20.5756 184.224 20.5881C184.212 20.6025 184.198 20.6133 184.192 20.6253C184.184 20.6391 184.184 20.6584 184.208 20.6648C184.246 20.6932 184.318 20.6961 184.357 20.7052C184.271 20.9253 184.199 21.1416 184.145 21.3503C184.109 21.3588 184.064 21.3696 184.027 21.3804C184.013 21.3828 183.992 21.3919 183.97 21.4056C183.955 21.4129 183.941 21.4217 183.93 21.4302C183.928 21.4331 183.903 21.4483 183.893 21.4691C183.892 21.4715 183.891 21.4753 183.891 21.48C183.888 21.5016 183.894 21.5171 183.937 21.5171ZM183.132 23.3177C183.023 23.2926 182.939 23.2542 182.872 23.2024C182.907 23.1559 182.931 23.1193 182.947 23.0932C182.985 23.0359 183 22.98 182.944 22.9841C182.882 22.9873 182.839 23.0754 182.795 23.1287C182.728 23.0514 182.68 22.9536 182.635 22.8354C182.791 22.6803 182.869 22.5553 182.91 22.4924C182.955 22.4242 182.972 22.3574 182.908 22.3647C182.823 22.3688 182.772 22.4979 182.715 22.5559C182.681 22.5889 182.636 22.6311 182.58 22.6794C182.578 22.6718 182.575 22.665 182.573 22.6574C182.547 22.5746 182.53 22.4786 182.519 22.3741C182.815 22.1218 182.947 21.9131 183.007 21.8201C183.056 21.7422 183.076 21.667 183.003 21.6725C182.908 21.6799 182.848 21.8268 182.783 21.8909C182.722 21.9532 182.627 22.0419 182.504 22.1403C182.502 22.0814 182.501 22.0208 182.5 21.9611C182.5 21.895 182.504 21.8259 182.512 21.753C183.013 21.3872 183.212 21.0655 183.295 20.9379C183.348 20.8483 183.371 20.7652 183.288 20.7705C183.183 20.779 183.116 20.9432 183.042 21.0213C182.95 21.1153 182.788 21.264 182.571 21.4243C182.626 21.1987 182.711 20.9613 182.819 20.7345C183.51 20.2949 183.759 19.8839 183.851 19.7335C183.867 19.7072 183.879 19.6814 183.886 19.658C183.942 19.6431 183.999 19.6284 184.055 19.6153C183.97 19.7563 183.891 19.8959 183.817 20.0335C183.132 21.2792 182.925 22.3876 183.132 23.3177ZM183.417 19.8193C183.498 19.7856 183.584 19.754 183.672 19.7244C183.648 19.7598 183.626 19.7935 183.603 19.8181C183.505 19.9205 183.324 20.0885 183.083 20.2662C183.178 20.1172 183.285 19.9627 183.417 19.8193ZM186.685 18.6034C186.726 18.4919 186.863 18.3626 186.912 18.2478C186.857 18.23 186.876 18.0968 186.898 18.0476C186.682 17.8987 186.393 17.7866 186.093 17.7476C185.859 17.7151 185.62 17.7271 185.404 17.7986C185.365 17.8155 185.293 17.8483 185.207 17.8916C185.337 17.8694 185.565 17.8413 185.77 17.8641C185.786 17.8653 185.8 17.867 185.815 17.8694C186.39 17.9467 186.5 18.2947 186.5 18.2947C186.5 18.2947 186.059 18.1381 185.752 18.0968C185.731 18.0945 185.711 18.093 185.692 18.0907C185.386 18.0655 184.945 18.1507 184.945 18.1507L184.39 18.3146C184.39 18.3146 185.109 18.2288 185.499 18.2827C185.556 18.2911 185.607 18.3011 185.646 18.3146C185.957 18.4284 186.185 18.6965 186.185 18.6965C186.185 18.6965 185.954 18.5189 185.501 18.4583C185.435 18.4501 185.364 18.4433 185.286 18.4398C184.827 18.4211 184.395 18.5273 184.114 18.6228L184.105 18.621C183.752 18.7281 183.474 18.8806 183.247 19.0612C183.222 19.0802 183.178 19.1218 183.178 19.1218C182.85 19.4042 182.631 19.7347 182.448 20.0382C182.084 20.6367 181.852 21.372 181.856 21.9453C181.858 22.2556 181.872 22.5734 181.962 22.8506C182.127 23.3584 182.381 23.9713 183.418 23.9985C184.662 24.0333 185.306 23.4509 185.659 22.6472C185.83 22.2556 185.948 21.9064 186.097 21.5347C186.097 21.5347 186.238 21.2198 186.305 21.0529C186.369 20.9083 186.436 20.7614 186.482 20.6367C186.62 20.2767 186.775 19.8851 186.789 19.5763C186.798 19.5093 186.801 19.4478 186.798 19.3957C186.78 19.3094 186.716 19.0665 186.632 18.9983C186.614 18.9125 186.665 18.6286 186.685 18.6034Z" fill="#124B8D"/>
</svg>
