<svg width="21" height="21" viewBox="0 0 21 21" fill="none" xmlns="http://www.w3.org/2000/svg">
<path d="M5.68725 20.1251C4.45004 20.1278 3.26302 19.6361 2.3902 18.7592L1.36553 17.7346C-0.455148 15.9139 -0.455189 12.9621 1.36548 11.1414L1.36553 11.1413L9.75345 2.75342C9.92133 2.57964 10.1983 2.5748 10.3721 2.74268C10.5459 2.91056 10.5507 3.1875 10.3828 3.36133C10.3793 3.36498 10.3757 3.36854 10.3721 3.37207L1.98417 11.7591C0.505536 13.2383 0.505536 15.6359 1.98417 17.115L3.00971 18.1406C4.48888 19.6192 6.88649 19.6192 8.36566 18.1406L19.3252 7.18101C20.3914 6.1143 20.3914 4.38542 19.3252 3.31871L18.5561 2.54957C17.4746 1.51957 15.7752 1.51957 14.6938 2.54957L4.86557 12.3777C4.21148 13.0317 4.2114 14.0921 4.86541 14.7462C4.86545 14.7462 4.86553 14.7463 4.86557 14.7464L5.37832 15.2591C6.04475 15.8827 7.08053 15.8827 7.74697 15.2591L15.0035 8.00261C15.1713 7.82883 15.4483 7.82399 15.6221 7.99187C15.7959 8.15975 15.8007 8.43669 15.6328 8.61052C15.6293 8.61417 15.6258 8.61773 15.6221 8.62126L8.36566 15.8778C7.35141 16.8279 5.77396 16.8279 4.75971 15.8778L4.24696 15.365C3.25121 14.3693 3.25121 12.7548 4.24696 11.7591L14.0751 1.93092C15.4833 0.522707 17.7665 0.522707 19.1747 1.93088C19.1747 1.93088 19.1747 1.93088 19.1747 1.93092L19.9439 2.70006C21.3521 4.10827 21.3521 6.39141 19.9439 7.79962C19.9439 7.79962 19.9439 7.79962 19.9439 7.79966L8.98431 18.7592C8.11148 19.6361 6.92447 20.1278 5.68725 20.1251Z" fill="#454545"/>
</svg>
