<svg width="44" height="44" viewBox="0 0 44 44" fill="none" xmlns="http://www.w3.org/2000/svg">
<circle cx="22" cy="22" r="22" fill="white"/>
<path d="M20.176 18H24.336V34H20.176V18ZM19.568 13.488C19.568 12.8693 19.792 12.3467 20.24 11.92C20.7093 11.472 21.3493 11.248 22.16 11.248C22.9707 11.248 23.6213 11.472 24.112 11.92C24.624 12.3467 24.88 12.8693 24.88 13.488C24.88 14.1067 24.624 14.6293 24.112 15.056C23.6213 15.4613 22.9707 15.664 22.16 15.664C21.3493 15.664 20.7093 15.4613 20.24 15.056C19.792 14.6293 19.568 14.1067 19.568 13.488Z" fill="#E32C22"/>
</svg>
